<?xml version="1.0" encoding="utf-8"?>
<svg xmlns="http://www.w3.org/2000/svg" xmlns:xlink="http://www.w3.org/1999/xlink" width="812" height="1056" viewBox="0 0 812 1056" version="1.2" >
<text transform="matrix(1 0 0 1 39.6763475570679 1007.92682897949)" font-family="Gulim" font-size="16">1</text>
<text transform="matrix(1 0 0 1 46.0880793876648 1007.92682897949)" font-family="Gulim" font-size="16">2</text>
<text transform="matrix(1 0 0 1 74.3055563354492 1007.00136053467)" font-family="Gulim" font-size="12">U</text>
<text transform="matrix(1 0 0 1 84.349716217041 1007.00136053467)" font-family="Gulim" font-size="12">n</text>
<text transform="matrix(1 0 0 1 92.502340637207 1007.00136053467)" font-family="Gulim" font-size="12">i</text>
<text transform="matrix(1 0 0 1 95.757528427124 1007.00136053467)" font-family="Gulim" font-size="12">t</text>
<text transform="matrix(1 0 0 1 100.097772033691 1007.00136053467)" font-family="Gulim" font-size="12"> </text>
<text transform="matrix(1 0 0 1 104.027453430176 1007.00136053467)" font-family="Gulim" font-size="12">1</text>
<text transform="matrix(1 0 0 1 98.7475745925903 187.354516845703)" font-family="Gulim" font-size="26">L</text>
<text transform="matrix(1 0 0 1 110.272687385559 187.354516845703)" font-family="Gulim" font-size="26">i</text>
<text transform="matrix(1 0 0 1 116.460471107483 187.354516845703)" font-family="Gulim" font-size="26">s</text>
<text transform="matrix(1 0 0 1 129.950424598694 187.354516845703)" font-family="Gulim" font-size="26">t</text>
<text transform="matrix(1 0 0 1 137.633846687317 187.354516845703)" font-family="Gulim" font-size="26">e</text>
<text transform="matrix(1 0 0 1 153.293932151794 187.354516845703)" font-family="Gulim" font-size="26">n</text>
<text transform="matrix(1 0 0 1 169.364579826355 187.354516845703)" font-family="Gulim" font-size="26"> </text>
<text transform="matrix(1 0 0 1 179.42339465332 187.354516845703)" font-family="Gulim" font-size="26">a</text>
<text transform="matrix(1 0 0 1 196.109895812988 187.354516845703)" font-family="Gulim" font-size="26">n</text>
<text transform="matrix(1 0 0 1 212.063222564697 187.354516845703)" font-family="Gulim" font-size="26">d</text>
<text transform="matrix(1 0 0 1 228.661733032227 187.354516845703)" font-family="Gulim" font-size="26"> </text>
<text transform="matrix(1 0 0 1 238.691248138428 187.354516845703)" font-family="Gulim" font-size="26">r</text>
<text transform="matrix(1 0 0 1 247.811648132324 187.354516845703)" font-family="Gulim" font-size="26">e</text>
<text transform="matrix(1 0 0 1 263.413093475342 187.354516845703)" font-family="Gulim" font-size="26">p</text>
<text transform="matrix(1 0 0 1 280.070264404297 187.354516845703)" font-family="Gulim" font-size="26">e</text>
<text transform="matrix(1 0 0 1 295.671709747314 187.354516845703)" font-family="Gulim" font-size="26">a</text>
<text transform="matrix(1 0 0 1 312.270220214844 187.354516845703)" font-family="Gulim" font-size="26">t</text>
<text transform="matrix(1 0 0 1 319.279128356934 187.354516845703)" font-family="Gulim" font-size="26">.</text>
<text transform="matrix(1 0 0 1 212.411808898926 921.313559326172)" font-family="Gulim" font-size="62">B</text>
<text transform="matrix(1 0 0 1 254.393335632324 921.313559326172)" font-family="Gulim" font-size="62"> </text>
<text transform="matrix(1 0 0 1 269.856103088379 921.313559326172)" font-family="Gulim" font-size="62">b</text>
<text transform="matrix(1 0 0 1 343.459035644531 921.313559326172)" font-family="Gulim" font-size="62">B</text>
<text transform="matrix(1 0 0 1 385.440521697998 921.313559326172)" font-family="Gulim" font-size="62"> </text>
<text transform="matrix(1 0 0 1 400.903329833984 921.313559326172)" font-family="Gulim" font-size="62">b</text>
<text transform="matrix(1 0 0 1 474.506262390137 921.313559326172)" font-family="Gulim" font-size="62">B</text>
<text transform="matrix(1 0 0 1 516.487748443604 921.313559326172)" font-family="Gulim" font-size="62"> </text>
<text transform="matrix(1 0 0 1 531.95055657959 921.313559326172)" font-family="Gulim" font-size="62">b</text>
<text transform="matrix(1 0 0 1 605.553489135742 921.313559326172)" font-family="Gulim" font-size="62">B</text>
<text transform="matrix(1 0 0 1 647.534975189209 921.313559326172)" font-family="Gulim" font-size="62"> </text>
<text transform="matrix(1 0 0 1 662.997742645264 921.313559326172)" font-family="Gulim" font-size="62">b</text>
<text transform="matrix(1 0 0 1 78.084071105957 828.738320251465)" font-family="Gulim" font-size="62">A</text>
<text transform="matrix(1 0 0 1 127.487722557068 828.738320251465)" font-family="Gulim" font-size="62"> </text>
<text transform="matrix(1 0 0 1 141.945431282043 828.738320251465)" font-family="Gulim" font-size="62">a</text>
<text transform="matrix(1 0 0 1 91.8788901748657 783.993893920898)" font-family="Gulim" font-size="5">1</text>
<text transform="matrix(1 0 0 1 111.631824241638 783.993893920898)" font-family="Gulim" font-size="5">2</text>
<text transform="matrix(1 0 0 1 93.9730320358276 811.388573486328)" font-family="Gulim" font-size="5">3</text>
<text transform="matrix(1 0 0 1 172.395285583496 808.554728088379)" font-family="Gulim" font-size="5">2</text>
<text transform="matrix(1 0 0 1 158.9486460495 818.001177734375)" font-family="Gulim" font-size="5">1</text>
<text transform="matrix(1 0 0 1 95.238981338501 742.211942932129)" font-family="Gulim" font-size="26">S</text>
<text transform="matrix(1 0 0 1 109.696700233459 742.211942932129)" font-family="Gulim" font-size="26">a</text>
<text transform="matrix(1 0 0 1 126.11925982666 742.211942932129)" font-family="Gulim" font-size="26">y</text>
<text transform="matrix(1 0 0 1 139.433262443542 742.211942932129)" font-family="Gulim" font-size="26"> </text>
<text transform="matrix(1 0 0 1 149.462757209778 742.211942932129)" font-family="Gulim" font-size="26">a</text>
<text transform="matrix(1 0 0 1 166.14923802948 742.211942932129)" font-family="Gulim" font-size="26">n</text>
<text transform="matrix(1 0 0 1 182.102574951172 742.211942932129)" font-family="Gulim" font-size="26">d</text>
<text transform="matrix(1 0 0 1 198.701085418701 742.211942932129)" font-family="Gulim" font-size="26"> </text>
<text transform="matrix(1 0 0 1 208.730600524902 742.211942932129)" font-family="Gulim" font-size="26">t</text>
<text transform="matrix(1 0 0 1 216.619293548584 742.211942932129)" font-family="Gulim" font-size="26">r</text>
<text transform="matrix(1 0 0 1 225.622372619629 742.211942932129)" font-family="Gulim" font-size="26">a</text>
<text transform="matrix(1 0 0 1 242.220883087158 742.211942932129)" font-family="Gulim" font-size="26">c</text>
<text transform="matrix(1 0 0 1 254.977702850342 742.211942932129)" font-family="Gulim" font-size="26">e</text>
<text transform="matrix(1 0 0 1 269.992624938965 742.211942932129)" font-family="Gulim" font-size="26">.</text>
<text transform="matrix(1 0 0 1 277.617386566162 742.211942932129)" font-family="Gulim" font-size="26"> </text>
<text transform="matrix(1 0 0 1 79.4565306396484 921.313559326172)" font-family="Gulim" font-size="62">B</text>
<text transform="matrix(1 0 0 1 121.438037033081 921.313559326172)" font-family="Gulim" font-size="62"> </text>
<text transform="matrix(1 0 0 1 140.766526863098 921.313559326172)" font-family="Gulim" font-size="62">b</text>
<text transform="matrix(1 0 0 1 77.7091038360596 876.569214355469)" font-family="Gulim" font-size="5">1</text>
<text transform="matrix(1 0 0 1 139.111077384949 876.569214355469)" font-family="Gulim" font-size="5">1</text>
<text transform="matrix(1 0 0 1 152.557727088928 910.954333374023)" font-family="Gulim" font-size="5">2</text>
<text transform="matrix(1 0 0 1 89.2663436050415 880.347729125977)" font-family="Gulim" font-size="5">2</text>
<text transform="matrix(1 0 0 1 89.2496851730347 905.286398498535)" font-family="Gulim" font-size="5">3</text>
<text transform="matrix(1 0 0 1 64.859116859436 114.540124084473)" font-family="Gulim" font-size="76">U</text>
<text transform="matrix(1 0 0 1 122.072816856384 114.540124084473)" font-family="Gulim" font-size="76">n</text>
<text transform="matrix(1 0 0 1 172.372220062256 114.540124084473)" font-family="Gulim" font-size="76">i</text>
<text transform="matrix(1 0 0 1 198.433696228027 114.540124084473)" font-family="Gulim" font-size="76">t</text>
<text transform="matrix(1 0 0 1 240.071274139404 114.540124084473)" font-family="Gulim" font-size="76"> </text>
<text transform="matrix(1 0 0 1 253.140027618408 114.540124084473)" font-family="Gulim" font-size="76">1</text>
<text transform="matrix(1 0 0 1 209.106523773193 828.832697692871)" font-family="Gulim" font-size="62">A</text>
<text transform="matrix(1 0 0 1 258.510144714355 828.832697692871)" font-family="Gulim" font-size="62"> </text>
<text transform="matrix(1 0 0 1 272.967873779297 828.832697692871)" font-family="Gulim" font-size="62">a</text>
<text transform="matrix(1 0 0 1 340.153750518799 828.832697692871)" font-family="Gulim" font-size="62">A</text>
<text transform="matrix(1 0 0 1 389.557412139893 828.832697692871)" font-family="Gulim" font-size="62"> </text>
<text transform="matrix(1 0 0 1 404.015141204834 828.832697692871)" font-family="Gulim" font-size="62">a</text>
<text transform="matrix(1 0 0 1 471.200977264404 828.832697692871)" font-family="Gulim" font-size="62">A</text>
<text transform="matrix(1 0 0 1 520.604638885498 828.832697692871)" font-family="Gulim" font-size="62"> </text>
<text transform="matrix(1 0 0 1 535.062367950439 828.832697692871)" font-family="Gulim" font-size="62">a</text>
<text transform="matrix(1 0 0 1 602.24820401001 828.832697692871)" font-family="Gulim" font-size="62">A</text>
<text transform="matrix(1 0 0 1 651.65178427124 828.832697692871)" font-family="Gulim" font-size="62"> </text>
<text transform="matrix(1 0 0 1 666.109513336182 828.832697692871)" font-family="Gulim" font-size="62">a</text>
<text transform="matrix(1 0 0 1 336.731388549805 101.435002746582)" font-family="Gulim" font-size="24">A</text>
<text transform="matrix(1 0 0 1 352.113569061279 101.435002746582)" font-family="Gulim" font-size="24">a</text>
<text transform="matrix(1 0 0 1 365.465576904297 101.435002746582)" font-family="Gulim" font-size="24"> </text>
<text transform="matrix(1 0 0 1 373.273764343262 101.435002746582)" font-family="Gulim" font-size="24">B</text>
<text transform="matrix(1 0 0 1 60.5391318588257 193.669669433594)" font-family="Gulim" font-size="10">0</text>
<text transform="matrix(1 0 0 1 67.3640955200195 193.669669433594)" font-family="Gulim" font-size="10">3</text>
<text transform="matrix(1 0 0 1 199.54930267334 372.673572631836)" font-family="Gulim" font-size="125">A</text>
<text transform="matrix(1 0 0 1 273.82784753418 372.673572631836)" font-family="Gulim" font-size="125">a</text>
<text transform="matrix(1 0 0 1 192.25970300293 633.96821798706)" font-family="Gulim" font-size="125">B</text>
<text transform="matrix(1 0 0 1 23.3996153488159 1088.67576104736)" font-family="Gulim" font-size="7">L</text>
<text transform="matrix(1 0 0 1 27.8145117149353 1088.67576104736)" font-family="Gulim" font-size="7">e</text>
<text transform="matrix(1 0 0 1 32.2054120063782 1088.67576104736)" font-family="Gulim" font-size="7">v</text>
<text transform="matrix(1 0 0 1 36.5403265419006 1088.67576104736)" font-family="Gulim" font-size="7">e</text>
<text transform="matrix(1 0 0 1 40.9312268333435 1088.67576104736)" font-family="Gulim" font-size="7">l</text>
<text transform="matrix(1 0 0 1 42.266891368866 1088.67576104736)" font-family="Gulim" font-size="7">1</text>
<text transform="matrix(1 0 0 1 47.7055287246704 1088.67576104736)" font-family="Gulim" font-size="7">_</text>
<text transform="matrix(1 0 0 1 51.7045287246704 1088.67576104736)" font-family="Gulim" font-size="7">T</text>
<text transform="matrix(1 0 0 1 56.9912112808228 1088.67576104736)" font-family="Gulim" font-size="7">O</text>
<text transform="matrix(1 0 0 1 63.1976569213867 1088.67576104736)" font-family="Gulim" font-size="7">C</text>
<text transform="matrix(1 0 0 1 68.6762877349854 1088.67576104736)" font-family="Gulim" font-size="7">_</text>
<text transform="matrix(1 0 0 1 72.6752877349853 1088.67576104736)" font-family="Gulim" font-size="7">A</text>
<text transform="matrix(1 0 0 1 78.4818394775391 1088.67576104736)" font-family="Gulim" font-size="7">l</text>
<text transform="matrix(1 0 0 1 79.8175040130615 1088.67576104736)" font-family="Gulim" font-size="7">p</text>
<text transform="matrix(1 0 0 1 84.2483926773071 1088.67576104736)" font-family="Gulim" font-size="7">h</text>
<text transform="matrix(1 0 0 1 88.4233537216187 1088.67576104736)" font-family="Gulim" font-size="7">a</text>
<text transform="matrix(1 0 0 1 92.94222290802 1088.67576104736)" font-family="Gulim" font-size="7">_</text>
<text transform="matrix(1 0 0 1 96.94122290802 1088.67576104736)" font-family="Gulim" font-size="7">U</text>
<text transform="matrix(1 0 0 1 102.819757789612 1088.67576104736)" font-family="Gulim" font-size="7">n</text>
<text transform="matrix(1 0 0 1 107.290644996643 1088.67576104736)" font-family="Gulim" font-size="7">i</text>
<text transform="matrix(1 0 0 1 108.562330169678 1088.67576104736)" font-family="Gulim" font-size="7">t</text>
<text transform="matrix(1 0 0 1 111.297648773193 1088.67576104736)" font-family="Gulim" font-size="7">1</text>
<text transform="matrix(1 0 0 1 116.736291213989 1088.67576104736)" font-family="Gulim" font-size="7">_</text>
<text transform="matrix(1 0 0 1 120.735291213989 1088.67576104736)" font-family="Gulim" font-size="7">7</text>
<text transform="matrix(1 0 0 1 126.173933654785 1088.67576104736)" font-family="Gulim" font-size="7">교</text>
<text transform="matrix(1 0 0 1 134.171943824768 1088.67576104736)" font-family="Gulim" font-size="7">.</text>
<text transform="matrix(1 0 0 1 136.931263587952 1088.67576104736)" font-family="Gulim" font-size="7">i</text>
<text transform="matrix(1 0 0 1 138.202938591003 1088.67576104736)" font-family="Gulim" font-size="7">n</text>
<text transform="matrix(1 0 0 1 142.673825798035 1088.67576104736)" font-family="Gulim" font-size="7">d</text>
<text transform="matrix(1 0 0 1 146.992753120422 1088.67576104736)" font-family="Gulim" font-size="7">d</text>
<text transform="matrix(1 0 0 1 151.31168044281 1088.67576104736)" font-family="Gulim" font-size="7"> </text>
<text transform="matrix(1 0 0 1 153.871038002014 1088.67576104736)" font-family="Gulim" font-size="7"> </text>
<text transform="matrix(1 0 0 1 156.430395561218 1088.67576104736)" font-family="Gulim" font-size="7"> </text>
<text transform="matrix(1 0 0 1 158.989753120422 1088.67576104736)" font-family="Gulim" font-size="7">1</text>
<text transform="matrix(1 0 0 1 164.428395561218 1088.67576104736)" font-family="Gulim" font-size="7">2</text>
<text transform="matrix(1 0 0 1 723.592005981445 1088.67576104736)" font-family="Gulim" font-size="7">1</text>
<text transform="matrix(1 0 0 1 729.030668762207 1088.67576104736)" font-family="Gulim" font-size="7">1</text>
<text transform="matrix(1 0 0 1 734.469331542969 1088.67576104736)" font-family="Gulim" font-size="7">.</text>
<text transform="matrix(1 0 0 1 737.228651306152 1088.67576104736)" font-family="Gulim" font-size="7"> </text>
<text transform="matrix(1 0 0 1 739.787988525391 1088.67576104736)" font-family="Gulim" font-size="7">9</text>
<text transform="matrix(1 0 0 1 745.226651306152 1088.67576104736)" font-family="Gulim" font-size="7">.</text>
<text transform="matrix(1 0 0 1 747.985971069336 1088.67576104736)" font-family="Gulim" font-size="7"> </text>
<text transform="matrix(1 0 0 1 750.545308288574 1088.67576104736)" font-family="Gulim" font-size="7">2</text>
<text transform="matrix(1 0 0 1 755.983971069336 1088.67576104736)" font-family="Gulim" font-size="7">9</text>
<text transform="matrix(1 0 0 1 761.422633850098 1088.67576104736)" font-family="Gulim" font-size="7">.</text>
<text transform="matrix(1 0 0 1 764.181953613281 1088.67576104736)" font-family="Gulim" font-size="7"> </text>
<text transform="matrix(1 0 0 1 766.74129083252 1088.67576104736)" font-family="Gulim" font-size="7"> </text>
<text transform="matrix(1 0 0 1 769.300628051758 1088.67576104736)" font-family="Gulim" font-size="7"> </text>
<text transform="matrix(1 0 0 1 771.859965270996 1088.67576104736)" font-family="Gulim" font-size="7">오</text>
<text transform="matrix(1 0 0 1 779.857965270996 1088.67576104736)" font-family="Gulim" font-size="7">후</text>
<text transform="matrix(1 0 0 1 787.855965270996 1088.67576104736)" font-family="Gulim" font-size="7"> </text>
<text transform="matrix(1 0 0 1 790.415302490234 1088.67576104736)" font-family="Gulim" font-size="7">4</text>
<text transform="matrix(1 0 0 1 795.853965270996 1088.67576104736)" font-family="Gulim" font-size="7">:</text>
<text transform="matrix(1 0 0 1 799.852965270996 1088.67576104736)" font-family="Gulim" font-size="7">0</text>
<text transform="matrix(1 0 0 1 805.291628051758 1088.67576104736)" font-family="Gulim" font-size="7">1</text>
</svg>