<?xml version="1.0" encoding="utf-8"?>
<svg xmlns="http://www.w3.org/2000/svg" xmlns:xlink="http://www.w3.org/1999/xlink" width="812" height="1056" viewBox="0 0 812 1056" version="1.2" >
<text transform="matrix(1 0 0 1 757.607100341797 1007.92699169922)" font-family="Gulim" font-size="16">1</text>
<text transform="matrix(1 0 0 1 764.018827087402 1007.92699169922)" font-family="Gulim" font-size="16">3</text>
<text transform="matrix(1 0 0 1 697.3568671875 1007.00136053467)" font-family="Gulim" font-size="12">A</text>
<text transform="matrix(1 0 0 1 706.5212421875 1007.00136053467)" font-family="Gulim" font-size="12">a</text>
<text transform="matrix(1 0 0 1 714.864533447266 1007.00136053467)" font-family="Gulim" font-size="12"> </text>
<text transform="matrix(1 0 0 1 718.720909606934 1007.00136053467)" font-family="Gulim" font-size="12"> </text>
<text transform="matrix(1 0 0 1 722.577285766602 1007.00136053467)" font-family="Gulim" font-size="12">B</text>
<text transform="matrix(1 0 0 1 730.920577026367 1007.00136053467)" font-family="Gulim" font-size="12">b</text>
<text transform="matrix(1 0 0 1 113.80847517395 818.421157348633)" font-family="Gulim" font-size="20">1</text>
<text transform="matrix(1 0 0 1 121.946444648743 818.421157348633)" font-family="Gulim" font-size="20">.</text>
<text transform="matrix(1 0 0 1 148.784399009705 908.170198852539)" font-family="Gulim" font-size="34">A</text>
<text transform="matrix(1 0 0 1 171.626678955078 908.170198852539)" font-family="Gulim" font-size="34">a</text>
<text transform="matrix(1 0 0 1 214.735894073486 908.170198852539)" font-family="Gulim" font-size="34">B</text>
<text transform="matrix(1 0 0 1 234.778896392822 908.170198852539)" font-family="Gulim" font-size="34">b</text>
<text transform="matrix(1 0 0 1 337.715924255371 818.421157348633)" font-family="Gulim" font-size="20">2</text>
<text transform="matrix(1 0 0 1 350.340778320313 818.421157348633)" font-family="Gulim" font-size="20">.</text>
<text transform="matrix(1 0 0 1 372.022815765381 908.170198852539)" font-family="Gulim" font-size="34">A</text>
<text transform="matrix(1 0 0 1 394.865085540771 908.170198852539)" font-family="Gulim" font-size="34">a</text>
<text transform="matrix(1 0 0 1 438.646170410156 908.170198852539)" font-family="Gulim" font-size="34">B</text>
<text transform="matrix(1 0 0 1 458.689172729492 908.170198852539)" font-family="Gulim" font-size="34">b</text>
<text transform="matrix(1 0 0 1 567.29092175293 818.421157348633)" font-family="Gulim" font-size="20">3</text>
<text transform="matrix(1 0 0 1 579.915775817871 818.421157348633)" font-family="Gulim" font-size="20">.</text>
<text transform="matrix(1 0 0 1 602.240718902588 908.170036132812)" font-family="Gulim" font-size="34">A</text>
<text transform="matrix(1 0 0 1 625.082988677979 908.170036132812)" font-family="Gulim" font-size="34">a</text>
<text transform="matrix(1 0 0 1 668.229588653564 908.170036132812)" font-family="Gulim" font-size="34">B</text>
<text transform="matrix(1 0 0 1 688.272631652832 908.170036132812)" font-family="Gulim" font-size="34">b</text>
<text transform="matrix(1 0 0 1 151.38681627655 766.221726745605)" font-family="Gulim" font-size="26">L</text>
<text transform="matrix(1 0 0 1 162.911929069519 766.221726745605)" font-family="Gulim" font-size="26">i</text>
<text transform="matrix(1 0 0 1 169.099733131409 766.221726745605)" font-family="Gulim" font-size="26">s</text>
<text transform="matrix(1 0 0 1 182.589717132568 766.221726745605)" font-family="Gulim" font-size="26">t</text>
<text transform="matrix(1 0 0 1 190.273139221191 766.221726745605)" font-family="Gulim" font-size="26">e</text>
<text transform="matrix(1 0 0 1 205.933204345703 766.221726745605)" font-family="Gulim" font-size="26">n</text>
<text transform="matrix(1 0 0 1 222.003852020264 766.221726745605)" font-family="Gulim" font-size="26"> </text>
<text transform="matrix(1 0 0 1 232.062697357178 766.221726745605)" font-family="Gulim" font-size="26">a</text>
<text transform="matrix(1 0 0 1 248.749157836914 766.221726745605)" font-family="Gulim" font-size="26">n</text>
<text transform="matrix(1 0 0 1 264.702525268555 766.221726745605)" font-family="Gulim" font-size="26">d</text>
<text transform="matrix(1 0 0 1 281.301035736084 766.221726745605)" font-family="Gulim" font-size="26"> </text>
<text transform="matrix(1 0 0 1 291.330510162354 766.221726745605)" font-family="Gulim" font-size="26">c</text>
<text transform="matrix(1 0 0 1 304.321931091309 766.221726745605)" font-family="Gulim" font-size="26">i</text>
<text transform="matrix(1 0 0 1 310.656365966797 766.221726745605)" font-family="Gulim" font-size="26">r</text>
<text transform="matrix(1 0 0 1 319.688775268555 766.221726745605)" font-family="Gulim" font-size="26">c</text>
<text transform="matrix(1 0 0 1 332.68019619751 766.221726745605)" font-family="Gulim" font-size="26">l</text>
<text transform="matrix(1 0 0 1 339.043961303711 766.221726745605)" font-family="Gulim" font-size="26">e</text>
<text transform="matrix(1 0 0 1 354.058883392334 766.221726745605)" font-family="Gulim" font-size="26">.</text>
<text transform="matrix(1 0 0 1 113.506813140869 772.434528625488)" font-family="Gulim" font-size="10">0</text>
<text transform="matrix(1 0 0 1 120.331776802063 772.434528625488)" font-family="Gulim" font-size="10">5</text>
<text transform="matrix(1 0 0 1 138.125728080749 187.354516845703)" font-family="Gulim" font-size="26">L</text>
<text transform="matrix(1 0 0 1 149.650840873718 187.354516845703)" font-family="Gulim" font-size="26">i</text>
<text transform="matrix(1 0 0 1 155.838644935608 187.354516845703)" font-family="Gulim" font-size="26">s</text>
<text transform="matrix(1 0 0 1 169.328618766785 187.354516845703)" font-family="Gulim" font-size="26">t</text>
<text transform="matrix(1 0 0 1 177.012051025391 187.354516845703)" font-family="Gulim" font-size="26">e</text>
<text transform="matrix(1 0 0 1 192.672116149902 187.354516845703)" font-family="Gulim" font-size="26">n</text>
<text transform="matrix(1 0 0 1 208.742763824463 187.354516845703)" font-family="Gulim" font-size="26"> </text>
<text transform="matrix(1 0 0 1 218.801609161377 187.354516845703)" font-family="Gulim" font-size="26">a</text>
<text transform="matrix(1 0 0 1 235.488069641113 187.354516845703)" font-family="Gulim" font-size="26">n</text>
<text transform="matrix(1 0 0 1 251.441437072754 187.354516845703)" font-family="Gulim" font-size="26">d</text>
<text transform="matrix(1 0 0 1 268.039947540283 187.354516845703)" font-family="Gulim" font-size="26"> </text>
<text transform="matrix(1 0 0 1 278.069421966553 187.354516845703)" font-family="Gulim" font-size="26">r</text>
<text transform="matrix(1 0 0 1 287.189821960449 187.354516845703)" font-family="Gulim" font-size="26">e</text>
<text transform="matrix(1 0 0 1 302.791267303467 187.354516845703)" font-family="Gulim" font-size="26">p</text>
<text transform="matrix(1 0 0 1 319.448438232422 187.354516845703)" font-family="Gulim" font-size="26">e</text>
<text transform="matrix(1 0 0 1 335.049883575439 187.354516845703)" font-family="Gulim" font-size="26">a</text>
<text transform="matrix(1 0 0 1 351.648394042969 187.354516845703)" font-family="Gulim" font-size="26">t</text>
<text transform="matrix(1 0 0 1 358.657302185059 187.354516845703)" font-family="Gulim" font-size="26">.</text>
<text transform="matrix(1 0 0 1 99.9598060455322 193.94580480957)" font-family="Gulim" font-size="10">0</text>
<text transform="matrix(1 0 0 1 106.784769706726 193.94580480957)" font-family="Gulim" font-size="10">4</text>
<text transform="matrix(1 0 0 1 452.581080993652 411.948785552979)" font-family="Gulim" font-size="21">a</text>
<text transform="matrix(1 0 0 1 465.588489135742 411.948785552979)" font-family="Gulim" font-size="20">l</text>
<text transform="matrix(1 0 0 1 470.211315887451 411.948785552979)" font-family="Gulim" font-size="20">l</text>
<text transform="matrix(1 0 0 1 474.83414263916 411.948785552979)" font-family="Gulim" font-size="20">i</text>
<text transform="matrix(1 0 0 1 479.456969390869 411.948785552979)" font-family="Gulim" font-size="20">g</text>
<text transform="matrix(1 0 0 1 492.056479858398 411.948785552979)" font-family="Gulim" font-size="20">a</text>
<text transform="matrix(1 0 0 1 504.655990325928 411.948785552979)" font-family="Gulim" font-size="20">t</text>
<text transform="matrix(1 0 0 1 510.547868225098 411.948785552979)" font-family="Gulim" font-size="20">o</text>
<text transform="matrix(1 0 0 1 522.739481018066 411.948785552979)" font-family="Gulim" font-size="20">r</text>
<text transform="matrix(1 0 0 1 473.791760070801 644.337369842529)" font-family="Gulim" font-size="21">b</text>
<text transform="matrix(1 0 0 1 486.799168212891 644.337369842529)" font-family="Gulim" font-size="20">a</text>
<text transform="matrix(1 0 0 1 499.39867868042 644.337369842529)" font-family="Gulim" font-size="20">l</text>
<text transform="matrix(1 0 0 1 504.021505432129 644.337369842529)" font-family="Gulim" font-size="20">l</text>
<text transform="matrix(1 0 0 1 299.302068206787 411.2689425354)" font-family="Gulim" font-size="21">a</text>
<text transform="matrix(1 0 0 1 312.309476348877 411.2689425354)" font-family="Gulim" font-size="20">p</text>
<text transform="matrix(1 0 0 1 324.908986816406 411.2689425354)" font-family="Gulim" font-size="20">p</text>
<text transform="matrix(1 0 0 1 337.508497283936 411.2689425354)" font-family="Gulim" font-size="20">l</text>
<text transform="matrix(1 0 0 1 342.131324035645 411.2689425354)" font-family="Gulim" font-size="20">e</text>
<text transform="matrix(1 0 0 1 304.332792633057 643.657526824951)" font-family="Gulim" font-size="21">b</text>
<text transform="matrix(1 0 0 1 317.340200775146 643.657526824951)" font-family="Gulim" font-size="20">e</text>
<text transform="matrix(1 0 0 1 329.123915893555 643.657526824951)" font-family="Gulim" font-size="20">a</text>
<text transform="matrix(1 0 0 1 341.723426361084 643.657526824951)" font-family="Gulim" font-size="20">r</text>
<text transform="matrix(1 0 0 1 640.259450775146 411.971484954834)" font-family="Gulim" font-size="21">a</text>
<text transform="matrix(1 0 0 1 653.266858917236 411.971484954834)" font-family="Gulim" font-size="20">n</text>
<text transform="matrix(1 0 0 1 665.458471710205 411.971484954834)" font-family="Gulim" font-size="20">t</text>
<text transform="matrix(1 0 0 1 636.860317047119 644.360069244385)" font-family="Gulim" font-size="21">b</text>
<text transform="matrix(1 0 0 1 662.178123382568 644.331756011963)" font-family="Gulim" font-size="20">g</text>
<text transform="matrix(1 0 0 1 106.968988777161 370.145477600098)" font-family="Gulim" font-size="100">A</text>
<text transform="matrix(1 0 0 1 166.39187348175 370.145477600098)" font-family="Gulim" font-size="100">a</text>
<text transform="matrix(1 0 0 1 102.846586204529 600.295892730713)" font-family="Gulim" font-size="100">B</text>
<text transform="matrix(1 0 0 1 23.3996153488159 1088.67576104736)" font-family="Gulim" font-size="7">L</text>
<text transform="matrix(1 0 0 1 27.8145117149353 1088.67576104736)" font-family="Gulim" font-size="7">e</text>
<text transform="matrix(1 0 0 1 32.2054120063782 1088.67576104736)" font-family="Gulim" font-size="7">v</text>
<text transform="matrix(1 0 0 1 36.5403265419006 1088.67576104736)" font-family="Gulim" font-size="7">e</text>
<text transform="matrix(1 0 0 1 40.9312268333435 1088.67576104736)" font-family="Gulim" font-size="7">l</text>
<text transform="matrix(1 0 0 1 42.266891368866 1088.67576104736)" font-family="Gulim" font-size="7">1</text>
<text transform="matrix(1 0 0 1 47.7055287246704 1088.67576104736)" font-family="Gulim" font-size="7">_</text>
<text transform="matrix(1 0 0 1 51.7045287246704 1088.67576104736)" font-family="Gulim" font-size="7">T</text>
<text transform="matrix(1 0 0 1 56.9912112808228 1088.67576104736)" font-family="Gulim" font-size="7">O</text>
<text transform="matrix(1 0 0 1 63.1976569213867 1088.67576104736)" font-family="Gulim" font-size="7">C</text>
<text transform="matrix(1 0 0 1 68.6762877349854 1088.67576104736)" font-family="Gulim" font-size="7">_</text>
<text transform="matrix(1 0 0 1 72.6752877349853 1088.67576104736)" font-family="Gulim" font-size="7">A</text>
<text transform="matrix(1 0 0 1 78.4818394775391 1088.67576104736)" font-family="Gulim" font-size="7">l</text>
<text transform="matrix(1 0 0 1 79.8175040130615 1088.67576104736)" font-family="Gulim" font-size="7">p</text>
<text transform="matrix(1 0 0 1 84.2483926773071 1088.67576104736)" font-family="Gulim" font-size="7">h</text>
<text transform="matrix(1 0 0 1 88.4233537216187 1088.67576104736)" font-family="Gulim" font-size="7">a</text>
<text transform="matrix(1 0 0 1 92.94222290802 1088.67576104736)" font-family="Gulim" font-size="7">_</text>
<text transform="matrix(1 0 0 1 96.94122290802 1088.67576104736)" font-family="Gulim" font-size="7">U</text>
<text transform="matrix(1 0 0 1 102.819757789612 1088.67576104736)" font-family="Gulim" font-size="7">n</text>
<text transform="matrix(1 0 0 1 107.290644996643 1088.67576104736)" font-family="Gulim" font-size="7">i</text>
<text transform="matrix(1 0 0 1 108.562330169678 1088.67576104736)" font-family="Gulim" font-size="7">t</text>
<text transform="matrix(1 0 0 1 111.297648773193 1088.67576104736)" font-family="Gulim" font-size="7">1</text>
<text transform="matrix(1 0 0 1 116.736291213989 1088.67576104736)" font-family="Gulim" font-size="7">_</text>
<text transform="matrix(1 0 0 1 120.735291213989 1088.67576104736)" font-family="Gulim" font-size="7">7</text>
<text transform="matrix(1 0 0 1 126.173933654785 1088.67576104736)" font-family="Gulim" font-size="7">교</text>
<text transform="matrix(1 0 0 1 134.171943824768 1088.67576104736)" font-family="Gulim" font-size="7">.</text>
<text transform="matrix(1 0 0 1 136.931263587952 1088.67576104736)" font-family="Gulim" font-size="7">i</text>
<text transform="matrix(1 0 0 1 138.202938591003 1088.67576104736)" font-family="Gulim" font-size="7">n</text>
<text transform="matrix(1 0 0 1 142.673825798035 1088.67576104736)" font-family="Gulim" font-size="7">d</text>
<text transform="matrix(1 0 0 1 146.992753120422 1088.67576104736)" font-family="Gulim" font-size="7">d</text>
<text transform="matrix(1 0 0 1 151.31168044281 1088.67576104736)" font-family="Gulim" font-size="7"> </text>
<text transform="matrix(1 0 0 1 153.871038002014 1088.67576104736)" font-family="Gulim" font-size="7"> </text>
<text transform="matrix(1 0 0 1 156.430395561218 1088.67576104736)" font-family="Gulim" font-size="7"> </text>
<text transform="matrix(1 0 0 1 158.989753120422 1088.67576104736)" font-family="Gulim" font-size="7">1</text>
<text transform="matrix(1 0 0 1 164.428395561218 1088.67576104736)" font-family="Gulim" font-size="7">3</text>
<text transform="matrix(1 0 0 1 723.592005981445 1088.67576104736)" font-family="Gulim" font-size="7">1</text>
<text transform="matrix(1 0 0 1 729.030668762207 1088.67576104736)" font-family="Gulim" font-size="7">1</text>
<text transform="matrix(1 0 0 1 734.469331542969 1088.67576104736)" font-family="Gulim" font-size="7">.</text>
<text transform="matrix(1 0 0 1 737.228651306152 1088.67576104736)" font-family="Gulim" font-size="7"> </text>
<text transform="matrix(1 0 0 1 739.787988525391 1088.67576104736)" font-family="Gulim" font-size="7">9</text>
<text transform="matrix(1 0 0 1 745.226651306152 1088.67576104736)" font-family="Gulim" font-size="7">.</text>
<text transform="matrix(1 0 0 1 747.985971069336 1088.67576104736)" font-family="Gulim" font-size="7"> </text>
<text transform="matrix(1 0 0 1 750.545308288574 1088.67576104736)" font-family="Gulim" font-size="7">2</text>
<text transform="matrix(1 0 0 1 755.983971069336 1088.67576104736)" font-family="Gulim" font-size="7">9</text>
<text transform="matrix(1 0 0 1 761.422633850098 1088.67576104736)" font-family="Gulim" font-size="7">.</text>
<text transform="matrix(1 0 0 1 764.181953613281 1088.67576104736)" font-family="Gulim" font-size="7"> </text>
<text transform="matrix(1 0 0 1 766.74129083252 1088.67576104736)" font-family="Gulim" font-size="7"> </text>
<text transform="matrix(1 0 0 1 769.300628051758 1088.67576104736)" font-family="Gulim" font-size="7"> </text>
<text transform="matrix(1 0 0 1 771.859965270996 1088.67576104736)" font-family="Gulim" font-size="7">오</text>
<text transform="matrix(1 0 0 1 779.857965270996 1088.67576104736)" font-family="Gulim" font-size="7">후</text>
<text transform="matrix(1 0 0 1 787.855965270996 1088.67576104736)" font-family="Gulim" font-size="7"> </text>
<text transform="matrix(1 0 0 1 790.415302490234 1088.67576104736)" font-family="Gulim" font-size="7">4</text>
<text transform="matrix(1 0 0 1 795.853965270996 1088.67576104736)" font-family="Gulim" font-size="7">:</text>
<text transform="matrix(1 0 0 1 799.852965270996 1088.67576104736)" font-family="Gulim" font-size="7">0</text>
<text transform="matrix(1 0 0 1 805.291628051758 1088.67576104736)" font-family="Gulim" font-size="7">1</text>
</svg>