<?xml version="1.0" encoding="utf-8"?>
<svg xmlns="http://www.w3.org/2000/svg" xmlns:xlink="http://www.w3.org/1999/xlink" width="812" height="1056" viewBox="0 0 812 1056" version="1.2" >
<text transform="matrix(1 0 0 1 39.6763475570679 1007.92682897949)" font-family="Gulim" font-size="16">1</text>
<text transform="matrix(1 0 0 1 46.0880793876648 1007.92682897949)" font-family="Gulim" font-size="16">4</text>
<text transform="matrix(1 0 0 1 99.237981338501 148.751621154785)" font-family="Gulim" font-size="26">L</text>
<text transform="matrix(1 0 0 1 110.76309413147 148.751621154785)" font-family="Gulim" font-size="26">i</text>
<text transform="matrix(1 0 0 1 116.950877853394 148.751621154785)" font-family="Gulim" font-size="26">s</text>
<text transform="matrix(1 0 0 1 130.440831344604 148.751621154785)" font-family="Gulim" font-size="26">t</text>
<text transform="matrix(1 0 0 1 138.124243263245 148.751621154785)" font-family="Gulim" font-size="26">e</text>
<text transform="matrix(1 0 0 1 153.784328727722 148.751621154785)" font-family="Gulim" font-size="26">n</text>
<text transform="matrix(1 0 0 1 169.854976402283 148.751621154785)" font-family="Gulim" font-size="26"> </text>
<text transform="matrix(1 0 0 1 179.913791229248 148.751621154785)" font-family="Gulim" font-size="26">a</text>
<text transform="matrix(1 0 0 1 196.600292388916 148.751621154785)" font-family="Gulim" font-size="26">n</text>
<text transform="matrix(1 0 0 1 212.553619140625 148.751621154785)" font-family="Gulim" font-size="26">d</text>
<text transform="matrix(1 0 0 1 229.152129608154 148.751621154785)" font-family="Gulim" font-size="26"> </text>
<text transform="matrix(1 0 0 1 239.181644714355 148.751621154785)" font-family="Gulim" font-size="26">c</text>
<text transform="matrix(1 0 0 1 252.173065643311 148.751621154785)" font-family="Gulim" font-size="26">i</text>
<text transform="matrix(1 0 0 1 258.507500518799 148.751621154785)" font-family="Gulim" font-size="26">r</text>
<text transform="matrix(1 0 0 1 267.539909820557 148.751621154785)" font-family="Gulim" font-size="26">c</text>
<text transform="matrix(1 0 0 1 280.531330749512 148.751621154785)" font-family="Gulim" font-size="26">l</text>
<text transform="matrix(1 0 0 1 286.895055175781 148.751621154785)" font-family="Gulim" font-size="26">e</text>
<text transform="matrix(1 0 0 1 301.909977264404 148.751621154785)" font-family="Gulim" font-size="26">.</text>
<text transform="matrix(1 0 0 1 309.534738891602 148.751621154785)" font-family="Gulim" font-size="26"> </text>
<text transform="matrix(1 0 0 1 66.7497065124512 196.734170043945)" font-family="Gulim" font-size="20">1</text>
<text transform="matrix(1 0 0 1 74.8876759872437 196.734170043945)" font-family="Gulim" font-size="20">.</text>
<text transform="matrix(1 0 0 1 74.3055563354492 1007.00136053467)" font-family="Gulim" font-size="12">U</text>
<text transform="matrix(1 0 0 1 84.2764008102417 1007.00136053467)" font-family="Gulim" font-size="12">n</text>
<text transform="matrix(1 0 0 1 92.3557098236084 1007.00136053467)" font-family="Gulim" font-size="12">i</text>
<text transform="matrix(1 0 0 1 95.5375822067261 1007.00136053467)" font-family="Gulim" font-size="12">t</text>
<text transform="matrix(1 0 0 1 99.8045104064941 1007.00136053467)" font-family="Gulim" font-size="12"> </text>
<text transform="matrix(1 0 0 1 103.660876396179 1007.00136053467)" font-family="Gulim" font-size="12">1</text>
<text transform="matrix(1 0 0 1 66.7497065124512 383.774027618408)" font-family="Gulim" font-size="20">2</text>
<text transform="matrix(1 0 0 1 79.3745504074097 383.774027618408)" font-family="Gulim" font-size="20">.</text>
<text transform="matrix(1 0 0 1 66.7497065124512 576.027954071045)" font-family="Gulim" font-size="20">3</text>
<text transform="matrix(1 0 0 1 79.3745504074097 576.027954071045)" font-family="Gulim" font-size="20">.</text>
<text transform="matrix(1 0 0 1 66.7497065124512 772.812770629883)" font-family="Gulim" font-size="20">4</text>
<text transform="matrix(1 0 0 1 79.3745504074097 772.812770629883)" font-family="Gulim" font-size="20">.</text>
<text transform="matrix(1 0 0 1 602.12474041748 236.703585998535)" font-family="Gulim" font-size="36">A</text>
<text transform="matrix(1 0 0 1 627.598391571045 236.703585998535)" font-family="Gulim" font-size="36">a</text>
<text transform="matrix(1 0 0 1 603.644379943848 316.683585998535)" font-family="Gulim" font-size="36">B</text>
<text transform="matrix(1 0 0 1 626.118781097412 316.683585998535)" font-family="Gulim" font-size="36">b</text>
<text transform="matrix(1 0 0 1 602.12474041748 430.670788452148)" font-family="Gulim" font-size="36">A</text>
<text transform="matrix(1 0 0 1 627.598391571045 430.670788452148)" font-family="Gulim" font-size="36">a</text>
<text transform="matrix(1 0 0 1 603.644379943848 510.650788452148)" font-family="Gulim" font-size="36">B</text>
<text transform="matrix(1 0 0 1 626.118781097412 510.650788452148)" font-family="Gulim" font-size="36">b</text>
<text transform="matrix(1 0 0 1 602.12474041748 624.638031585693)" font-family="Gulim" font-size="36">A</text>
<text transform="matrix(1 0 0 1 627.598391571045 624.638031585693)" font-family="Gulim" font-size="36">a</text>
<text transform="matrix(1 0 0 1 603.644379943848 704.618072265625)" font-family="Gulim" font-size="36">B</text>
<text transform="matrix(1 0 0 1 626.118781097412 704.618072265625)" font-family="Gulim" font-size="36">b</text>
<text transform="matrix(1 0 0 1 602.12474041748 818.605111999512)" font-family="Gulim" font-size="36">A</text>
<text transform="matrix(1 0 0 1 627.598391571045 818.605111999512)" font-family="Gulim" font-size="36">a</text>
<text transform="matrix(1 0 0 1 603.644379943848 898.585111999512)" font-family="Gulim" font-size="36">B</text>
<text transform="matrix(1 0 0 1 626.118781097412 898.585111999512)" font-family="Gulim" font-size="36">b</text>
<text transform="matrix(1 0 0 1 61.0518006973267 154.818219360352)" font-family="Gulim" font-size="10">0</text>
<text transform="matrix(1 0 0 1 67.8767643585205 154.818219360352)" font-family="Gulim" font-size="10">6</text>
<text transform="matrix(1 0 0 1 23.3996153488159 1088.67576104736)" font-family="Gulim" font-size="7">L</text>
<text transform="matrix(1 0 0 1 27.8145117149353 1088.67576104736)" font-family="Gulim" font-size="7">e</text>
<text transform="matrix(1 0 0 1 32.2054120063782 1088.67576104736)" font-family="Gulim" font-size="7">v</text>
<text transform="matrix(1 0 0 1 36.5403265419006 1088.67576104736)" font-family="Gulim" font-size="7">e</text>
<text transform="matrix(1 0 0 1 40.9312268333435 1088.67576104736)" font-family="Gulim" font-size="7">l</text>
<text transform="matrix(1 0 0 1 42.266891368866 1088.67576104736)" font-family="Gulim" font-size="7">1</text>
<text transform="matrix(1 0 0 1 47.7055287246704 1088.67576104736)" font-family="Gulim" font-size="7">_</text>
<text transform="matrix(1 0 0 1 51.7045287246704 1088.67576104736)" font-family="Gulim" font-size="7">T</text>
<text transform="matrix(1 0 0 1 56.9912112808228 1088.67576104736)" font-family="Gulim" font-size="7">O</text>
<text transform="matrix(1 0 0 1 63.1976569213867 1088.67576104736)" font-family="Gulim" font-size="7">C</text>
<text transform="matrix(1 0 0 1 68.6762877349854 1088.67576104736)" font-family="Gulim" font-size="7">_</text>
<text transform="matrix(1 0 0 1 72.6752877349853 1088.67576104736)" font-family="Gulim" font-size="7">A</text>
<text transform="matrix(1 0 0 1 78.4818394775391 1088.67576104736)" font-family="Gulim" font-size="7">l</text>
<text transform="matrix(1 0 0 1 79.8175040130615 1088.67576104736)" font-family="Gulim" font-size="7">p</text>
<text transform="matrix(1 0 0 1 84.2483926773071 1088.67576104736)" font-family="Gulim" font-size="7">h</text>
<text transform="matrix(1 0 0 1 88.4233537216187 1088.67576104736)" font-family="Gulim" font-size="7">a</text>
<text transform="matrix(1 0 0 1 92.94222290802 1088.67576104736)" font-family="Gulim" font-size="7">_</text>
<text transform="matrix(1 0 0 1 96.94122290802 1088.67576104736)" font-family="Gulim" font-size="7">U</text>
<text transform="matrix(1 0 0 1 102.819757789612 1088.67576104736)" font-family="Gulim" font-size="7">n</text>
<text transform="matrix(1 0 0 1 107.290644996643 1088.67576104736)" font-family="Gulim" font-size="7">i</text>
<text transform="matrix(1 0 0 1 108.562330169678 1088.67576104736)" font-family="Gulim" font-size="7">t</text>
<text transform="matrix(1 0 0 1 111.297648773193 1088.67576104736)" font-family="Gulim" font-size="7">1</text>
<text transform="matrix(1 0 0 1 116.736291213989 1088.67576104736)" font-family="Gulim" font-size="7">_</text>
<text transform="matrix(1 0 0 1 120.735291213989 1088.67576104736)" font-family="Gulim" font-size="7">7</text>
<text transform="matrix(1 0 0 1 126.173933654785 1088.67576104736)" font-family="Gulim" font-size="7">교</text>
<text transform="matrix(1 0 0 1 134.171943824768 1088.67576104736)" font-family="Gulim" font-size="7">.</text>
<text transform="matrix(1 0 0 1 136.931263587952 1088.67576104736)" font-family="Gulim" font-size="7">i</text>
<text transform="matrix(1 0 0 1 138.202938591003 1088.67576104736)" font-family="Gulim" font-size="7">n</text>
<text transform="matrix(1 0 0 1 142.673825798035 1088.67576104736)" font-family="Gulim" font-size="7">d</text>
<text transform="matrix(1 0 0 1 146.992753120422 1088.67576104736)" font-family="Gulim" font-size="7">d</text>
<text transform="matrix(1 0 0 1 151.31168044281 1088.67576104736)" font-family="Gulim" font-size="7"> </text>
<text transform="matrix(1 0 0 1 153.871038002014 1088.67576104736)" font-family="Gulim" font-size="7"> </text>
<text transform="matrix(1 0 0 1 156.430395561218 1088.67576104736)" font-family="Gulim" font-size="7"> </text>
<text transform="matrix(1 0 0 1 158.989753120422 1088.67576104736)" font-family="Gulim" font-size="7">1</text>
<text transform="matrix(1 0 0 1 164.428395561218 1088.67576104736)" font-family="Gulim" font-size="7">4</text>
<text transform="matrix(1 0 0 1 723.592005981445 1088.67576104736)" font-family="Gulim" font-size="7">1</text>
<text transform="matrix(1 0 0 1 729.030668762207 1088.67576104736)" font-family="Gulim" font-size="7">1</text>
<text transform="matrix(1 0 0 1 734.469331542969 1088.67576104736)" font-family="Gulim" font-size="7">.</text>
<text transform="matrix(1 0 0 1 737.228651306152 1088.67576104736)" font-family="Gulim" font-size="7"> </text>
<text transform="matrix(1 0 0 1 739.787988525391 1088.67576104736)" font-family="Gulim" font-size="7">9</text>
<text transform="matrix(1 0 0 1 745.226651306152 1088.67576104736)" font-family="Gulim" font-size="7">.</text>
<text transform="matrix(1 0 0 1 747.985971069336 1088.67576104736)" font-family="Gulim" font-size="7"> </text>
<text transform="matrix(1 0 0 1 750.545308288574 1088.67576104736)" font-family="Gulim" font-size="7">2</text>
<text transform="matrix(1 0 0 1 755.983971069336 1088.67576104736)" font-family="Gulim" font-size="7">9</text>
<text transform="matrix(1 0 0 1 761.422633850098 1088.67576104736)" font-family="Gulim" font-size="7">.</text>
<text transform="matrix(1 0 0 1 764.181953613281 1088.67576104736)" font-family="Gulim" font-size="7"> </text>
<text transform="matrix(1 0 0 1 766.74129083252 1088.67576104736)" font-family="Gulim" font-size="7"> </text>
<text transform="matrix(1 0 0 1 769.300628051758 1088.67576104736)" font-family="Gulim" font-size="7"> </text>
<text transform="matrix(1 0 0 1 771.859965270996 1088.67576104736)" font-family="Gulim" font-size="7">오</text>
<text transform="matrix(1 0 0 1 779.857965270996 1088.67576104736)" font-family="Gulim" font-size="7">후</text>
<text transform="matrix(1 0 0 1 787.855965270996 1088.67576104736)" font-family="Gulim" font-size="7"> </text>
<text transform="matrix(1 0 0 1 790.415302490234 1088.67576104736)" font-family="Gulim" font-size="7">4</text>
<text transform="matrix(1 0 0 1 795.853965270996 1088.67576104736)" font-family="Gulim" font-size="7">:</text>
<text transform="matrix(1 0 0 1 799.852965270996 1088.67576104736)" font-family="Gulim" font-size="7">0</text>
<text transform="matrix(1 0 0 1 805.291628051758 1088.67576104736)" font-family="Gulim" font-size="7">1</text>
</svg>