<?xml version="1.0" encoding="utf-8"?>
<svg xmlns="http://www.w3.org/2000/svg" xmlns:xlink="http://www.w3.org/1999/xlink" width="812" height="1056" viewBox="0 0 812 1056" version="1.2" >
<text transform="matrix(1 0 0 1 757.607100341797 1007.92682897949)" font-family="Gulim" font-size="16">1</text>
<text transform="matrix(1 0 0 1 764.018827087402 1007.92682897949)" font-family="Gulim" font-size="16">5</text>
<text transform="matrix(1 0 0 1 275.200266387939 198.623508789062)" font-family="Gulim" font-size="20">2</text>
<text transform="matrix(1 0 0 1 287.825079772949 198.623508789062)" font-family="Gulim" font-size="20">.</text>
<text transform="matrix(1 0 0 1 445.855589935303 198.623508789062)" font-family="Gulim" font-size="20">3</text>
<text transform="matrix(1 0 0 1 458.480444000244 198.623508789062)" font-family="Gulim" font-size="20">.</text>
<text transform="matrix(1 0 0 1 616.532229766846 198.623508789062)" font-family="Gulim" font-size="20">4</text>
<text transform="matrix(1 0 0 1 629.157083831787 198.623508789062)" font-family="Gulim" font-size="20">.</text>
<text transform="matrix(1 0 0 1 139.007506278992 148.751621154785)" font-family="Gulim" font-size="26">L</text>
<text transform="matrix(1 0 0 1 150.53261907196 148.751621154785)" font-family="Gulim" font-size="26">i</text>
<text transform="matrix(1 0 0 1 156.72042313385 148.751621154785)" font-family="Gulim" font-size="26">s</text>
<text transform="matrix(1 0 0 1 170.210396965027 148.751621154785)" font-family="Gulim" font-size="26">t</text>
<text transform="matrix(1 0 0 1 177.893829223633 148.751621154785)" font-family="Gulim" font-size="26">e</text>
<text transform="matrix(1 0 0 1 193.553894348145 148.751621154785)" font-family="Gulim" font-size="26">n</text>
<text transform="matrix(1 0 0 1 208.570240234375 148.74877355957)" font-family="Gulim" font-size="30">,</text>
<text transform="matrix(1 0 0 1 214.808670471191 148.751621154785)" font-family="Gulim" font-size="26"> </text>
<text transform="matrix(1 0 0 1 224.838185577393 148.751621154785)" font-family="Gulim" font-size="26">m</text>
<text transform="matrix(1 0 0 1 249.501370452881 148.751621154785)" font-family="Gulim" font-size="26">a</text>
<text transform="matrix(1 0 0 1 266.09988092041 148.751621154785)" font-family="Gulim" font-size="26">t</text>
<text transform="matrix(1 0 0 1 273.665982086182 148.751621154785)" font-family="Gulim" font-size="26">c</text>
<text transform="matrix(1 0 0 1 286.657403015137 148.751621154785)" font-family="Gulim" font-size="26">h</text>
<text transform="matrix(1 0 0 1 301.653897094727 148.74877355957)" font-family="Gulim" font-size="30">,</text>
<text transform="matrix(1 0 0 1 307.892327331543 148.751621154785)" font-family="Gulim" font-size="26"> </text>
<text transform="matrix(1 0 0 1 317.921801757812 148.751621154785)" font-family="Gulim" font-size="26">a</text>
<text transform="matrix(1 0 0 1 334.60830291748 148.751621154785)" font-family="Gulim" font-size="26">n</text>
<text transform="matrix(1 0 0 1 350.561629669189 148.751621154785)" font-family="Gulim" font-size="26">d</text>
<text transform="matrix(1 0 0 1 367.160140136719 148.751621154785)" font-family="Gulim" font-size="26"> </text>
<text transform="matrix(1 0 0 1 377.189614562988 148.751621154785)" font-family="Gulim" font-size="26">w</text>
<text transform="matrix(1 0 0 1 399.330765716553 148.751621154785)" font-family="Gulim" font-size="26">r</text>
<text transform="matrix(1 0 0 1 408.979028503418 148.751621154785)" font-family="Gulim" font-size="26">i</text>
<text transform="matrix(1 0 0 1 415.225472686768 148.751621154785)" font-family="Gulim" font-size="26">t</text>
<text transform="matrix(1 0 0 1 422.908894775391 148.751621154785)" font-family="Gulim" font-size="26">e</text>
<text transform="matrix(1 0 0 1 437.923816864014 148.751621154785)" font-family="Gulim" font-size="26">.</text>
<text transform="matrix(1 0 0 1 507.077707336426 544.176259155273)" font-family="Gulim" font-size="48">b</text>
<text transform="matrix(1 0 0 1 697.3568671875 1007.00136053467)" font-family="Gulim" font-size="12">A</text>
<text transform="matrix(1 0 0 1 706.5212421875 1007.00136053467)" font-family="Gulim" font-size="12">a</text>
<text transform="matrix(1 0 0 1 714.864533447266 1007.00136053467)" font-family="Gulim" font-size="12"> </text>
<text transform="matrix(1 0 0 1 718.720909606934 1007.00136053467)" font-family="Gulim" font-size="12"> </text>
<text transform="matrix(1 0 0 1 722.577285766602 1007.00136053467)" font-family="Gulim" font-size="12">B</text>
<text transform="matrix(1 0 0 1 730.920577026367 1007.00136053467)" font-family="Gulim" font-size="12">b</text>
<text transform="matrix(1 0 0 1 104.534264358521 198.623508789062)" font-family="Gulim" font-size="20">1</text>
<text transform="matrix(1 0 0 1 112.672233833313 198.623508789062)" font-family="Gulim" font-size="20">.</text>
<text transform="matrix(1 0 0 1 177.675174591064 920.960782958984)" font-family="Gulim" font-size="55">a</text>
<text transform="matrix(1 0 0 1 203.830621398926 920.960782958984)" font-family="Gulim" font-size="55">l</text>
<text transform="matrix(1 0 0 1 211.999924591064 920.960782958984)" font-family="Gulim" font-size="55">l</text>
<text transform="matrix(1 0 0 1 297.520409240723 920.960782958984)" font-family="Gulim" font-size="55">a</text>
<text transform="matrix(1 0 0 1 325.735318267822 920.960782958984)" font-family="Gulim" font-size="55">p</text>
<text transform="matrix(1 0 0 1 350.243187164307 920.960782958984)" font-family="Gulim" font-size="55">p</text>
<text transform="matrix(1 0 0 1 374.751056060791 920.960782958984)" font-family="Gulim" font-size="55">l</text>
<text transform="matrix(1 0 0 1 381.547330200195 920.960782958984)" font-family="Gulim" font-size="55">e</text>
<text transform="matrix(1 0 0 1 517.274254241943 920.960782958984)" font-family="Gulim" font-size="55">n</text>
<text transform="matrix(1 0 0 1 541.988044952393 920.960782958984)" font-family="Gulim" font-size="55">t</text>
<text transform="matrix(1 0 0 1 672.01103237915 920.960782958984)" font-family="Gulim" font-size="55">e</text>
<text transform="matrix(1 0 0 1 696.724863769531 920.960782958984)" font-family="Gulim" font-size="55">a</text>
<text transform="matrix(1 0 0 1 721.50732220459 920.960782958984)" font-family="Gulim" font-size="55">r</text>
<text transform="matrix(1 0 0 1 345.080375 540.397744384766)" font-family="Gulim" font-size="48">a</text>
<text transform="matrix(1 0 0 1 100.653093780518 154.818219360352)" font-family="Gulim" font-size="10">0</text>
<text transform="matrix(1 0 0 1 107.478057441711 154.818219360352)" font-family="Gulim" font-size="10">7</text>
<text transform="matrix(1 0 0 1 23.3996153488159 1088.67576104736)" font-family="Gulim" font-size="7">L</text>
<text transform="matrix(1 0 0 1 27.8145117149353 1088.67576104736)" font-family="Gulim" font-size="7">e</text>
<text transform="matrix(1 0 0 1 32.2054120063782 1088.67576104736)" font-family="Gulim" font-size="7">v</text>
<text transform="matrix(1 0 0 1 36.5403265419006 1088.67576104736)" font-family="Gulim" font-size="7">e</text>
<text transform="matrix(1 0 0 1 40.9312268333435 1088.67576104736)" font-family="Gulim" font-size="7">l</text>
<text transform="matrix(1 0 0 1 42.266891368866 1088.67576104736)" font-family="Gulim" font-size="7">1</text>
<text transform="matrix(1 0 0 1 47.7055287246704 1088.67576104736)" font-family="Gulim" font-size="7">_</text>
<text transform="matrix(1 0 0 1 51.7045287246704 1088.67576104736)" font-family="Gulim" font-size="7">T</text>
<text transform="matrix(1 0 0 1 56.9912112808228 1088.67576104736)" font-family="Gulim" font-size="7">O</text>
<text transform="matrix(1 0 0 1 63.1976569213867 1088.67576104736)" font-family="Gulim" font-size="7">C</text>
<text transform="matrix(1 0 0 1 68.6762877349854 1088.67576104736)" font-family="Gulim" font-size="7">_</text>
<text transform="matrix(1 0 0 1 72.6752877349853 1088.67576104736)" font-family="Gulim" font-size="7">A</text>
<text transform="matrix(1 0 0 1 78.4818394775391 1088.67576104736)" font-family="Gulim" font-size="7">l</text>
<text transform="matrix(1 0 0 1 79.8175040130615 1088.67576104736)" font-family="Gulim" font-size="7">p</text>
<text transform="matrix(1 0 0 1 84.2483926773071 1088.67576104736)" font-family="Gulim" font-size="7">h</text>
<text transform="matrix(1 0 0 1 88.4233537216187 1088.67576104736)" font-family="Gulim" font-size="7">a</text>
<text transform="matrix(1 0 0 1 92.94222290802 1088.67576104736)" font-family="Gulim" font-size="7">_</text>
<text transform="matrix(1 0 0 1 96.94122290802 1088.67576104736)" font-family="Gulim" font-size="7">U</text>
<text transform="matrix(1 0 0 1 102.819757789612 1088.67576104736)" font-family="Gulim" font-size="7">n</text>
<text transform="matrix(1 0 0 1 107.290644996643 1088.67576104736)" font-family="Gulim" font-size="7">i</text>
<text transform="matrix(1 0 0 1 108.562330169678 1088.67576104736)" font-family="Gulim" font-size="7">t</text>
<text transform="matrix(1 0 0 1 111.297648773193 1088.67576104736)" font-family="Gulim" font-size="7">1</text>
<text transform="matrix(1 0 0 1 116.736291213989 1088.67576104736)" font-family="Gulim" font-size="7">_</text>
<text transform="matrix(1 0 0 1 120.735291213989 1088.67576104736)" font-family="Gulim" font-size="7">7</text>
<text transform="matrix(1 0 0 1 126.173933654785 1088.67576104736)" font-family="Gulim" font-size="7">교</text>
<text transform="matrix(1 0 0 1 134.171943824768 1088.67576104736)" font-family="Gulim" font-size="7">.</text>
<text transform="matrix(1 0 0 1 136.931263587952 1088.67576104736)" font-family="Gulim" font-size="7">i</text>
<text transform="matrix(1 0 0 1 138.202938591003 1088.67576104736)" font-family="Gulim" font-size="7">n</text>
<text transform="matrix(1 0 0 1 142.673825798035 1088.67576104736)" font-family="Gulim" font-size="7">d</text>
<text transform="matrix(1 0 0 1 146.992753120422 1088.67576104736)" font-family="Gulim" font-size="7">d</text>
<text transform="matrix(1 0 0 1 151.31168044281 1088.67576104736)" font-family="Gulim" font-size="7"> </text>
<text transform="matrix(1 0 0 1 153.871038002014 1088.67576104736)" font-family="Gulim" font-size="7"> </text>
<text transform="matrix(1 0 0 1 156.430395561218 1088.67576104736)" font-family="Gulim" font-size="7"> </text>
<text transform="matrix(1 0 0 1 158.989753120422 1088.67576104736)" font-family="Gulim" font-size="7">1</text>
<text transform="matrix(1 0 0 1 164.428395561218 1088.67576104736)" font-family="Gulim" font-size="7">5</text>
<text transform="matrix(1 0 0 1 723.592005981445 1088.67576104736)" font-family="Gulim" font-size="7">1</text>
<text transform="matrix(1 0 0 1 729.030668762207 1088.67576104736)" font-family="Gulim" font-size="7">1</text>
<text transform="matrix(1 0 0 1 734.469331542969 1088.67576104736)" font-family="Gulim" font-size="7">.</text>
<text transform="matrix(1 0 0 1 737.228651306152 1088.67576104736)" font-family="Gulim" font-size="7"> </text>
<text transform="matrix(1 0 0 1 739.787988525391 1088.67576104736)" font-family="Gulim" font-size="7">9</text>
<text transform="matrix(1 0 0 1 745.226651306152 1088.67576104736)" font-family="Gulim" font-size="7">.</text>
<text transform="matrix(1 0 0 1 747.985971069336 1088.67576104736)" font-family="Gulim" font-size="7"> </text>
<text transform="matrix(1 0 0 1 750.545308288574 1088.67576104736)" font-family="Gulim" font-size="7">2</text>
<text transform="matrix(1 0 0 1 755.983971069336 1088.67576104736)" font-family="Gulim" font-size="7">9</text>
<text transform="matrix(1 0 0 1 761.422633850098 1088.67576104736)" font-family="Gulim" font-size="7">.</text>
<text transform="matrix(1 0 0 1 764.181953613281 1088.67576104736)" font-family="Gulim" font-size="7"> </text>
<text transform="matrix(1 0 0 1 766.74129083252 1088.67576104736)" font-family="Gulim" font-size="7"> </text>
<text transform="matrix(1 0 0 1 769.300628051758 1088.67576104736)" font-family="Gulim" font-size="7"> </text>
<text transform="matrix(1 0 0 1 771.859965270996 1088.67576104736)" font-family="Gulim" font-size="7">오</text>
<text transform="matrix(1 0 0 1 779.857965270996 1088.67576104736)" font-family="Gulim" font-size="7">후</text>
<text transform="matrix(1 0 0 1 787.855965270996 1088.67576104736)" font-family="Gulim" font-size="7"> </text>
<text transform="matrix(1 0 0 1 790.415302490234 1088.67576104736)" font-family="Gulim" font-size="7">4</text>
<text transform="matrix(1 0 0 1 795.853965270996 1088.67576104736)" font-family="Gulim" font-size="7">:</text>
<text transform="matrix(1 0 0 1 799.852965270996 1088.67576104736)" font-family="Gulim" font-size="7">0</text>
<text transform="matrix(1 0 0 1 805.291628051758 1088.67576104736)" font-family="Gulim" font-size="7">1</text>
</svg>