<?xml version="1.0" encoding="utf-8"?>
<svg xmlns="http://www.w3.org/2000/svg" xmlns:xlink="http://www.w3.org/1999/xlink" width="812" height="1056" viewBox="0 0 812 1056" version="1.2" >
<text transform="matrix(1 0 0 1 74.3055563354492 1007.00201141357)" font-family="Gulim" font-size="12">U</text>
<text transform="matrix(1 0 0 1 84.2764008102417 1007.00201141357)" font-family="Gulim" font-size="12">n</text>
<text transform="matrix(1 0 0 1 92.3557098236084 1007.00201141357)" font-family="Gulim" font-size="12">i</text>
<text transform="matrix(1 0 0 1 95.5375822067261 1007.00201141357)" font-family="Gulim" font-size="12">t</text>
<text transform="matrix(1 0 0 1 99.8045104064941 1007.00201141357)" font-family="Gulim" font-size="12"> </text>
<text transform="matrix(1 0 0 1 103.660876396179 1007.00201141357)" font-family="Gulim" font-size="12">1</text>
<text transform="matrix(1 0 0 1 98.0254854660034 166.923427978516)" font-family="Gulim" font-size="26">L</text>
<text transform="matrix(1 0 0 1 109.550598258972 166.923427978516)" font-family="Gulim" font-size="26">i</text>
<text transform="matrix(1 0 0 1 115.738381980896 166.923427978516)" font-family="Gulim" font-size="26">s</text>
<text transform="matrix(1 0 0 1 129.228335472107 166.923427978516)" font-family="Gulim" font-size="26">t</text>
<text transform="matrix(1 0 0 1 136.91175756073 166.923427978516)" font-family="Gulim" font-size="26">e</text>
<text transform="matrix(1 0 0 1 152.571843025208 166.923427978516)" font-family="Gulim" font-size="26">n</text>
<text transform="matrix(1 0 0 1 168.642490699768 166.923427978516)" font-family="Gulim" font-size="26"> </text>
<text transform="matrix(1 0 0 1 178.701325866699 166.923427978516)" font-family="Gulim" font-size="26">a</text>
<text transform="matrix(1 0 0 1 195.387786346436 166.923427978516)" font-family="Gulim" font-size="26">n</text>
<text transform="matrix(1 0 0 1 211.341153778076 166.923427978516)" font-family="Gulim" font-size="26">d</text>
<text transform="matrix(1 0 0 1 227.939664245605 166.923427978516)" font-family="Gulim" font-size="26"> </text>
<text transform="matrix(1 0 0 1 237.969138671875 166.923427978516)" font-family="Gulim" font-size="26">c</text>
<text transform="matrix(1 0 0 1 250.96055960083 166.923427978516)" font-family="Gulim" font-size="26">h</text>
<text transform="matrix(1 0 0 1 266.913927032471 166.923427978516)" font-family="Gulim" font-size="26">a</text>
<text transform="matrix(1 0 0 1 283.600387512207 166.923427978516)" font-family="Gulim" font-size="26">n</text>
<text transform="matrix(1 0 0 1 299.348443328857 166.923427978516)" font-family="Gulim" font-size="26">t</text>
<text transform="matrix(1 0 0 1 307.266466583252 166.923427978516)" font-family="Gulim" font-size="26"> </text>
<text transform="matrix(1 0 0 1 317.295941009521 166.923427978516)" font-family="Gulim" font-size="26">a</text>
<text transform="matrix(1 0 0 1 333.982442169189 166.923427978516)" font-family="Gulim" font-size="26">l</text>
<text transform="matrix(1 0 0 1 340.228886352539 166.923427978516)" font-family="Gulim" font-size="26">o</text>
<text transform="matrix(1 0 0 1 356.2995340271 166.923427978516)" font-family="Gulim" font-size="26">n</text>
<text transform="matrix(1 0 0 1 372.252860778809 166.923427978516)" font-family="Gulim" font-size="26">g</text>
<text transform="matrix(1 0 0 1 388.382168914795 166.923427978516)" font-family="Gulim" font-size="26">.</text>
<text transform="matrix(1 0 0 1 60.0297886047363 172.374376098633)" font-family="Gulim" font-size="10">0</text>
<text transform="matrix(1 0 0 1 66.8547522659302 172.374376098633)" font-family="Gulim" font-size="10">8</text>
<text transform="matrix(1 0 0 1 39.6763475570679 1007.9290256958)" font-family="Gulim" font-size="16">1</text>
<text transform="matrix(1 0 0 1 46.0880793876648 1007.9290256958)" font-family="Gulim" font-size="16">6</text>
<text transform="matrix(1 0 0 1 115.363282501221 268.508702392578)" font-family="Gulim" font-size="22">S</text>
<text transform="matrix(1 0 0 1 131.699193840027 268.508702392578)" font-family="Gulim" font-size="22">a</text>
<text transform="matrix(1 0 0 1 144.793250236511 268.508702392578)" font-family="Gulim" font-size="22">y</text>
<text transform="matrix(1 0 0 1 157.456750236511 268.508702392578)" font-family="Gulim" font-size="22"> </text>
<text transform="matrix(1 0 0 1 164.497653144836 268.508702392578)" font-family="Gulim" font-size="22">t</text>
<text transform="matrix(1 0 0 1 172.171749359131 268.508702392578)" font-family="Gulim" font-size="22">h</text>
<text transform="matrix(1 0 0 1 186.101574951172 268.508702392578)" font-family="Gulim" font-size="22">e</text>
<text transform="matrix(1 0 0 1 199.702177856445 268.508702392578)" font-family="Gulim" font-size="22"> </text>
<text transform="matrix(1 0 0 1 206.743101104736 268.508702392578)" font-family="Gulim" font-size="22">n</text>
<text transform="matrix(1 0 0 1 220.672926696777 268.508702392578)" font-family="Gulim" font-size="22">a</text>
<text transform="matrix(1 0 0 1 234.222883087158 268.508702392578)" font-family="Gulim" font-size="22">m</text>
<text transform="matrix(1 0 0 1 255.700178436279 268.508702392578)" font-family="Gulim" font-size="22">e</text>
<text transform="matrix(1 0 0 1 269.098195281982 268.508702392578)" font-family="Gulim" font-size="22">!</text>
<text transform="matrix(1 0 0 1 275.657874938965 268.508702392578)" font-family="Gulim" font-size="22"> </text>
<text transform="matrix(1 0 0 1 282.698798187256 268.508702392578)" font-family="Gulim" font-size="22">A</text>
<text transform="matrix(1 0 0 1 299.237305755615 268.508702392578)" font-family="Gulim" font-size="22">a</text>
<text transform="matrix(1 0 0 1 119.998120002747 300.496715759277)" font-family="Gulim" font-size="22">S</text>
<text transform="matrix(1 0 0 1 136.33402117157 300.496715759277)" font-family="Gulim" font-size="22">a</text>
<text transform="matrix(1 0 0 1 149.428077568054 300.496715759277)" font-family="Gulim" font-size="22">y</text>
<text transform="matrix(1 0 0 1 162.091577568054 300.496715759277)" font-family="Gulim" font-size="22"> </text>
<text transform="matrix(1 0 0 1 169.132480476379 300.496715759277)" font-family="Gulim" font-size="22">t</text>
<text transform="matrix(1 0 0 1 176.806576690674 300.496715759277)" font-family="Gulim" font-size="22">h</text>
<text transform="matrix(1 0 0 1 190.736402282715 300.496715759277)" font-family="Gulim" font-size="22">e</text>
<text transform="matrix(1 0 0 1 204.337005187988 300.496715759277)" font-family="Gulim" font-size="22"> </text>
<text transform="matrix(1 0 0 1 211.377928436279 300.496715759277)" font-family="Gulim" font-size="22">s</text>
<text transform="matrix(1 0 0 1 223.965438323975 300.496715759277)" font-family="Gulim" font-size="22">o</text>
<text transform="matrix(1 0 0 1 238.351163909912 300.496715759277)" font-family="Gulim" font-size="22">u</text>
<text transform="matrix(1 0 0 1 252.281030181885 300.496715759277)" font-family="Gulim" font-size="22">n</text>
<text transform="matrix(1 0 0 1 266.236199371338 300.496715759277)" font-family="Gulim" font-size="22">d</text>
<text transform="matrix(1 0 0 1 280.976491241455 300.496715759277)" font-family="Gulim" font-size="22">!</text>
<text transform="matrix(1 0 0 1 287.536211578369 300.496715759277)" font-family="Gulim" font-size="22"> </text>
<text transform="matrix(1 0 0 1 293.027514190674 300.500702392578)" font-family="Gulim" font-size="22">a</text>
<text transform="matrix(1 0 0 1 114.324876396179 332.492702392578)" font-family="Gulim" font-size="22">S</text>
<text transform="matrix(1 0 0 1 130.660787734985 332.492702392578)" font-family="Gulim" font-size="22">a</text>
<text transform="matrix(1 0 0 1 143.754833961487 332.492702392578)" font-family="Gulim" font-size="22">y</text>
<text transform="matrix(1 0 0 1 156.418333961487 332.492702392578)" font-family="Gulim" font-size="22"> </text>
<text transform="matrix(1 0 0 1 163.459236869812 332.492702392578)" font-family="Gulim" font-size="22">t</text>
<text transform="matrix(1 0 0 1 171.133312744141 332.492702392578)" font-family="Gulim" font-size="22">h</text>
<text transform="matrix(1 0 0 1 185.063179016113 332.492702392578)" font-family="Gulim" font-size="22">e</text>
<text transform="matrix(1 0 0 1 198.663781921387 332.492702392578)" font-family="Gulim" font-size="22"> </text>
<text transform="matrix(1 0 0 1 205.704664489746 332.492702392578)" font-family="Gulim" font-size="22">w</text>
<text transform="matrix(1 0 0 1 224.370691802979 332.492702392578)" font-family="Gulim" font-size="22">o</text>
<text transform="matrix(1 0 0 1 238.832407501221 332.492702392578)" font-family="Gulim" font-size="22">r</text>
<text transform="matrix(1 0 0 1 247.114312744141 332.492702392578)" font-family="Gulim" font-size="22">d</text>
<text transform="matrix(1 0 0 1 261.854645294189 332.492702392578)" font-family="Gulim" font-size="22">!</text>
<text transform="matrix(1 0 0 1 268.414324951172 332.492702392578)" font-family="Gulim" font-size="22"> </text>
<text transform="matrix(1 0 0 1 275.455248199463 332.492702392578)" font-family="Gulim" font-size="22">A</text>
<text transform="matrix(1 0 0 1 292.044402282715 332.492702392578)" font-family="Gulim" font-size="22">n</text>
<text transform="matrix(1 0 0 1 305.898278442383 332.492702392578)" font-family="Gulim" font-size="22">t</text>
<text transform="matrix(1 0 0 1 100.445676979065 364.480715759277)" font-family="Gulim" font-size="22">M</text>
<text transform="matrix(1 0 0 1 122.3788621521 364.480715759277)" font-family="Gulim" font-size="22">o</text>
<text transform="matrix(1 0 0 1 136.840567680359 364.480715759277)" font-family="Gulim" font-size="22">r</text>
<text transform="matrix(1 0 0 1 145.04650315094 364.480715759277)" font-family="Gulim" font-size="22">e</text>
<text transform="matrix(1 0 0 1 158.647106056213 364.480715759277)" font-family="Gulim" font-size="22"> </text>
<text transform="matrix(1 0 0 1 165.688008964539 364.480715759277)" font-family="Gulim" font-size="22">w</text>
<text transform="matrix(1 0 0 1 184.354005767822 364.480715759277)" font-family="Gulim" font-size="22">o</text>
<text transform="matrix(1 0 0 1 198.815721466064 364.480715759277)" font-family="Gulim" font-size="22">r</text>
<text transform="matrix(1 0 0 1 207.097626708984 364.480715759277)" font-family="Gulim" font-size="22">d</text>
<text transform="matrix(1 0 0 1 222.015242401123 364.480715759277)" font-family="Gulim" font-size="22">s</text>
<text transform="matrix(1 0 0 1 233.640305786133 364.480715759277)" font-family="Gulim" font-size="22">,</text>
<text transform="matrix(1 0 0 1 240.681229034424 364.480715759277)" font-family="Gulim" font-size="22"> </text>
<text transform="matrix(1 0 0 1 247.722111602783 364.480715759277)" font-family="Gulim" font-size="22">p</text>
<text transform="matrix(1 0 0 1 262.61438369751 364.480715759277)" font-family="Gulim" font-size="22">l</text>
<text transform="matrix(1 0 0 1 268.059717987061 364.480715759277)" font-family="Gulim" font-size="22">e</text>
<text transform="matrix(1 0 0 1 281.660320892334 364.480715759277)" font-family="Gulim" font-size="22">a</text>
<text transform="matrix(1 0 0 1 295.260923797607 364.480715759277)" font-family="Gulim" font-size="22">s</text>
<text transform="matrix(1 0 0 1 307.823130767822 364.480715759277)" font-family="Gulim" font-size="22">e</text>
<text transform="matrix(1 0 0 1 321.221106933594 364.480715759277)" font-family="Gulim" font-size="22">!</text>
<text transform="matrix(1 0 0 1 327.780786590576 364.480715759277)" font-family="Gulim" font-size="22"> </text>
<text transform="matrix(1 0 0 1 89.4428334884644 396.476661712646)" font-family="Gulim" font-size="22">a</text>
<text transform="matrix(1 0 0 1 103.043436393738 396.476661712646)" font-family="Gulim" font-size="22"> </text>
<text transform="matrix(1 0 0 1 110.084339302063 396.476661712646)" font-family="Gulim" font-size="22">a</text>
<text transform="matrix(1 0 0 1 125.278537849426 396.476661712646)" font-family="Gulim" font-size="22"> </text>
<text transform="matrix(1 0 0 1 132.319440757751 396.476661712646)" font-family="Gulim" font-size="22">a</text>
<text transform="matrix(1 0 0 1 145.84405355072 396.476661712646)" font-family="Gulim" font-size="22">p</text>
<text transform="matrix(1 0 0 1 160.736325645447 396.476661712646)" font-family="Gulim" font-size="22">p</text>
<text transform="matrix(1 0 0 1 175.628607910156 396.476661712646)" font-family="Gulim" font-size="22">l</text>
<text transform="matrix(1 0 0 1 181.073901519775 396.476661712646)" font-family="Gulim" font-size="22">e</text>
<text transform="matrix(1 0 0 1 194.674504425049 396.476661712646)" font-family="Gulim" font-size="22"> </text>
<text transform="matrix(1 0 0 1 200.15234197998 396.476661712646)" font-family="Gulim" font-size="22">a</text>
<text transform="matrix(1 0 0 1 213.752944885254 396.476661712646)" font-family="Gulim" font-size="22"> </text>
<text transform="matrix(1 0 0 1 220.793868133545 396.476661712646)" font-family="Gulim" font-size="22">a</text>
<text transform="matrix(1 0 0 1 235.988188720703 396.476661712646)" font-family="Gulim" font-size="22"> </text>
<text transform="matrix(1 0 0 1 243.029111968994 396.476661712646)" font-family="Gulim" font-size="22">a</text>
<text transform="matrix(1 0 0 1 256.579068359375 396.476661712646)" font-family="Gulim" font-size="22">l</text>
<text transform="matrix(1 0 0 1 261.897725341797 396.476661712646)" font-family="Gulim" font-size="22">l</text>
<text transform="matrix(1 0 0 1 267.21642300415 396.476661712646)" font-family="Gulim" font-size="22">i</text>
<text transform="matrix(1 0 0 1 272.66171661377 396.476661712646)" font-family="Gulim" font-size="22">g</text>
<text transform="matrix(1 0 0 1 287.072785797119 396.476661712646)" font-family="Gulim" font-size="22">a</text>
<text transform="matrix(1 0 0 1 300.496105560303 396.476661712646)" font-family="Gulim" font-size="22">t</text>
<text transform="matrix(1 0 0 1 307.891554412842 396.476661712646)" font-family="Gulim" font-size="22">o</text>
<text transform="matrix(1 0 0 1 322.353270111084 396.476661712646)" font-family="Gulim" font-size="22">r</text>
<text transform="matrix(1 0 0 1 330.609872436523 396.476661712646)" font-family="Gulim" font-size="22">!</text>
<text transform="matrix(1 0 0 1 114.317289588928 460.452647766113)" font-family="Gulim" font-size="22">S</text>
<text transform="matrix(1 0 0 1 130.653200927734 460.452647766113)" font-family="Gulim" font-size="22">a</text>
<text transform="matrix(1 0 0 1 143.747247154236 460.452647766113)" font-family="Gulim" font-size="22">y</text>
<text transform="matrix(1 0 0 1 156.410747154236 460.452647766113)" font-family="Gulim" font-size="22"> </text>
<text transform="matrix(1 0 0 1 163.451650062561 460.452647766113)" font-family="Gulim" font-size="22">t</text>
<text transform="matrix(1 0 0 1 171.125746276855 460.452647766113)" font-family="Gulim" font-size="22">h</text>
<text transform="matrix(1 0 0 1 185.055571868896 460.452647766113)" font-family="Gulim" font-size="22">e</text>
<text transform="matrix(1 0 0 1 198.65617477417 460.452647766113)" font-family="Gulim" font-size="22"> </text>
<text transform="matrix(1 0 0 1 205.697098022461 460.452647766113)" font-family="Gulim" font-size="22">n</text>
<text transform="matrix(1 0 0 1 219.626923614502 460.452647766113)" font-family="Gulim" font-size="22">a</text>
<text transform="matrix(1 0 0 1 233.202223602295 460.452647766113)" font-family="Gulim" font-size="22">m</text>
<text transform="matrix(1 0 0 1 254.679518951416 460.452647766113)" font-family="Gulim" font-size="22">e</text>
<text transform="matrix(1 0 0 1 268.077495117187 460.452647766113)" font-family="Gulim" font-size="22">!</text>
<text transform="matrix(1 0 0 1 274.637215454102 460.452647766113)" font-family="Gulim" font-size="22"> </text>
<text transform="matrix(1 0 0 1 281.678098022461 460.452647766113)" font-family="Gulim" font-size="22">B</text>
<text transform="matrix(1 0 0 1 298.900475921631 460.452647766113)" font-family="Gulim" font-size="22">b</text>
<text transform="matrix(1 0 0 1 119.28138028717 492.440661132812)" font-family="Gulim" font-size="22">S</text>
<text transform="matrix(1 0 0 1 135.617281455994 492.440661132812)" font-family="Gulim" font-size="22">a</text>
<text transform="matrix(1 0 0 1 148.711337852478 492.440661132812)" font-family="Gulim" font-size="22">y</text>
<text transform="matrix(1 0 0 1 161.374837852478 492.440661132812)" font-family="Gulim" font-size="22"> </text>
<text transform="matrix(1 0 0 1 168.415740760803 492.440661132812)" font-family="Gulim" font-size="22">t</text>
<text transform="matrix(1 0 0 1 176.089836975098 492.440661132812)" font-family="Gulim" font-size="22">h</text>
<text transform="matrix(1 0 0 1 190.019662567139 492.440661132812)" font-family="Gulim" font-size="22">e</text>
<text transform="matrix(1 0 0 1 203.620265472412 492.440661132812)" font-family="Gulim" font-size="22"> </text>
<text transform="matrix(1 0 0 1 210.661188720703 492.440661132812)" font-family="Gulim" font-size="22">s</text>
<text transform="matrix(1 0 0 1 223.248698608398 492.440661132812)" font-family="Gulim" font-size="22">o</text>
<text transform="matrix(1 0 0 1 237.634424194336 492.440661132812)" font-family="Gulim" font-size="22">u</text>
<text transform="matrix(1 0 0 1 251.564290466309 492.440661132812)" font-family="Gulim" font-size="22">n</text>
<text transform="matrix(1 0 0 1 265.519459655762 492.440661132812)" font-family="Gulim" font-size="22">d</text>
<text transform="matrix(1 0 0 1 280.259751525879 492.440661132812)" font-family="Gulim" font-size="22">!</text>
<text transform="matrix(1 0 0 1 286.819471862793 492.440661132812)" font-family="Gulim" font-size="22"> </text>
<text transform="matrix(1 0 0 1 292.318381622314 492.452661712646)" font-family="Gulim" font-size="22">b</text>
<text transform="matrix(1 0 0 1 112.705550697327 524.444661712647)" font-family="Gulim" font-size="22">S</text>
<text transform="matrix(1 0 0 1 129.041462036133 524.444661712647)" font-family="Gulim" font-size="22">a</text>
<text transform="matrix(1 0 0 1 142.135508262634 524.444661712647)" font-family="Gulim" font-size="22">y</text>
<text transform="matrix(1 0 0 1 154.799008262634 524.444661712647)" font-family="Gulim" font-size="22"> </text>
<text transform="matrix(1 0 0 1 161.839911170959 524.444661712647)" font-family="Gulim" font-size="22">t</text>
<text transform="matrix(1 0 0 1 169.513997215271 524.444661712647)" font-family="Gulim" font-size="22">h</text>
<text transform="matrix(1 0 0 1 183.443832977295 524.444661712647)" font-family="Gulim" font-size="22">e</text>
<text transform="matrix(1 0 0 1 197.044435882568 524.444661712647)" font-family="Gulim" font-size="22"> </text>
<text transform="matrix(1 0 0 1 204.085359130859 524.444661712647)" font-family="Gulim" font-size="22">w</text>
<text transform="matrix(1 0 0 1 222.75134576416 524.444661712647)" font-family="Gulim" font-size="22">o</text>
<text transform="matrix(1 0 0 1 237.213061462402 524.444661712647)" font-family="Gulim" font-size="22">r</text>
<text transform="matrix(1 0 0 1 245.494966705322 524.444661712647)" font-family="Gulim" font-size="22">d</text>
<text transform="matrix(1 0 0 1 260.235299255371 524.444661712647)" font-family="Gulim" font-size="22">!</text>
<text transform="matrix(1 0 0 1 266.794978912353 524.444661712647)" font-family="Gulim" font-size="22"> </text>
<text transform="matrix(1 0 0 1 273.835902160645 524.444661712647)" font-family="Gulim" font-size="22">B</text>
<text transform="matrix(1 0 0 1 291.00759286499 524.444661712647)" font-family="Gulim" font-size="22">a</text>
<text transform="matrix(1 0 0 1 304.557549255371 524.444661712647)" font-family="Gulim" font-size="22">l</text>
<text transform="matrix(1 0 0 1 309.876206237793 524.444661712647)" font-family="Gulim" font-size="22">l</text>
<text transform="matrix(1 0 0 1 100.01672743988 556.432675079346)" font-family="Gulim" font-size="22">M</text>
<text transform="matrix(1 0 0 1 121.949912612915 556.432675079346)" font-family="Gulim" font-size="22">o</text>
<text transform="matrix(1 0 0 1 136.411618141174 556.432675079346)" font-family="Gulim" font-size="22">r</text>
<text transform="matrix(1 0 0 1 144.617553611755 556.432675079346)" font-family="Gulim" font-size="22">e</text>
<text transform="matrix(1 0 0 1 158.218156517029 556.432675079346)" font-family="Gulim" font-size="22"> </text>
<text transform="matrix(1 0 0 1 165.259059425354 556.432675079346)" font-family="Gulim" font-size="22">w</text>
<text transform="matrix(1 0 0 1 183.925076568604 556.432675079346)" font-family="Gulim" font-size="22">o</text>
<text transform="matrix(1 0 0 1 198.386792266846 556.432675079346)" font-family="Gulim" font-size="22">r</text>
<text transform="matrix(1 0 0 1 206.668697509766 556.432675079346)" font-family="Gulim" font-size="22">d</text>
<text transform="matrix(1 0 0 1 221.586313201904 556.432675079346)" font-family="Gulim" font-size="22">s</text>
<text transform="matrix(1 0 0 1 234.047186462402 556.432675079346)" font-family="Gulim" font-size="22">,</text>
<text transform="matrix(1 0 0 1 241.088109710693 556.432675079346)" font-family="Gulim" font-size="22"> </text>
<text transform="matrix(1 0 0 1 248.128992279053 556.432675079346)" font-family="Gulim" font-size="22">p</text>
<text transform="matrix(1 0 0 1 263.021264373779 556.432675079346)" font-family="Gulim" font-size="22">l</text>
<text transform="matrix(1 0 0 1 268.46659866333 556.432675079346)" font-family="Gulim" font-size="22">e</text>
<text transform="matrix(1 0 0 1 282.067201568603 556.432675079346)" font-family="Gulim" font-size="22">a</text>
<text transform="matrix(1 0 0 1 295.667804473877 556.432675079346)" font-family="Gulim" font-size="22">s</text>
<text transform="matrix(1 0 0 1 308.230011444092 556.432675079346)" font-family="Gulim" font-size="22">e</text>
<text transform="matrix(1 0 0 1 321.627987609863 556.432675079346)" font-family="Gulim" font-size="22">!</text>
<text transform="matrix(1 0 0 1 114.667198020935 588.428661712646)" font-family="Gulim" font-size="22">b</text>
<text transform="matrix(1 0 0 1 129.686106742859 588.428661712646)" font-family="Gulim" font-size="22"> </text>
<text transform="matrix(1 0 0 1 136.727009651184 588.428661712646)" font-family="Gulim" font-size="22">b</text>
<text transform="matrix(1 0 0 1 153.339514015198 588.428661712646)" font-family="Gulim" font-size="22"> </text>
<text transform="matrix(1 0 0 1 160.380416923523 588.428661712646)" font-family="Gulim" font-size="22">b</text>
<text transform="matrix(1 0 0 1 175.272699188232 588.428661712646)" font-family="Gulim" font-size="22">u</text>
<text transform="matrix(1 0 0 1 189.278514892578 588.428661712646)" font-family="Gulim" font-size="22">g</text>
<text transform="matrix(1 0 0 1 203.816220703125 588.428661712646)" font-family="Gulim" font-size="22"> </text>
<text transform="matrix(1 0 0 1 209.267290863037 588.428661712646)" font-family="Gulim" font-size="22">b</text>
<text transform="matrix(1 0 0 1 224.286199584961 588.428661712646)" font-family="Gulim" font-size="22"> </text>
<text transform="matrix(1 0 0 1 231.32708215332 588.428661712646)" font-family="Gulim" font-size="22">b</text>
<text transform="matrix(1 0 0 1 247.939586517334 588.428661712646)" font-family="Gulim" font-size="22"> </text>
<text transform="matrix(1 0 0 1 254.980509765625 588.428661712646)" font-family="Gulim" font-size="22">b</text>
<text transform="matrix(1 0 0 1 269.948771972656 588.428661712646)" font-family="Gulim" font-size="22">e</text>
<text transform="matrix(1 0 0 1 283.54937487793 588.428661712646)" font-family="Gulim" font-size="22">a</text>
<text transform="matrix(1 0 0 1 297.149977783203 588.428661712646)" font-family="Gulim" font-size="22">r</text>
<text transform="matrix(1 0 0 1 305.406580108643 588.428661712646)" font-family="Gulim" font-size="22">!</text>
<text transform="matrix(1 0 0 1 23.3996153488159 1088.67576104736)" font-family="Gulim" font-size="7">L</text>
<text transform="matrix(1 0 0 1 27.8145117149353 1088.67576104736)" font-family="Gulim" font-size="7">e</text>
<text transform="matrix(1 0 0 1 32.2054120063782 1088.67576104736)" font-family="Gulim" font-size="7">v</text>
<text transform="matrix(1 0 0 1 36.5403265419006 1088.67576104736)" font-family="Gulim" font-size="7">e</text>
<text transform="matrix(1 0 0 1 40.9312268333435 1088.67576104736)" font-family="Gulim" font-size="7">l</text>
<text transform="matrix(1 0 0 1 42.266891368866 1088.67576104736)" font-family="Gulim" font-size="7">1</text>
<text transform="matrix(1 0 0 1 47.7055287246704 1088.67576104736)" font-family="Gulim" font-size="7">_</text>
<text transform="matrix(1 0 0 1 51.7045287246704 1088.67576104736)" font-family="Gulim" font-size="7">T</text>
<text transform="matrix(1 0 0 1 56.9912112808228 1088.67576104736)" font-family="Gulim" font-size="7">O</text>
<text transform="matrix(1 0 0 1 63.1976569213867 1088.67576104736)" font-family="Gulim" font-size="7">C</text>
<text transform="matrix(1 0 0 1 68.6762877349854 1088.67576104736)" font-family="Gulim" font-size="7">_</text>
<text transform="matrix(1 0 0 1 72.6752877349853 1088.67576104736)" font-family="Gulim" font-size="7">A</text>
<text transform="matrix(1 0 0 1 78.4818394775391 1088.67576104736)" font-family="Gulim" font-size="7">l</text>
<text transform="matrix(1 0 0 1 79.8175040130615 1088.67576104736)" font-family="Gulim" font-size="7">p</text>
<text transform="matrix(1 0 0 1 84.2483926773071 1088.67576104736)" font-family="Gulim" font-size="7">h</text>
<text transform="matrix(1 0 0 1 88.4233537216187 1088.67576104736)" font-family="Gulim" font-size="7">a</text>
<text transform="matrix(1 0 0 1 92.94222290802 1088.67576104736)" font-family="Gulim" font-size="7">_</text>
<text transform="matrix(1 0 0 1 96.94122290802 1088.67576104736)" font-family="Gulim" font-size="7">U</text>
<text transform="matrix(1 0 0 1 102.819757789612 1088.67576104736)" font-family="Gulim" font-size="7">n</text>
<text transform="matrix(1 0 0 1 107.290644996643 1088.67576104736)" font-family="Gulim" font-size="7">i</text>
<text transform="matrix(1 0 0 1 108.562330169678 1088.67576104736)" font-family="Gulim" font-size="7">t</text>
<text transform="matrix(1 0 0 1 111.297648773193 1088.67576104736)" font-family="Gulim" font-size="7">1</text>
<text transform="matrix(1 0 0 1 116.736291213989 1088.67576104736)" font-family="Gulim" font-size="7">_</text>
<text transform="matrix(1 0 0 1 120.735291213989 1088.67576104736)" font-family="Gulim" font-size="7">7</text>
<text transform="matrix(1 0 0 1 126.173933654785 1088.67576104736)" font-family="Gulim" font-size="7">교</text>
<text transform="matrix(1 0 0 1 134.171943824768 1088.67576104736)" font-family="Gulim" font-size="7">.</text>
<text transform="matrix(1 0 0 1 136.931263587952 1088.67576104736)" font-family="Gulim" font-size="7">i</text>
<text transform="matrix(1 0 0 1 138.202938591003 1088.67576104736)" font-family="Gulim" font-size="7">n</text>
<text transform="matrix(1 0 0 1 142.673825798035 1088.67576104736)" font-family="Gulim" font-size="7">d</text>
<text transform="matrix(1 0 0 1 146.992753120422 1088.67576104736)" font-family="Gulim" font-size="7">d</text>
<text transform="matrix(1 0 0 1 151.31168044281 1088.67576104736)" font-family="Gulim" font-size="7"> </text>
<text transform="matrix(1 0 0 1 153.871038002014 1088.67576104736)" font-family="Gulim" font-size="7"> </text>
<text transform="matrix(1 0 0 1 156.430395561218 1088.67576104736)" font-family="Gulim" font-size="7"> </text>
<text transform="matrix(1 0 0 1 158.989753120422 1088.67576104736)" font-family="Gulim" font-size="7">1</text>
<text transform="matrix(1 0 0 1 164.428395561218 1088.67576104736)" font-family="Gulim" font-size="7">6</text>
<text transform="matrix(1 0 0 1 723.592005981445 1088.67576104736)" font-family="Gulim" font-size="7">1</text>
<text transform="matrix(1 0 0 1 729.030668762207 1088.67576104736)" font-family="Gulim" font-size="7">1</text>
<text transform="matrix(1 0 0 1 734.469331542969 1088.67576104736)" font-family="Gulim" font-size="7">.</text>
<text transform="matrix(1 0 0 1 737.228651306152 1088.67576104736)" font-family="Gulim" font-size="7"> </text>
<text transform="matrix(1 0 0 1 739.787988525391 1088.67576104736)" font-family="Gulim" font-size="7">9</text>
<text transform="matrix(1 0 0 1 745.226651306152 1088.67576104736)" font-family="Gulim" font-size="7">.</text>
<text transform="matrix(1 0 0 1 747.985971069336 1088.67576104736)" font-family="Gulim" font-size="7"> </text>
<text transform="matrix(1 0 0 1 750.545308288574 1088.67576104736)" font-family="Gulim" font-size="7">2</text>
<text transform="matrix(1 0 0 1 755.983971069336 1088.67576104736)" font-family="Gulim" font-size="7">9</text>
<text transform="matrix(1 0 0 1 761.422633850098 1088.67576104736)" font-family="Gulim" font-size="7">.</text>
<text transform="matrix(1 0 0 1 764.181953613281 1088.67576104736)" font-family="Gulim" font-size="7"> </text>
<text transform="matrix(1 0 0 1 766.74129083252 1088.67576104736)" font-family="Gulim" font-size="7"> </text>
<text transform="matrix(1 0 0 1 769.300628051758 1088.67576104736)" font-family="Gulim" font-size="7"> </text>
<text transform="matrix(1 0 0 1 771.859965270996 1088.67576104736)" font-family="Gulim" font-size="7">오</text>
<text transform="matrix(1 0 0 1 779.857965270996 1088.67576104736)" font-family="Gulim" font-size="7">후</text>
<text transform="matrix(1 0 0 1 787.855965270996 1088.67576104736)" font-family="Gulim" font-size="7"> </text>
<text transform="matrix(1 0 0 1 790.415302490234 1088.67576104736)" font-family="Gulim" font-size="7">4</text>
<text transform="matrix(1 0 0 1 795.853965270996 1088.67576104736)" font-family="Gulim" font-size="7">:</text>
<text transform="matrix(1 0 0 1 799.852965270996 1088.67576104736)" font-family="Gulim" font-size="7">0</text>
<text transform="matrix(1 0 0 1 805.291628051758 1088.67576104736)" font-family="Gulim" font-size="7">1</text>
</svg>