<?xml version="1.0" encoding="utf-8"?>
<svg xmlns="http://www.w3.org/2000/svg" xmlns:xlink="http://www.w3.org/1999/xlink" width="812" height="1056" viewBox="0 0 812 1056" version="1.2" >
<text transform="matrix(1 0 0 1 697.3568671875 1007.00201141357)" font-family="Gulim" font-size="12">A</text>
<text transform="matrix(1 0 0 1 706.5212421875 1007.00201141357)" font-family="Gulim" font-size="12">a</text>
<text transform="matrix(1 0 0 1 714.864533447266 1007.00201141357)" font-family="Gulim" font-size="12"> </text>
<text transform="matrix(1 0 0 1 718.720909606934 1007.00201141357)" font-family="Gulim" font-size="12"> </text>
<text transform="matrix(1 0 0 1 722.577285766602 1007.00201141357)" font-family="Gulim" font-size="12">B</text>
<text transform="matrix(1 0 0 1 730.920577026367 1007.00201141357)" font-family="Gulim" font-size="12">b</text>
<text transform="matrix(1 0 0 1 757.919034057617 1007.9290256958)" font-family="Gulim" font-size="16">1</text>
<text transform="matrix(1 0 0 1 764.330760803223 1007.9290256958)" font-family="Gulim" font-size="16">7</text>
<text transform="matrix(1 0 0 1 273.851116455078 104.605596618652)" font-family="Gulim" font-size="40">P</text>
<text transform="matrix(1 0 0 1 304.419481567383 104.605596618652)" font-family="Gulim" font-size="40">i</text>
<text transform="matrix(1 0 0 1 317.088310638428 104.605596618652)" font-family="Gulim" font-size="40">c</text>
<text transform="matrix(1 0 0 1 337.195302490234 104.605596618652)" font-family="Gulim" font-size="40">t</text>
<text transform="matrix(1 0 0 1 355.190802490234 104.605596618652)" font-family="Gulim" font-size="40">u</text>
<text transform="matrix(1 0 0 1 382.879882720947 104.605596618652)" font-family="Gulim" font-size="40">r</text>
<text transform="matrix(1 0 0 1 400.827380401611 104.605596618652)" font-family="Gulim" font-size="40">e</text>
<text transform="matrix(1 0 0 1 424.869382720947 104.605596618652)" font-family="Gulim" font-size="40"> </text>
<text transform="matrix(1 0 0 1 436.866382720947 104.605596618652)" font-family="Gulim" font-size="40">P</text>
<text transform="matrix(1 0 0 1 467.290740875244 104.605596618652)" font-family="Gulim" font-size="40">u</text>
<text transform="matrix(1 0 0 1 494.883857147217 104.605596618652)" font-family="Gulim" font-size="40">z</text>
<text transform="matrix(1 0 0 1 517.150261810303 104.605596618652)" font-family="Gulim" font-size="40">z</text>
<text transform="matrix(1 0 0 1 539.416666473389 104.605596618652)" font-family="Gulim" font-size="40">l</text>
<text transform="matrix(1 0 0 1 551.701599029541 104.605596618652)" font-family="Gulim" font-size="40">e</text>
<text transform="matrix(1 0 0 1 273.851116455078 104.605596618652)" font-family="Gulim" font-size="40">P</text>
<text transform="matrix(1 0 0 1 304.419481567383 104.605596618652)" font-family="Gulim" font-size="40">i</text>
<text transform="matrix(1 0 0 1 317.088310638428 104.605596618652)" font-family="Gulim" font-size="40">c</text>
<text transform="matrix(1 0 0 1 337.195302490234 104.605596618652)" font-family="Gulim" font-size="40">t</text>
<text transform="matrix(1 0 0 1 355.190802490234 104.605596618652)" font-family="Gulim" font-size="40">u</text>
<text transform="matrix(1 0 0 1 382.879882720947 104.605596618652)" font-family="Gulim" font-size="40">r</text>
<text transform="matrix(1 0 0 1 400.827380401611 104.605596618652)" font-family="Gulim" font-size="40">e</text>
<text transform="matrix(1 0 0 1 424.869382720947 104.605596618652)" font-family="Gulim" font-size="40"> </text>
<text transform="matrix(1 0 0 1 436.866382720947 104.605596618652)" font-family="Gulim" font-size="40">P</text>
<text transform="matrix(1 0 0 1 467.290740875244 104.605596618652)" font-family="Gulim" font-size="40">u</text>
<text transform="matrix(1 0 0 1 494.883857147217 104.605596618652)" font-family="Gulim" font-size="40">z</text>
<text transform="matrix(1 0 0 1 517.150261810303 104.605596618652)" font-family="Gulim" font-size="40">z</text>
<text transform="matrix(1 0 0 1 539.416666473389 104.605596618652)" font-family="Gulim" font-size="40">l</text>
<text transform="matrix(1 0 0 1 551.701599029541 104.605596618652)" font-family="Gulim" font-size="40">e</text>
<text transform="matrix(1 0 0 1 151.955460700989 166.519150817871)" font-family="Gulim" font-size="26">P</text>
<text transform="matrix(1 0 0 1 167.468915351868 166.519150817871)" font-family="Gulim" font-size="26"> </text>
<text transform="matrix(1 0 0 1 183.3636121521 166.519150817871)" font-family="Gulim" font-size="26">t</text>
<text transform="matrix(1 0 0 1 191.281635406494 166.519150817871)" font-family="Gulim" font-size="26"> </text>
<text transform="matrix(1 0 0 1 201.311109832764 166.519150817871)" font-family="Gulim" font-size="26">e</text>
<text transform="matrix(1 0 0 1 216.912555175781 166.519150817871)" font-family="Gulim" font-size="26">a</text>
<text transform="matrix(1 0 0 1 233.511065643311 166.519150817871)" font-family="Gulim" font-size="26">c</text>
<text transform="matrix(1 0 0 1 246.502486572266 166.519150817871)" font-family="Gulim" font-size="26">h</text>
<text transform="matrix(1 0 0 1 262.573134246826 166.519150817871)" font-family="Gulim" font-size="26"> </text>
<text transform="matrix(1 0 0 1 272.602649353027 166.519150817871)" font-family="Gulim" font-size="26">s</text>
<text transform="matrix(1 0 0 1 286.092602844238 166.519150817871)" font-family="Gulim" font-size="26">t</text>
<text transform="matrix(1 0 0 1 293.98129586792 166.519150817871)" font-family="Gulim" font-size="26">i</text>
<text transform="matrix(1 0 0 1 300.139790039063 166.519150817871)" font-family="Gulim" font-size="26">c</text>
<text transform="matrix(1 0 0 1 313.131170288086 166.519150817871)" font-family="Gulim" font-size="26">k</text>
<text transform="matrix(1 0 0 1 326.474513305664 166.519150817871)" font-family="Gulim" font-size="26">e</text>
<text transform="matrix(1 0 0 1 342.134619110107 166.519150817871)" font-family="Gulim" font-size="26">r</text>
<text transform="matrix(1 0 0 1 349.554069122314 166.519150817871)" font-family="Gulim" font-size="26">.</text>
<text transform="matrix(1 0 0 1 357.178830749512 166.519150817871)" font-family="Gulim" font-size="26"> </text>
<text transform="matrix(1 0 0 1 100.856249359131 158.562644348145)" font-family="Gulim" font-size="10">S</text>
<text transform="matrix(1 0 0 1 107.443987998962 157.183106506348)" font-family="Gulim" font-size="10">t</text>
<text transform="matrix(1 0 0 1 111.666086914063 156.298887512207)" font-family="Gulim" font-size="10">i</text>
<text transform="matrix(1 0 0 1 114.944045295715 155.61237298584)" font-family="Gulim" font-size="10">c</text>
<text transform="matrix(1 0 0 1 120.683129371643 154.410443725586)" font-family="Gulim" font-size="10">k</text>
<text transform="matrix(1 0 0 1 126.857153106689 153.117554138184)" font-family="Gulim" font-size="10">!</text>
<text transform="matrix(1 0 0 1 202.75610168457 552.852230895996)" font-family="Gulim" font-size="28">a</text>
<text transform="matrix(1 0 0 1 220.170407501221 552.852230895996)" font-family="Gulim" font-size="27">p</text>
<text transform="matrix(1 0 0 1 237.155458679199 552.852230895996)" font-family="Gulim" font-size="27">p</text>
<text transform="matrix(1 0 0 1 254.201855194092 552.852230895996)" font-family="Gulim" font-size="27">l</text>
<text transform="matrix(1 0 0 1 260.548290649414 552.852230895996)" font-family="Gulim" font-size="27">e</text>
<text transform="matrix(1 0 0 1 187.641188323975 945.256790771484)" font-family="Gulim" font-size="28">a</text>
<text transform="matrix(1 0 0 1 205.116839477539 945.256790771484)" font-family="Gulim" font-size="27">l</text>
<text transform="matrix(1 0 0 1 211.432602264404 945.256790771484)" font-family="Gulim" font-size="27">l</text>
<text transform="matrix(1 0 0 1 217.74836505127 945.256790771484)" font-family="Gulim" font-size="27">i</text>
<text transform="matrix(1 0 0 1 223.880173187256 945.256790771484)" font-family="Gulim" font-size="27">g</text>
<text transform="matrix(1 0 0 1 240.865224365234 945.256790771484)" font-family="Gulim" font-size="27">a</text>
<text transform="matrix(1 0 0 1 257.911620880127 945.256790771484)" font-family="Gulim" font-size="27">t</text>
<text transform="matrix(1 0 0 1 265.515066223145 945.256790771484)" font-family="Gulim" font-size="27">o</text>
<text transform="matrix(1 0 0 1 282.0095987854 945.256790771484)" font-family="Gulim" font-size="27">r</text>
<text transform="matrix(1 0 0 1 542.488448791504 552.852230895996)" font-family="Gulim" font-size="28">b</text>
<text transform="matrix(1 0 0 1 559.994731933594 552.852230895996)" font-family="Gulim" font-size="27">e</text>
<text transform="matrix(1 0 0 1 575.96807321167 552.852230895996)" font-family="Gulim" font-size="27">a</text>
<text transform="matrix(1 0 0 1 593.106447052002 552.852230895996)" font-family="Gulim" font-size="27">r</text>
<text transform="matrix(1 0 0 1 549.110775543213 945.256790771484)" font-family="Gulim" font-size="28">b</text>
<text transform="matrix(1 0 0 1 566.463776702881 945.256790771484)" font-family="Gulim" font-size="27">a</text>
<text transform="matrix(1 0 0 1 583.602150543213 945.256790771484)" font-family="Gulim" font-size="27">l</text>
<text transform="matrix(1 0 0 1 589.917872650146 945.256790771484)" font-family="Gulim" font-size="27">l</text>
<text transform="matrix(1 0 0 1 23.3996153488159 1088.67576104736)" font-family="Gulim" font-size="7">L</text>
<text transform="matrix(1 0 0 1 27.8145117149353 1088.67576104736)" font-family="Gulim" font-size="7">e</text>
<text transform="matrix(1 0 0 1 32.2054120063782 1088.67576104736)" font-family="Gulim" font-size="7">v</text>
<text transform="matrix(1 0 0 1 36.5403265419006 1088.67576104736)" font-family="Gulim" font-size="7">e</text>
<text transform="matrix(1 0 0 1 40.9312268333435 1088.67576104736)" font-family="Gulim" font-size="7">l</text>
<text transform="matrix(1 0 0 1 42.266891368866 1088.67576104736)" font-family="Gulim" font-size="7">1</text>
<text transform="matrix(1 0 0 1 47.7055287246704 1088.67576104736)" font-family="Gulim" font-size="7">_</text>
<text transform="matrix(1 0 0 1 51.7045287246704 1088.67576104736)" font-family="Gulim" font-size="7">T</text>
<text transform="matrix(1 0 0 1 56.9912112808228 1088.67576104736)" font-family="Gulim" font-size="7">O</text>
<text transform="matrix(1 0 0 1 63.1976569213867 1088.67576104736)" font-family="Gulim" font-size="7">C</text>
<text transform="matrix(1 0 0 1 68.6762877349854 1088.67576104736)" font-family="Gulim" font-size="7">_</text>
<text transform="matrix(1 0 0 1 72.6752877349853 1088.67576104736)" font-family="Gulim" font-size="7">A</text>
<text transform="matrix(1 0 0 1 78.4818394775391 1088.67576104736)" font-family="Gulim" font-size="7">l</text>
<text transform="matrix(1 0 0 1 79.8175040130615 1088.67576104736)" font-family="Gulim" font-size="7">p</text>
<text transform="matrix(1 0 0 1 84.2483926773071 1088.67576104736)" font-family="Gulim" font-size="7">h</text>
<text transform="matrix(1 0 0 1 88.4233537216187 1088.67576104736)" font-family="Gulim" font-size="7">a</text>
<text transform="matrix(1 0 0 1 92.94222290802 1088.67576104736)" font-family="Gulim" font-size="7">_</text>
<text transform="matrix(1 0 0 1 96.94122290802 1088.67576104736)" font-family="Gulim" font-size="7">U</text>
<text transform="matrix(1 0 0 1 102.819757789612 1088.67576104736)" font-family="Gulim" font-size="7">n</text>
<text transform="matrix(1 0 0 1 107.290644996643 1088.67576104736)" font-family="Gulim" font-size="7">i</text>
<text transform="matrix(1 0 0 1 108.562330169678 1088.67576104736)" font-family="Gulim" font-size="7">t</text>
<text transform="matrix(1 0 0 1 111.297648773193 1088.67576104736)" font-family="Gulim" font-size="7">1</text>
<text transform="matrix(1 0 0 1 116.736291213989 1088.67576104736)" font-family="Gulim" font-size="7">_</text>
<text transform="matrix(1 0 0 1 120.735291213989 1088.67576104736)" font-family="Gulim" font-size="7">7</text>
<text transform="matrix(1 0 0 1 126.173933654785 1088.67576104736)" font-family="Gulim" font-size="7">교</text>
<text transform="matrix(1 0 0 1 134.171943824768 1088.67576104736)" font-family="Gulim" font-size="7">.</text>
<text transform="matrix(1 0 0 1 136.931263587952 1088.67576104736)" font-family="Gulim" font-size="7">i</text>
<text transform="matrix(1 0 0 1 138.202938591003 1088.67576104736)" font-family="Gulim" font-size="7">n</text>
<text transform="matrix(1 0 0 1 142.673825798035 1088.67576104736)" font-family="Gulim" font-size="7">d</text>
<text transform="matrix(1 0 0 1 146.992753120422 1088.67576104736)" font-family="Gulim" font-size="7">d</text>
<text transform="matrix(1 0 0 1 151.31168044281 1088.67576104736)" font-family="Gulim" font-size="7"> </text>
<text transform="matrix(1 0 0 1 153.871038002014 1088.67576104736)" font-family="Gulim" font-size="7"> </text>
<text transform="matrix(1 0 0 1 156.430395561218 1088.67576104736)" font-family="Gulim" font-size="7"> </text>
<text transform="matrix(1 0 0 1 158.989753120422 1088.67576104736)" font-family="Gulim" font-size="7">1</text>
<text transform="matrix(1 0 0 1 164.428395561218 1088.67576104736)" font-family="Gulim" font-size="7">7</text>
<text transform="matrix(1 0 0 1 723.592005981445 1088.67576104736)" font-family="Gulim" font-size="7">1</text>
<text transform="matrix(1 0 0 1 729.030668762207 1088.67576104736)" font-family="Gulim" font-size="7">1</text>
<text transform="matrix(1 0 0 1 734.469331542969 1088.67576104736)" font-family="Gulim" font-size="7">.</text>
<text transform="matrix(1 0 0 1 737.228651306152 1088.67576104736)" font-family="Gulim" font-size="7"> </text>
<text transform="matrix(1 0 0 1 739.787988525391 1088.67576104736)" font-family="Gulim" font-size="7">9</text>
<text transform="matrix(1 0 0 1 745.226651306152 1088.67576104736)" font-family="Gulim" font-size="7">.</text>
<text transform="matrix(1 0 0 1 747.985971069336 1088.67576104736)" font-family="Gulim" font-size="7"> </text>
<text transform="matrix(1 0 0 1 750.545308288574 1088.67576104736)" font-family="Gulim" font-size="7">2</text>
<text transform="matrix(1 0 0 1 755.983971069336 1088.67576104736)" font-family="Gulim" font-size="7">9</text>
<text transform="matrix(1 0 0 1 761.422633850098 1088.67576104736)" font-family="Gulim" font-size="7">.</text>
<text transform="matrix(1 0 0 1 764.181953613281 1088.67576104736)" font-family="Gulim" font-size="7"> </text>
<text transform="matrix(1 0 0 1 766.74129083252 1088.67576104736)" font-family="Gulim" font-size="7"> </text>
<text transform="matrix(1 0 0 1 769.300628051758 1088.67576104736)" font-family="Gulim" font-size="7"> </text>
<text transform="matrix(1 0 0 1 771.859965270996 1088.67576104736)" font-family="Gulim" font-size="7">오</text>
<text transform="matrix(1 0 0 1 779.857965270996 1088.67576104736)" font-family="Gulim" font-size="7">후</text>
<text transform="matrix(1 0 0 1 787.855965270996 1088.67576104736)" font-family="Gulim" font-size="7"> </text>
<text transform="matrix(1 0 0 1 790.415302490234 1088.67576104736)" font-family="Gulim" font-size="7">4</text>
<text transform="matrix(1 0 0 1 795.853965270996 1088.67576104736)" font-family="Gulim" font-size="7">:</text>
<text transform="matrix(1 0 0 1 799.852965270996 1088.67576104736)" font-family="Gulim" font-size="7">0</text>
<text transform="matrix(1 0 0 1 805.291628051758 1088.67576104736)" font-family="Gulim" font-size="7">1</text>
</svg>