<?xml version="1.0" encoding="utf-8"?>
<svg xmlns="http://www.w3.org/2000/svg" xmlns:xlink="http://www.w3.org/1999/xlink" width="812" height="1056" viewBox="0 0 812 1056" version="1.2" >
<text transform="matrix(1 0 0 1 121.395912963867 130.484867370605)" font-family="Gulim" font-size="10">S</text>
<text transform="matrix(1 0 0 1 127.790310058594 130.484867370605)" font-family="Gulim" font-size="10">o</text>
<text transform="matrix(1 0 0 1 134.112734184265 130.484867370605)" font-family="Gulim" font-size="10">c</text>
<text transform="matrix(1 0 0 1 139.631353370666 130.484867370605)" font-family="Gulim" font-size="10">i</text>
<text transform="matrix(1 0 0 1 142.654604530334 130.484867370605)" font-family="Gulim" font-size="10">a</text>
<text transform="matrix(1 0 0 1 148.689085929871 130.484867370605)" font-family="Gulim" font-size="10">l</text>
<text transform="matrix(1 0 0 1 151.712337089539 130.484867370605)" font-family="Gulim" font-size="10"> </text>
<text transform="matrix(1 0 0 1 154.27968825531 130.484867370605)" font-family="Gulim" font-size="10">S</text>
<text transform="matrix(1 0 0 1 160.674085350037 130.484867370605)" font-family="Gulim" font-size="10">t</text>
<text transform="matrix(1 0 0 1 164.87302721405 130.484867370605)" font-family="Gulim" font-size="10">u</text>
<text transform="matrix(1 0 0 1 171.25541355896 130.484867370605)" font-family="Gulim" font-size="10">d</text>
<text transform="matrix(1 0 0 1 177.745794952393 130.484867370605)" font-family="Gulim" font-size="10">i</text>
<text transform="matrix(1 0 0 1 180.769046112061 130.484867370605)" font-family="Gulim" font-size="10">e</text>
<text transform="matrix(1 0 0 1 186.791547271729 130.484867370605)" font-family="Gulim" font-size="10">s</text>
<text transform="matrix(1 0 0 1 78.7044502334595 104.527897949219)" font-family="Gulim" font-size="35">U</text>
<text transform="matrix(1 0 0 1 103.378283081055 104.527897949219)" font-family="Gulim" font-size="35">n</text>
<text transform="matrix(1 0 0 1 124.373033081055 104.527897949219)" font-family="Gulim" font-size="35">i</text>
<text transform="matrix(1 0 0 1 135.730188606262 104.527897949219)" font-family="Gulim" font-size="35">t</text>
<text transform="matrix(1 0 0 1 149.326784538269 104.527897949219)" font-family="Gulim" font-size="35"> </text>
<text transform="matrix(1 0 0 1 161.44256993866 102.87507232666)" font-family="Gulim" font-size="61">0</text>
<text transform="matrix(1 0 0 1 196.447132446289 102.87507232666)" font-family="Gulim" font-size="61">1</text>
<text transform="matrix(1 0 0 1 62.3460123825073 297.636672485352)" font-family="Gulim" font-size="18">T</text>
<text transform="matrix(1 0 0 1 74.6522713928223 297.636672485352)" font-family="Gulim" font-size="18">h</text>
<text transform="matrix(1 0 0 1 85.7854838943481 297.636672485352)" font-family="Gulim" font-size="18">i</text>
<text transform="matrix(1 0 0 1 90.9468519210815 297.636672485352)" font-family="Gulim" font-size="18">n</text>
<text transform="matrix(1 0 0 1 102.080064422607 297.636672485352)" font-family="Gulim" font-size="18">k</text>
<text transform="matrix(1 0 0 1 112.381484191895 297.636672485352)" font-family="Gulim" font-size="18"> </text>
<text transform="matrix(1 0 0 1 116.732396110535 297.636672485352)" font-family="Gulim" font-size="18">a</text>
<text transform="matrix(1 0 0 1 127.247100761414 297.636672485352)" font-family="Gulim" font-size="18">b</text>
<text transform="matrix(1 0 0 1 138.486945533752 297.636672485352)" font-family="Gulim" font-size="18">o</text>
<text transform="matrix(1 0 0 1 149.513525764465 297.636672485352)" font-family="Gulim" font-size="18">u</text>
<text transform="matrix(1 0 0 1 160.646728096008 297.636672485352)" font-family="Gulim" font-size="18">t</text>
<text transform="matrix(1 0 0 1 167.898251350403 297.636672485352)" font-family="Gulim" font-size="18"> </text>
<text transform="matrix(1 0 0 1 172.249142929077 297.636672485352)" font-family="Gulim" font-size="18">f</text>
<text transform="matrix(1 0 0 1 178.988790603638 297.636672485352)" font-family="Gulim" font-size="18">u</text>
<text transform="matrix(1 0 0 1 190.121992935181 297.636672485352)" font-family="Gulim" font-size="18">n</text>
<text transform="matrix(1 0 0 1 201.255195266724 297.636672485352)" font-family="Gulim" font-size="18"> </text>
<text transform="matrix(1 0 0 1 205.606097015381 297.636672485352)" font-family="Gulim" font-size="18">a</text>
<text transform="matrix(1 0 0 1 216.12080166626 297.636672485352)" font-family="Gulim" font-size="18">c</text>
<text transform="matrix(1 0 0 1 225.718397598267 297.636672485352)" font-family="Gulim" font-size="18">t</text>
<text transform="matrix(1 0 0 1 232.969920852661 297.636672485352)" font-family="Gulim" font-size="18">i</text>
<text transform="matrix(1 0 0 1 238.131288879395 297.636672485352)" font-family="Gulim" font-size="18">v</text>
<text transform="matrix(1 0 0 1 248.368719116211 297.636672485352)" font-family="Gulim" font-size="18">i</text>
<text transform="matrix(1 0 0 1 253.530087142944 297.636672485352)" font-family="Gulim" font-size="18">t</text>
<text transform="matrix(1 0 0 1 260.781610397339 297.636672485352)" font-family="Gulim" font-size="18">i</text>
<text transform="matrix(1 0 0 1 265.942978424072 297.636672485352)" font-family="Gulim" font-size="18">e</text>
<text transform="matrix(1 0 0 1 276.436346450806 297.636672485352)" font-family="Gulim" font-size="18">s</text>
<text transform="matrix(1 0 0 1 285.884647033691 297.636672485352)" font-family="Gulim" font-size="18"> </text>
<text transform="matrix(1 0 0 1 62.3460123825073 322.953014343262)" font-family="Gulim" font-size="18">i</text>
<text transform="matrix(1 0 0 1 67.5073804092407 322.953014343262)" font-family="Gulim" font-size="18">n</text>
<text transform="matrix(1 0 0 1 78.6405929107666 322.953014343262)" font-family="Gulim" font-size="18"> </text>
<text transform="matrix(1 0 0 1 82.9915048294067 322.953014343262)" font-family="Gulim" font-size="18">w</text>
<text transform="matrix(1 0 0 1 98.1983650054932 322.953014343262)" font-family="Gulim" font-size="18">i</text>
<text transform="matrix(1 0 0 1 103.359733032227 322.953014343262)" font-family="Gulim" font-size="18">n</text>
<text transform="matrix(1 0 0 1 114.492945533752 322.953014343262)" font-family="Gulim" font-size="18">t</text>
<text transform="matrix(1 0 0 1 121.659152801514 322.953014343262)" font-family="Gulim" font-size="18">e</text>
<text transform="matrix(1 0 0 1 132.15253099823 322.953014343262)" font-family="Gulim" font-size="18">r</text>
<text transform="matrix(1 0 0 1 139.766614143372 322.953014343262)" font-family="Gulim" font-size="18"> </text>
<text transform="matrix(1 0 0 1 144.117515892029 322.953014343262)" font-family="Gulim" font-size="18">a</text>
<text transform="matrix(1 0 0 1 154.632220542908 322.953014343262)" font-family="Gulim" font-size="18">n</text>
<text transform="matrix(1 0 0 1 165.765422874451 322.953014343262)" font-family="Gulim" font-size="18">d</text>
<text transform="matrix(1 0 0 1 177.090583633423 322.953014343262)" font-family="Gulim" font-size="18"> </text>
<text transform="matrix(1 0 0 1 181.44148538208 322.953014343262)" font-family="Gulim" font-size="18">c</text>
<text transform="matrix(1 0 0 1 191.039081314087 322.953014343262)" font-family="Gulim" font-size="18">h</text>
<text transform="matrix(1 0 0 1 202.17228364563 322.953014343262)" font-family="Gulim" font-size="18">e</text>
<text transform="matrix(1 0 0 1 212.665651672363 322.953014343262)" font-family="Gulim" font-size="18">c</text>
<text transform="matrix(1 0 0 1 222.26324760437 322.953014343262)" font-family="Gulim" font-size="18">k</text>
<text transform="matrix(1 0 0 1 232.564667373657 322.953014343262)" font-family="Gulim" font-size="18"> </text>
<text transform="matrix(1 0 0 1 236.915569122314 322.953014343262)" font-family="Gulim" font-size="18">y</text>
<text transform="matrix(1 0 0 1 246.918398193359 322.953014343262)" font-family="Gulim" font-size="18">o</text>
<text transform="matrix(1 0 0 1 257.944978424072 322.953014343262)" font-family="Gulim" font-size="18">u</text>
<text transform="matrix(1 0 0 1 269.078180755615 322.953014343262)" font-family="Gulim" font-size="18">r</text>
<text transform="matrix(1 0 0 1 276.692263900757 322.953014343262)" font-family="Gulim" font-size="18"> </text>
<text transform="matrix(1 0 0 1 62.3460123825073 348.269356201172)" font-family="Gulim" font-size="18">t</text>
<text transform="matrix(1 0 0 1 69.5975254669189 348.269356201172)" font-family="Gulim" font-size="18">h</text>
<text transform="matrix(1 0 0 1 80.7307379684448 348.269356201172)" font-family="Gulim" font-size="18">i</text>
<text transform="matrix(1 0 0 1 85.8921059951782 348.269356201172)" font-family="Gulim" font-size="18">n</text>
<text transform="matrix(1 0 0 1 97.0253184967041 348.269356201172)" font-family="Gulim" font-size="18">k</text>
<text transform="matrix(1 0 0 1 107.326738265991 348.269356201172)" font-family="Gulim" font-size="18">i</text>
<text transform="matrix(1 0 0 1 112.488106292725 348.269356201172)" font-family="Gulim" font-size="18">n</text>
<text transform="matrix(1 0 0 1 123.62131879425 348.269356201172)" font-family="Gulim" font-size="18">g</text>
<text transform="matrix(1 0 0 1 134.477267051697 348.269356201172)" font-family="Gulim" font-size="18">.</text>
<text transform="matrix(1 0 0 1 88.5827885437012 386.619629516602)" font-family="Gulim" font-size="18"> </text>
<text transform="matrix(1 0 0 1 93.0616591873169 386.619629516602)" font-family="Gulim" font-size="18"> </text>
<text transform="matrix(1 0 0 1 97.5405501708984 386.790241149902)" font-family="Gulim" font-size="19">I</text>
<text transform="matrix(1 0 0 1 103.107161506653 386.619629516602)" font-family="Gulim" font-size="18"> </text>
<text transform="matrix(1 0 0 1 107.586032150269 386.619629516602)" font-family="Gulim" font-size="18">c</text>
<text transform="matrix(1 0 0 1 117.375576339722 386.619629516602)" font-family="Gulim" font-size="18">a</text>
<text transform="matrix(1 0 0 1 127.804965003967 386.619629516602)" font-family="Gulim" font-size="18">n</text>
<text transform="matrix(1 0 0 1 138.83154523468 386.619629516602)" font-family="Gulim" font-size="18"> </text>
<text transform="matrix(1 0 0 1 143.310426048279 386.619629516602)" font-family="Gulim" font-size="18">h</text>
<text transform="matrix(1 0 0 1 154.337006278992 386.619629516602)" font-family="Gulim" font-size="18">a</text>
<text transform="matrix(1 0 0 1 164.574436515808 386.619629516602)" font-family="Gulim" font-size="18">v</text>
<text transform="matrix(1 0 0 1 174.108032745361 386.619629516602)" font-family="Gulim" font-size="18">e</text>
<text transform="matrix(1 0 0 1 184.537411239624 386.619629516602)" font-family="Gulim" font-size="18"> </text>
<text transform="matrix(1 0 0 1 189.016292053223 386.619629516602)" font-family="Gulim" font-size="18">s</text>
<text transform="matrix(1 0 0 1 198.229991470337 386.619629516602)" font-family="Gulim" font-size="18">n</text>
<text transform="matrix(1 0 0 1 209.25657170105 386.619629516602)" font-family="Gulim" font-size="18">o</text>
<text transform="matrix(1 0 0 1 219.941908325195 386.619629516602)" font-family="Gulim" font-size="18">w</text>
<text transform="matrix(1 0 0 1 235.127442047119 386.619629516602)" font-family="Gulim" font-size="18">b</text>
<text transform="matrix(1 0 0 1 246.281981002808 386.619629516602)" font-family="Gulim" font-size="18">a</text>
<text transform="matrix(1 0 0 1 256.71135949707 386.619629516602)" font-family="Gulim" font-size="18">l</text>
<text transform="matrix(1 0 0 1 261.680779266357 386.619629516602)" font-family="Gulim" font-size="18">l</text>
<text transform="matrix(1 0 0 1 266.650199035645 386.619629516602)" font-family="Gulim" font-size="18"> </text>
<text transform="matrix(1 0 0 1 271.129120529175 386.619629516602)" font-family="Gulim" font-size="18"> </text>
<text transform="matrix(1 0 0 1 62.3493481369019 409.611194641113)" font-family="Gulim" font-size="18"> </text>
<text transform="matrix(1 0 0 1 97.1139804077148 409.611194641113)" font-family="Gulim" font-size="18">f</text>
<text transform="matrix(1 0 0 1 103.533710929871 409.611194641113)" font-family="Gulim" font-size="18">i</text>
<text transform="matrix(1 0 0 1 108.503130699158 409.611194641113)" font-family="Gulim" font-size="18">g</text>
<text transform="matrix(1 0 0 1 119.039161804199 409.611194641113)" font-family="Gulim" font-size="18">h</text>
<text transform="matrix(1 0 0 1 130.065731864929 409.611194641113)" font-family="Gulim" font-size="18">t</text>
<text transform="matrix(1 0 0 1 137.039980705261 409.611194641113)" font-family="Gulim" font-size="18">s</text>
<text transform="matrix(1 0 0 1 146.253680122375 409.611194641113)" font-family="Gulim" font-size="18">.</text>
<text transform="matrix(1 0 0 1 88.5827885437012 447.276417907715)" font-family="Gulim" font-size="18"> </text>
<text transform="matrix(1 0 0 1 93.0616591873169 447.276417907715)" font-family="Gulim" font-size="18"> </text>
<text transform="matrix(1 0 0 1 97.5405400009155 447.447070220947)" font-family="Gulim" font-size="19"> </text>
<text transform="matrix(1 0 0 1 97.5405400009155 447.447070220947)" font-family="Gulim" font-size="19">I</text>
<text transform="matrix(1 0 0 1 103.10715133667 447.276458587646)" font-family="Gulim" font-size="18"> </text>
<text transform="matrix(1 0 0 1 107.586032150269 447.276417907715)" font-family="Gulim" font-size="18">c</text>
<text transform="matrix(1 0 0 1 117.375576339722 447.276417907715)" font-family="Gulim" font-size="18">a</text>
<text transform="matrix(1 0 0 1 127.804965003967 447.276417907715)" font-family="Gulim" font-size="18">n</text>
<text transform="matrix(1 0 0 1 138.83154523468 447.276417907715)" font-family="Gulim" font-size="18"> </text>
<text transform="matrix(1 0 0 1 143.310426048279 447.276417907715)" font-family="Gulim" font-size="18">m</text>
<text transform="matrix(1 0 0 1 160.479472557068 447.276417907715)" font-family="Gulim" font-size="18">a</text>
<text transform="matrix(1 0 0 1 170.908840881348 447.276417907715)" font-family="Gulim" font-size="18">k</text>
<text transform="matrix(1 0 0 1 180.378478088379 447.276417907715)" font-family="Gulim" font-size="18">e</text>
<text transform="matrix(1 0 0 1 190.807856582642 447.276417907715)" font-family="Gulim" font-size="18"> </text>
<text transform="matrix(1 0 0 1 195.28673739624 447.276417907715)" font-family="Gulim" font-size="18">a</text>
<text transform="matrix(1 0 0 1 205.716115890503 447.276417907715)" font-family="Gulim" font-size="18"> </text>
<text transform="matrix(1 0 0 1 210.194996704102 447.276417907715)" font-family="Gulim" font-size="18">s</text>
<text transform="matrix(1 0 0 1 219.408696121216 447.276417907715)" font-family="Gulim" font-size="18">n</text>
<text transform="matrix(1 0 0 1 230.435276351929 447.276417907715)" font-family="Gulim" font-size="18">o</text>
<text transform="matrix(1 0 0 1 241.120612976074 447.276417907715)" font-family="Gulim" font-size="18">w</text>
<text transform="matrix(1 0 0 1 256.306146697998 447.276417907715)" font-family="Gulim" font-size="18"> </text>
<text transform="matrix(1 0 0 1 260.785047851562 447.276417907715)" font-family="Gulim" font-size="18"> </text>
<text transform="matrix(1 0 0 1 88.7960632553101 470.267983032227)" font-family="Gulim" font-size="18"> </text>
<text transform="matrix(1 0 0 1 97.1139804077148 470.268023712158)" font-family="Gulim" font-size="18">m</text>
<text transform="matrix(1 0 0 1 114.283026916504 470.267983032227)" font-family="Gulim" font-size="18">a</text>
<text transform="matrix(1 0 0 1 124.71241558075 470.267983032227)" font-family="Gulim" font-size="18">n</text>
<text transform="matrix(1 0 0 1 135.738995811462 470.267983032227)" font-family="Gulim" font-size="18">.</text>
<text transform="matrix(1 0 0 1 336.293245346069 128.881020385742)" font-family="Gulim" font-size="67">W</text>
<text transform="matrix(1 0 0 1 409.828222076416 128.881020385742)" font-family="Gulim" font-size="67">i</text>
<text transform="matrix(1 0 0 1 434.444747070312 128.881020385742)" font-family="Gulim" font-size="67">n</text>
<text transform="matrix(1 0 0 1 482.576713348389 128.881020385742)" font-family="Gulim" font-size="67">t</text>
<text transform="matrix(1 0 0 1 509.395365081787 128.881020385742)" font-family="Gulim" font-size="67">e</text>
<text transform="matrix(1 0 0 1 550.527738922119 128.881020385742)" font-family="Gulim" font-size="67">r</text>
<text transform="matrix(1 0 0 1 530.260468139648 196.210131164551)" font-family="Gulim" font-size="67">P</text>
<text transform="matrix(1 0 0 1 582.167491394043 196.210131164551)" font-family="Gulim" font-size="67">l</text>
<text transform="matrix(1 0 0 1 605.997551269531 196.210131164551)" font-family="Gulim" font-size="67">a</text>
<text transform="matrix(1 0 0 1 647.208518737793 196.210131164551)" font-family="Gulim" font-size="67">y</text>
<text transform="matrix(1 0 0 1 381.636297210693 283.573620117187)" font-family="Gulim" font-size="17">T</text>
<text transform="matrix(1 0 0 1 391.413393341064 283.573620117187)" font-family="Gulim" font-size="17">o</text>
<text transform="matrix(1 0 0 1 403.629861572266 283.573620117187)" font-family="Gulim" font-size="17">d</text>
<text transform="matrix(1 0 0 1 416.197601013184 283.573620117187)" font-family="Gulim" font-size="17">a</text>
<text transform="matrix(1 0 0 1 426.716251617432 283.573620117187)" font-family="Gulim" font-size="17">y</text>
<text transform="matrix(1 0 0 1 437.859420532227 283.573620117187)" font-family="Gulim" font-size="17"> </text>
<text transform="matrix(1 0 0 1 445.665451934814 283.573620117187)" font-family="Gulim" font-size="17">i</text>
<text transform="matrix(1 0 0 1 450.407633605957 283.573620117187)" font-family="Gulim" font-size="17">s</text>
<text transform="matrix(1 0 0 1 459.735867370605 283.573620117187)" font-family="Gulim" font-size="17"> </text>
<text transform="matrix(1 0 0 1 467.541898773193 283.573620117187)" font-family="Gulim" font-size="17">c</text>
<text transform="matrix(1 0 0 1 478.002010955811 283.573620117187)" font-family="Gulim" font-size="17">o</text>
<text transform="matrix(1 0 0 1 490.218479187012 283.573620117187)" font-family="Gulim" font-size="17">l</text>
<text transform="matrix(1 0 0 1 494.960660858154 283.573620117187)" font-family="Gulim" font-size="17">d</text>
<text transform="matrix(1 0 0 1 507.528400299072 283.573620117187)" font-family="Gulim" font-size="17">!</text>
<text transform="matrix(1 0 0 1 512.426711547852 283.573620117187)" font-family="Gulim" font-size="17"> </text>
<text transform="matrix(1 0 0 1 520.232742950439 283.573620117187)" font-family="Gulim" font-size="17">B</text>
<text transform="matrix(1 0 0 1 533.932360809326 283.573620117187)" font-family="Gulim" font-size="17">r</text>
<text transform="matrix(1 0 0 1 541.44570010376 283.573620117187)" font-family="Gulim" font-size="17">r</text>
<text transform="matrix(1 0 0 1 548.959039398193 283.573620117187)" font-family="Gulim" font-size="17">r</text>
<text transform="matrix(1 0 0 1 556.472378692627 283.573620117187)" font-family="Gulim" font-size="17">!</text>
<text transform="matrix(1 0 0 1 561.370689941406 283.573620117187)" font-family="Gulim" font-size="17"> </text>
<text transform="matrix(1 0 0 1 381.636297210693 315.565620117188)" font-family="Gulim" font-size="17">T</text>
<text transform="matrix(1 0 0 1 393.599085388184 315.565620117188)" font-family="Gulim" font-size="17">h</text>
<text transform="matrix(1 0 0 1 405.230128723145 315.565620117188)" font-family="Gulim" font-size="17">e</text>
<text transform="matrix(1 0 0 1 416.392783325195 315.565620117188)" font-family="Gulim" font-size="17">r</text>
<text transform="matrix(1 0 0 1 423.476786621094 315.565620117188)" font-family="Gulim" font-size="17">e</text>
<text transform="matrix(1 0 0 1 434.639441223145 315.565620117188)" font-family="Gulim" font-size="17"> </text>
<text transform="matrix(1 0 0 1 442.445472625732 315.565620117188)" font-family="Gulim" font-size="17">i</text>
<text transform="matrix(1 0 0 1 447.187654296875 315.565620117188)" font-family="Gulim" font-size="17">s</text>
<text transform="matrix(1 0 0 1 456.515888061523 315.565620117188)" font-family="Gulim" font-size="17"> </text>
<text transform="matrix(1 0 0 1 464.321919464111 315.565620117188)" font-family="Gulim" font-size="17">w</text>
<text transform="matrix(1 0 0 1 480.734156524658 315.565620117188)" font-family="Gulim" font-size="17">h</text>
<text transform="matrix(1 0 0 1 492.365199859619 315.565620117188)" font-family="Gulim" font-size="17">i</text>
<text transform="matrix(1 0 0 1 497.107381530762 315.565620117188)" font-family="Gulim" font-size="17">t</text>
<text transform="matrix(1 0 0 1 504.308461669922 315.565620117188)" font-family="Gulim" font-size="17">e</text>
<text transform="matrix(1 0 0 1 515.471116271973 315.565620117188)" font-family="Gulim" font-size="17"> </text>
<text transform="matrix(1 0 0 1 523.277147674561 315.565620117188)" font-family="Gulim" font-size="17">s</text>
<text transform="matrix(1 0 0 1 532.605381439209 315.565620117188)" font-family="Gulim" font-size="17">n</text>
<text transform="matrix(1 0 0 1 544.23642477417 315.565620117188)" font-family="Gulim" font-size="17">o</text>
<text transform="matrix(1 0 0 1 555.964977905273 315.565620117188)" font-family="Gulim" font-size="17">w</text>
<text transform="matrix(1 0 0 1 571.011142181397 315.565620117188)" font-family="Gulim" font-size="17">.</text>
<text transform="matrix(1 0 0 1 381.636297210693 362.679164306641)" font-family="Gulim" font-size="17">M</text>
<text transform="matrix(1 0 0 1 398.185137481689 362.679164306641)" font-family="Gulim" font-size="17">y</text>
<text transform="matrix(1 0 0 1 409.328306396484 362.679164306641)" font-family="Gulim" font-size="17"> </text>
<text transform="matrix(1 0 0 1 417.134337799072 362.679164306641)" font-family="Gulim" font-size="17">d</text>
<text transform="matrix(1 0 0 1 429.70207723999 362.679164306641)" font-family="Gulim" font-size="17">a</text>
<text transform="matrix(1 0 0 1 440.61105178833 362.679164306641)" font-family="Gulim" font-size="17">d</text>
<text transform="matrix(1 0 0 1 453.178791229248 362.679164306641)" font-family="Gulim" font-size="17"> </text>
<text transform="matrix(1 0 0 1 460.984822631836 362.679164306641)" font-family="Gulim" font-size="17">a</text>
<text transform="matrix(1 0 0 1 471.893797180176 362.679164306641)" font-family="Gulim" font-size="17">n</text>
<text transform="matrix(1 0 0 1 483.524840515137 362.679164306641)" font-family="Gulim" font-size="17">d</text>
<text transform="matrix(1 0 0 1 496.092579956055 362.679164306641)" font-family="Gulim" font-size="17"> </text>
<text transform="matrix(1 0 0 1 503.898529998779 362.74311315918)" font-family="Gulim" font-size="19">I</text>
<text transform="matrix(1 0 0 1 508.796841247559 362.679164306641)" font-family="Gulim" font-size="17"> </text>
<text transform="matrix(1 0 0 1 516.602872650146 362.679164306641)" font-family="Gulim" font-size="17">p</text>
<text transform="matrix(1 0 0 1 529.170612091064 362.679164306641)" font-family="Gulim" font-size="17">l</text>
<text transform="matrix(1 0 0 1 533.912793762207 362.679164306641)" font-family="Gulim" font-size="17">a</text>
<text transform="matrix(1 0 0 1 544.431444366455 362.679164306641)" font-family="Gulim" font-size="17">y</text>
<text transform="matrix(1 0 0 1 555.57461328125 362.679164306641)" font-family="Gulim" font-size="17"> </text>
<text transform="matrix(1 0 0 1 563.380644683838 362.679164306641)" font-family="Gulim" font-size="17">o</text>
<text transform="matrix(1 0 0 1 575.597112915039 362.679164306641)" font-family="Gulim" font-size="17">u</text>
<text transform="matrix(1 0 0 1 587.22815625 362.679164306641)" font-family="Gulim" font-size="17">t</text>
<text transform="matrix(1 0 0 1 594.721969177246 362.679164306641)" font-family="Gulim" font-size="17">s</text>
<text transform="matrix(1 0 0 1 604.050202941895 362.679164306641)" font-family="Gulim" font-size="17">i</text>
<text transform="matrix(1 0 0 1 608.792384613037 362.679164306641)" font-family="Gulim" font-size="17">d</text>
<text transform="matrix(1 0 0 1 621.360124053955 362.679164306641)" font-family="Gulim" font-size="17">e</text>
<text transform="matrix(1 0 0 1 632.327596343994 362.679164306641)" font-family="Gulim" font-size="17">.</text>
<text transform="matrix(1 0 0 1 636.71850680542 362.679164306641)" font-family="Gulim" font-size="17"> </text>
<text transform="matrix(1 0 0 1 381.636337890625 394.671164306641)" font-family="Gulim" font-size="17">W</text>
<text transform="matrix(1 0 0 1 401.580813415527 394.671164306641)" font-family="Gulim" font-size="17">e</text>
<text transform="matrix(1 0 0 1 412.743468017578 394.671164306641)" font-family="Gulim" font-size="17"> </text>
<text transform="matrix(1 0 0 1 420.549499420166 394.671164306641)" font-family="Gulim" font-size="17">t</text>
<text transform="matrix(1 0 0 1 428.043312347412 394.671164306641)" font-family="Gulim" font-size="17">h</text>
<text transform="matrix(1 0 0 1 439.674355682373 394.671164306641)" font-family="Gulim" font-size="17">r</text>
<text transform="matrix(1 0 0 1 446.758358978271 394.671164306641)" font-family="Gulim" font-size="17">o</text>
<text transform="matrix(1 0 0 1 458.486912109375 394.671164306641)" font-family="Gulim" font-size="17">w</text>
<text transform="matrix(1 0 0 1 474.899149169922 394.671164306641)" font-family="Gulim" font-size="17"> </text>
<text transform="matrix(1 0 0 1 482.70518057251 394.671164306641)" font-family="Gulim" font-size="17">s</text>
<text transform="matrix(1 0 0 1 492.033414337158 394.671164306641)" font-family="Gulim" font-size="17">n</text>
<text transform="matrix(1 0 0 1 503.664457672119 394.671164306641)" font-family="Gulim" font-size="17">o</text>
<text transform="matrix(1 0 0 1 515.393010803223 394.671164306641)" font-family="Gulim" font-size="17">w</text>
<text transform="matrix(1 0 0 1 531.80524786377 394.671164306641)" font-family="Gulim" font-size="17">b</text>
<text transform="matrix(1 0 0 1 544.372987304688 394.671164306641)" font-family="Gulim" font-size="17">a</text>
<text transform="matrix(1 0 0 1 555.281961853027 394.671164306641)" font-family="Gulim" font-size="17">l</text>
<text transform="matrix(1 0 0 1 560.02414352417 394.671164306641)" font-family="Gulim" font-size="17">l</text>
<text transform="matrix(1 0 0 1 564.766325195312 394.671164306641)" font-family="Gulim" font-size="17">s</text>
<text transform="matrix(1 0 0 1 574.094558959961 394.671164306641)" font-family="Gulim" font-size="17">.</text>
<text transform="matrix(1 0 0 1 411.864903533936 737.281697937012)" font-family="Gulim" font-size="17">M</text>
<text transform="matrix(1 0 0 1 428.413743804932 737.281697937012)" font-family="Gulim" font-size="17">y</text>
<text transform="matrix(1 0 0 1 439.556912719727 737.281697937012)" font-family="Gulim" font-size="17"> </text>
<text transform="matrix(1 0 0 1 447.362944122314 737.281697937012)" font-family="Gulim" font-size="17">d</text>
<text transform="matrix(1 0 0 1 459.930683563232 737.281697937012)" font-family="Gulim" font-size="17">a</text>
<text transform="matrix(1 0 0 1 470.839658111572 737.281697937012)" font-family="Gulim" font-size="17">d</text>
<text transform="matrix(1 0 0 1 483.40739755249 737.281697937012)" font-family="Gulim" font-size="17"> </text>
<text transform="matrix(1 0 0 1 491.213428955078 737.281697937012)" font-family="Gulim" font-size="17">m</text>
<text transform="matrix(1 0 0 1 509.382022064209 737.281697937012)" font-family="Gulim" font-size="17">a</text>
<text transform="matrix(1 0 0 1 520.290996612549 737.281697937012)" font-family="Gulim" font-size="17">k</text>
<text transform="matrix(1 0 0 1 530.516914428711 737.281697937012)" font-family="Gulim" font-size="17">e</text>
<text transform="matrix(1 0 0 1 541.679569030762 737.281697937012)" font-family="Gulim" font-size="17">s</text>
<text transform="matrix(1 0 0 1 551.00780279541 737.281697937012)" font-family="Gulim" font-size="17"> </text>
<text transform="matrix(1 0 0 1 558.813834197998 737.281697937012)" font-family="Gulim" font-size="17">a</text>
<text transform="matrix(1 0 0 1 569.722808746338 737.281697937012)" font-family="Gulim" font-size="17"> </text>
<text transform="matrix(1 0 0 1 577.528840148926 737.281697937012)" font-family="Gulim" font-size="17">s</text>
<text transform="matrix(1 0 0 1 586.857073913574 737.281697937012)" font-family="Gulim" font-size="17">n</text>
<text transform="matrix(1 0 0 1 598.488117248535 737.281697937012)" font-family="Gulim" font-size="17">o</text>
<text transform="matrix(1 0 0 1 610.216670379639 737.281697937012)" font-family="Gulim" font-size="17">w</text>
<text transform="matrix(1 0 0 1 626.628907440186 737.281697937012)" font-family="Gulim" font-size="17">b</text>
<text transform="matrix(1 0 0 1 639.196646881103 737.281697937012)" font-family="Gulim" font-size="17">a</text>
<text transform="matrix(1 0 0 1 650.105580749512 737.281697937012)" font-family="Gulim" font-size="17">l</text>
<text transform="matrix(1 0 0 1 654.847803100586 737.281697937012)" font-family="Gulim" font-size="17">l</text>
<text transform="matrix(1 0 0 1 659.59002545166 737.281697937012)" font-family="Gulim" font-size="17">.</text>
<text transform="matrix(1 0 0 1 663.980935913086 737.281697937012)" font-family="Gulim" font-size="17"> </text>
<text transform="matrix(1 0 0 1 411.864903533936 769.337646789551)" font-family="Gulim" font-size="19">I</text>
<text transform="matrix(1 0 0 1 416.763214782715 769.273697937012)" font-family="Gulim" font-size="17">t</text>
<text transform="matrix(1 0 0 1 424.257027709961 769.273697937012)" font-family="Gulim" font-size="17"> </text>
<text transform="matrix(1 0 0 1 432.063059112549 769.273697937012)" font-family="Gulim" font-size="17">i</text>
<text transform="matrix(1 0 0 1 436.805240783691 769.273697937012)" font-family="Gulim" font-size="17">s</text>
<text transform="matrix(1 0 0 1 446.13347454834 769.273697937012)" font-family="Gulim" font-size="17"> </text>
<text transform="matrix(1 0 0 1 453.939505950928 769.273697937012)" font-family="Gulim" font-size="17">a</text>
<text transform="matrix(1 0 0 1 464.848480499268 769.273697937012)" font-family="Gulim" font-size="17"> </text>
<text transform="matrix(1 0 0 1 472.654511901855 769.273697937012)" font-family="Gulim" font-size="17">w</text>
<text transform="matrix(1 0 0 1 489.066748962402 769.273697937012)" font-family="Gulim" font-size="17">h</text>
<text transform="matrix(1 0 0 1 500.697792297363 769.273697937012)" font-family="Gulim" font-size="17">i</text>
<text transform="matrix(1 0 0 1 505.439973968506 769.273697937012)" font-family="Gulim" font-size="17">t</text>
<text transform="matrix(1 0 0 1 512.641054107666 769.273697937012)" font-family="Gulim" font-size="17">e</text>
<text transform="matrix(1 0 0 1 523.803708709717 769.273697937012)" font-family="Gulim" font-size="17"> </text>
<text transform="matrix(1 0 0 1 531.609740112305 769.273697937012)" font-family="Gulim" font-size="17">b</text>
<text transform="matrix(1 0 0 1 544.177479553223 769.273697937012)" font-family="Gulim" font-size="17">a</text>
<text transform="matrix(1 0 0 1 555.086454101562 769.273697937012)" font-family="Gulim" font-size="17">l</text>
<text transform="matrix(1 0 0 1 559.828635772705 769.273697937012)" font-family="Gulim" font-size="17">l</text>
<text transform="matrix(1 0 0 1 564.570817443848 769.273697937012)" font-family="Gulim" font-size="17">.</text>
<text transform="matrix(1 0 0 1 411.864903533936 801.265697937012)" font-family="Gulim" font-size="17">H</text>
<text transform="matrix(1 0 0 1 426.306116546631 801.265697937012)" font-family="Gulim" font-size="17">e</text>
<text transform="matrix(1 0 0 1 437.468771148682 801.265697937012)" font-family="Gulim" font-size="17"> </text>
<text transform="matrix(1 0 0 1 445.27480255127 801.265697937012)" font-family="Gulim" font-size="17">t</text>
<text transform="matrix(1 0 0 1 452.768615478516 801.265697937012)" font-family="Gulim" font-size="17">h</text>
<text transform="matrix(1 0 0 1 464.399658813477 801.265697937012)" font-family="Gulim" font-size="17">r</text>
<text transform="matrix(1 0 0 1 471.483662109375 801.265697937012)" font-family="Gulim" font-size="17">o</text>
<text transform="matrix(1 0 0 1 483.212215240478 801.265697937012)" font-family="Gulim" font-size="17">w</text>
<text transform="matrix(1 0 0 1 499.331719512939 801.265697937012)" font-family="Gulim" font-size="17">s</text>
<text transform="matrix(1 0 0 1 508.659953277588 801.265697937012)" font-family="Gulim" font-size="17"> </text>
<text transform="matrix(1 0 0 1 516.465984680176 801.265697937012)" font-family="Gulim" font-size="17">t</text>
<text transform="matrix(1 0 0 1 523.959797607422 801.265697937012)" font-family="Gulim" font-size="17">h</text>
<text transform="matrix(1 0 0 1 535.590840942383 801.265697937012)" font-family="Gulim" font-size="17">e</text>
<text transform="matrix(1 0 0 1 546.753495544434 801.265697937012)" font-family="Gulim" font-size="17"> </text>
<text transform="matrix(1 0 0 1 554.559526947021 801.265697937012)" font-family="Gulim" font-size="17">s</text>
<text transform="matrix(1 0 0 1 563.88776071167 801.265697937012)" font-family="Gulim" font-size="17">n</text>
<text transform="matrix(1 0 0 1 575.518804046631 801.265697937012)" font-family="Gulim" font-size="17">o</text>
<text transform="matrix(1 0 0 1 587.247357177734 801.265697937012)" font-family="Gulim" font-size="17">w</text>
<text transform="matrix(1 0 0 1 603.659594238281 801.265697937012)" font-family="Gulim" font-size="17">b</text>
<text transform="matrix(1 0 0 1 616.227333679199 801.265697937012)" font-family="Gulim" font-size="17">a</text>
<text transform="matrix(1 0 0 1 627.136308227539 801.265697937012)" font-family="Gulim" font-size="17">l</text>
<text transform="matrix(1 0 0 1 631.878489898682 801.265697937012)" font-family="Gulim" font-size="17">l</text>
<text transform="matrix(1 0 0 1 636.620671569824 801.265697937012)" font-family="Gulim" font-size="17">!</text>
<text transform="matrix(1 0 0 1 641.519023498535 801.265697937012)" font-family="Gulim" font-size="17"> </text>
<text transform="matrix(1 0 0 1 411.864903533936 833.321646789551)" font-family="Gulim" font-size="19">I</text>
<text transform="matrix(1 0 0 1 416.763214782715 833.257697937012)" font-family="Gulim" font-size="17">t</text>
<text transform="matrix(1 0 0 1 424.257027709961 833.257697937012)" font-family="Gulim" font-size="17"> </text>
<text transform="matrix(1 0 0 1 432.063059112549 833.257697937012)" font-family="Gulim" font-size="17">h</text>
<text transform="matrix(1 0 0 1 443.69410244751 833.257697937012)" font-family="Gulim" font-size="17">i</text>
<text transform="matrix(1 0 0 1 448.436284118652 833.257697937012)" font-family="Gulim" font-size="17">t</text>
<text transform="matrix(1 0 0 1 455.930097045898 833.257697937012)" font-family="Gulim" font-size="17">s</text>
<text transform="matrix(1 0 0 1 465.258330810547 833.257697937012)" font-family="Gulim" font-size="17"> </text>
<text transform="matrix(1 0 0 1 473.064362213135 833.257697937012)" font-family="Gulim" font-size="17">m</text>
<text transform="matrix(1 0 0 1 491.232955322266 833.257697937012)" font-family="Gulim" font-size="17">e</text>
<text transform="matrix(1 0 0 1 502.395609924316 833.257697937012)" font-family="Gulim" font-size="17">!</text>
<text transform="matrix(1 0 0 1 411.864903533936 865.313646789551)" font-family="Gulim" font-size="19">I</text>
<text transform="matrix(1 0 0 1 416.763214782715 865.249697937012)" font-family="Gulim" font-size="17">t</text>
<text transform="matrix(1 0 0 1 424.257027709961 865.249697937012)" font-family="Gulim" font-size="17"> </text>
<text transform="matrix(1 0 0 1 432.063059112549 865.249697937012)" font-family="Gulim" font-size="17">d</text>
<text transform="matrix(1 0 0 1 444.630798553467 865.249697937012)" font-family="Gulim" font-size="17">o</text>
<text transform="matrix(1 0 0 1 456.847266784668 865.249697937012)" font-family="Gulim" font-size="17">e</text>
<text transform="matrix(1 0 0 1 468.009921386719 865.249697937012)" font-family="Gulim" font-size="17">s</text>
<text transform="matrix(1 0 0 1 477.338155151367 865.249697937012)" font-family="Gulim" font-size="17">n</text>
<text transform="matrix(1 0 0 1 488.969198486328 865.249697937012)" font-family="Gulim" font-size="17">’</text>
<text transform="matrix(1 0 0 1 493.360108947754 865.249697937012)" font-family="Gulim" font-size="17">t</text>
<text transform="matrix(1 0 0 1 500.853921875 865.249697937012)" font-family="Gulim" font-size="17"> </text>
<text transform="matrix(1 0 0 1 508.659953277588 865.249697937012)" font-family="Gulim" font-size="17">h</text>
<text transform="matrix(1 0 0 1 520.290996612549 865.249697937012)" font-family="Gulim" font-size="17">u</text>
<text transform="matrix(1 0 0 1 531.92203994751 865.249697937012)" font-family="Gulim" font-size="17">r</text>
<text transform="matrix(1 0 0 1 539.435379241943 865.249697937012)" font-family="Gulim" font-size="17">t</text>
<text transform="matrix(1 0 0 1 546.929192169189 865.249697937012)" font-family="Gulim" font-size="17"> </text>
<text transform="matrix(1 0 0 1 554.735223571777 865.249697937012)" font-family="Gulim" font-size="17">m</text>
<text transform="matrix(1 0 0 1 572.903816680908 865.249697937012)" font-family="Gulim" font-size="17">e</text>
<text transform="matrix(1 0 0 1 583.871288970947 865.249697937012)" font-family="Gulim" font-size="17">.</text>
<text transform="matrix(1 0 0 1 588.262199432373 865.249697937012)" font-family="Gulim" font-size="17"> </text>
<text transform="matrix(1 0 0 1 411.864903533936 897.241697937012)" font-family="Gulim" font-size="17">T</text>
<text transform="matrix(1 0 0 1 423.827691711426 897.241697937012)" font-family="Gulim" font-size="17">h</text>
<text transform="matrix(1 0 0 1 435.458735046387 897.241697937012)" font-family="Gulim" font-size="17">e</text>
<text transform="matrix(1 0 0 1 446.621389648438 897.241697937012)" font-family="Gulim" font-size="17"> </text>
<text transform="matrix(1 0 0 1 454.427421051025 897.241697937012)" font-family="Gulim" font-size="17">s</text>
<text transform="matrix(1 0 0 1 463.755654815674 897.241697937012)" font-family="Gulim" font-size="17">n</text>
<text transform="matrix(1 0 0 1 475.386698150635 897.241697937012)" font-family="Gulim" font-size="17">o</text>
<text transform="matrix(1 0 0 1 487.115251281738 897.241697937012)" font-family="Gulim" font-size="17">w</text>
<text transform="matrix(1 0 0 1 503.527488342285 897.241697937012)" font-family="Gulim" font-size="17">b</text>
<text transform="matrix(1 0 0 1 516.095227783203 897.241697937012)" font-family="Gulim" font-size="17">a</text>
<text transform="matrix(1 0 0 1 527.004202331543 897.241697937012)" font-family="Gulim" font-size="17">l</text>
<text transform="matrix(1 0 0 1 531.746384002686 897.241697937012)" font-family="Gulim" font-size="17">l</text>
<text transform="matrix(1 0 0 1 536.488565673828 897.241697937012)" font-family="Gulim" font-size="17"> </text>
<text transform="matrix(1 0 0 1 544.294597076416 897.241697937012)" font-family="Gulim" font-size="17">i</text>
<text transform="matrix(1 0 0 1 549.036778747559 897.241697937012)" font-family="Gulim" font-size="17">s</text>
<text transform="matrix(1 0 0 1 558.365012512207 897.241697937012)" font-family="Gulim" font-size="17"> </text>
<text transform="matrix(1 0 0 1 566.171043914795 897.241697937012)" font-family="Gulim" font-size="17">s</text>
<text transform="matrix(1 0 0 1 575.499277679443 897.241697937012)" font-family="Gulim" font-size="17">o</text>
<text transform="matrix(1 0 0 1 587.715745910645 897.241697937012)" font-family="Gulim" font-size="17">f</text>
<text transform="matrix(1 0 0 1 595.072955627441 897.241697937012)" font-family="Gulim" font-size="17">t</text>
<text transform="matrix(1 0 0 1 602.566768554687 897.241697937012)" font-family="Gulim" font-size="17"> </text>
<text transform="matrix(1 0 0 1 610.372799957275 897.241697937012)" font-family="Gulim" font-size="17">a</text>
<text transform="matrix(1 0 0 1 621.281774505615 897.241697937012)" font-family="Gulim" font-size="17">n</text>
<text transform="matrix(1 0 0 1 632.912817840576 897.241697937012)" font-family="Gulim" font-size="17">d</text>
<text transform="matrix(1 0 0 1 645.480597961426 897.241697937012)" font-family="Gulim" font-size="17"> </text>
<text transform="matrix(1 0 0 1 653.286670043945 897.241697937012)" font-family="Gulim" font-size="17">i</text>
<text transform="matrix(1 0 0 1 658.02889239502 897.241697937012)" font-family="Gulim" font-size="17">t</text>
<text transform="matrix(1 0 0 1 665.522705322266 897.241697937012)" font-family="Gulim" font-size="17"> </text>
<text transform="matrix(1 0 0 1 673.328777404785 897.241697937012)" font-family="Gulim" font-size="17">b</text>
<text transform="matrix(1 0 0 1 685.896516845703 897.241697937012)" font-family="Gulim" font-size="17">r</text>
<text transform="matrix(1 0 0 1 692.980520141602 897.241697937012)" font-family="Gulim" font-size="17">e</text>
<text transform="matrix(1 0 0 1 704.143174743652 897.241697937012)" font-family="Gulim" font-size="17">a</text>
<text transform="matrix(1 0 0 1 715.052149291992 897.241697937012)" font-family="Gulim" font-size="17">k</text>
<text transform="matrix(1 0 0 1 725.76594152832 897.241697937012)" font-family="Gulim" font-size="17">s</text>
<text transform="matrix(1 0 0 1 735.094175292969 897.241697937012)" font-family="Gulim" font-size="17">.</text>
<text transform="matrix(1 0 0 1 337.59675239563 280.398795532227)" font-family="Gulim" font-size="9">0</text>
<text transform="matrix(1 0 0 1 343.41933203125 280.398795532227)" font-family="Gulim" font-size="9">3</text>
<text transform="matrix(1 0 0 1 63.6060936050415 254.82145123291)" font-family="Gulim" font-size="20">L</text>
<text transform="matrix(1 0 0 1 76.948826423645 254.82145123291)" font-family="Gulim" font-size="20">e</text>
<text transform="matrix(1 0 0 1 89.169505027771 254.82145123291)" font-family="Gulim" font-size="20">t</text>
<text transform="matrix(1 0 0 1 98.3898962936401 254.82145123291)" font-family="Gulim" font-size="20">’</text>
<text transform="matrix(1 0 0 1 105.146639709473 254.82145123291)" font-family="Gulim" font-size="20">s</text>
<text transform="matrix(1 0 0 1 113.830391487122 254.82145123291)" font-family="Gulim" font-size="20"> </text>
<text transform="matrix(1 0 0 1 119.928536979675 254.82145123291)" font-family="Gulim" font-size="20">S</text>
<text transform="matrix(1 0 0 1 130.027065589905 254.82145123291)" font-family="Gulim" font-size="20">t</text>
<text transform="matrix(1 0 0 1 139.247456855774 254.82145123291)" font-family="Gulim" font-size="20">a</text>
<text transform="matrix(1 0 0 1 153.590285453796 254.82145123291)" font-family="Gulim" font-size="20">r</text>
<text transform="matrix(1 0 0 1 163.347326377869 254.82145123291)" font-family="Gulim" font-size="20">t</text>
<text transform="matrix(1 0 0 1 51.5900350570679 1020.3049185791)" font-family="Gulim" font-size="11">6</text>
<text transform="matrix(1 0 0 1 28.4436853351593 1102.90421801758)" font-family="Gulim" font-size="7">1</text>
<text transform="matrix(1 0 0 1 33.0345376605988 1102.90421801758)" font-family="Gulim" font-size="7">0</text>
<text transform="matrix(1 0 0 1 37.6253899860382 1102.90421801758)" font-family="Gulim" font-size="7">0</text>
<text transform="matrix(1 0 0 1 42.2162423114777 1102.90421801758)" font-family="Gulim" font-size="7">-</text>
<text transform="matrix(1 0 0 1 47.2149897689819 1102.90421801758)" font-family="Gulim" font-size="7">L</text>
<text transform="matrix(1 0 0 1 51.5579080810547 1102.90421801758)" font-family="Gulim" font-size="7">1</text>
<text transform="matrix(1 0 0 1 56.1487604064941 1102.90421801758)" font-family="Gulim" font-size="7">_</text>
<text transform="matrix(1 0 0 1 60.1477604064941 1102.90421801758)" font-family="Gulim" font-size="7">최</text>
<text transform="matrix(1 0 0 1 68.1457604064941 1102.90421801758)" font-family="Gulim" font-size="7">종</text>
<text transform="matrix(1 0 0 1 76.1437604064941 1102.90421801758)" font-family="Gulim" font-size="7">.</text>
<text transform="matrix(1 0 0 1 78.8150894775391 1102.90421801758)" font-family="Gulim" font-size="7">i</text>
<text transform="matrix(1 0 0 1 80.742606338501 1102.90421801758)" font-family="Gulim" font-size="7">n</text>
<text transform="matrix(1 0 0 1 85.3814508132935 1102.90421801758)" font-family="Gulim" font-size="7">d</text>
<text transform="matrix(1 0 0 1 90.2202371520996 1102.90421801758)" font-family="Gulim" font-size="7">d</text>
<text transform="matrix(1 0 0 1 95.0590234909058 1102.90421801758)" font-family="Gulim" font-size="7"> </text>
<text transform="matrix(1 0 0 1 97.7223589553833 1102.90421801758)" font-family="Gulim" font-size="7"> </text>
<text transform="matrix(1 0 0 1 100.385694419861 1102.90421801758)" font-family="Gulim" font-size="7"> </text>
<text transform="matrix(1 0 0 1 103.049029884338 1102.90421801758)" font-family="Gulim" font-size="7">6</text>
<text transform="matrix(1 0 0 1 716.639073425293 1102.90421801758)" font-family="Gulim" font-size="7">2</text>
<text transform="matrix(1 0 0 1 721.229885070801 1102.90421801758)" font-family="Gulim" font-size="7">0</text>
<text transform="matrix(1 0 0 1 725.820696716309 1102.90421801758)" font-family="Gulim" font-size="7">1</text>
<text transform="matrix(1 0 0 1 730.411508361816 1102.90421801758)" font-family="Gulim" font-size="7">2</text>
<text transform="matrix(1 0 0 1 735.002320007324 1102.90421801758)" font-family="Gulim" font-size="7">-</text>
<text transform="matrix(1 0 0 1 740.001070007324 1102.90421801758)" font-family="Gulim" font-size="7">0</text>
<text transform="matrix(1 0 0 1 744.591881652832 1102.90421801758)" font-family="Gulim" font-size="7">6</text>
<text transform="matrix(1 0 0 1 749.18269329834 1102.90421801758)" font-family="Gulim" font-size="7">-</text>
<text transform="matrix(1 0 0 1 754.18144329834 1102.90421801758)" font-family="Gulim" font-size="7">0</text>
<text transform="matrix(1 0 0 1 758.772254943848 1102.90421801758)" font-family="Gulim" font-size="7">7</text>
<text transform="matrix(1 0 0 1 763.363066589355 1102.90421801758)" font-family="Gulim" font-size="7"> </text>
<text transform="matrix(1 0 0 1 766.026381713867 1102.90421801758)" font-family="Gulim" font-size="7"> </text>
<text transform="matrix(1 0 0 1 768.689696838379 1102.90421801758)" font-family="Gulim" font-size="7"> </text>
<text transform="matrix(1 0 0 1 771.353011962891 1102.90421801758)" font-family="Gulim" font-size="7">오</text>
<text transform="matrix(1 0 0 1 779.351011962891 1102.90421801758)" font-family="Gulim" font-size="7">후</text>
<text transform="matrix(1 0 0 1 787.349011962891 1102.90421801758)" font-family="Gulim" font-size="7"> </text>
<text transform="matrix(1 0 0 1 790.012327087402 1102.90421801758)" font-family="Gulim" font-size="7">4</text>
<text transform="matrix(1 0 0 1 794.60313873291 1102.90421801758)" font-family="Gulim" font-size="7">:</text>
<text transform="matrix(1 0 0 1 797.274508483887 1102.90421801758)" font-family="Gulim" font-size="7">4</text>
<text transform="matrix(1 0 0 1 801.865320129394 1102.90421801758)" font-family="Gulim" font-size="7">5</text>
<text transform="matrix(1 0 0 1 806.456131774902 1102.90421801758)" font-family="Gulim" font-size="7">:</text>
<text transform="matrix(1 0 0 1 809.127501525879 1102.90421801758)" font-family="Gulim" font-size="7">5</text>
<text transform="matrix(1 0 0 1 813.718313171387 1102.90421801758)" font-family="Gulim" font-size="7">3</text>
</svg>