<?xml version="1.0" encoding="utf-8"?>
<svg xmlns="http://www.w3.org/2000/svg" xmlns:xlink="http://www.w3.org/1999/xlink" width="812" height="1056" viewBox="0 0 812 1056" version="1.2" >
<text transform="matrix(1 0 0 1 765.74129675293 1020.3049185791)" font-family="Gulim" font-size="11">7</text>
<text transform="matrix(1 0 0 1 709.414643005371 1020.39205499268)" font-family="Gulim" font-size="11">U</text>
<text transform="matrix(1 0 0 1 717.260662780762 1020.39205499268)" font-family="Gulim" font-size="11">n</text>
<text transform="matrix(1 0 0 1 723.846987792969 1020.39205499268)" font-family="Gulim" font-size="11">i</text>
<text transform="matrix(1 0 0 1 727.026205810547 1020.39205499268)" font-family="Gulim" font-size="11">t</text>
<text transform="matrix(1 0 0 1 731.24918951416 1020.39205499268)" font-family="Gulim" font-size="11"> </text>
<text transform="matrix(1 0 0 1 734.24843951416 1020.39205499268)" font-family="Gulim" font-size="11">0</text>
<text transform="matrix(1 0 0 1 741.122697082519 1020.39205499268)" font-family="Gulim" font-size="11">1</text>
<text transform="matrix(1 0 0 1 571.037746856689 157.088159545898)" font-family="Gulim" font-size="18">b</text>
<text transform="matrix(1 0 0 1 582.192306152344 157.088159545898)" font-family="Gulim" font-size="18">r</text>
<text transform="matrix(1 0 0 1 589.230544525146 157.088159545898)" font-family="Gulim" font-size="18">e</text>
<text transform="matrix(1 0 0 1 599.659943359375 157.088159545898)" font-family="Gulim" font-size="18">a</text>
<text transform="matrix(1 0 0 1 610.089342193603 157.088159545898)" font-family="Gulim" font-size="18">k</text>
<text transform="matrix(1 0 0 1 620.134803833008 157.088159545898)" font-family="Gulim" font-size="18"> </text>
<text transform="matrix(1 0 0 1 665.499436401367 157.088159545898)" font-family="Gulim" font-size="18">s</text>
<text transform="matrix(1 0 0 1 674.713196838379 157.088159545898)" font-family="Gulim" font-size="18">n</text>
<text transform="matrix(1 0 0 1 685.739817749023 157.088159545898)" font-family="Gulim" font-size="18">o</text>
<text transform="matrix(1 0 0 1 696.425134033203 157.088159545898)" font-family="Gulim" font-size="18">w</text>
<text transform="matrix(1 0 0 1 711.610708435059 157.088159545898)" font-family="Gulim" font-size="18">b</text>
<text transform="matrix(1 0 0 1 722.765308410644 157.088159545898)" font-family="Gulim" font-size="18">a</text>
<text transform="matrix(1 0 0 1 733.194747924805 157.088159545898)" font-family="Gulim" font-size="18">l</text>
<text transform="matrix(1 0 0 1 738.164208374023 157.088159545898)" font-family="Gulim" font-size="18">l</text>
<text transform="matrix(1 0 0 1 571.037706176758 194.006906066895)" font-family="Gulim" font-size="18">h</text>
<text transform="matrix(1 0 0 1 582.064286407471 194.006906066895)" font-family="Gulim" font-size="18">u</text>
<text transform="matrix(1 0 0 1 593.090866638184 194.006906066895)" font-family="Gulim" font-size="18">r</text>
<text transform="matrix(1 0 0 1 600.704970123291 194.006906066895)" font-family="Gulim" font-size="18">t</text>
<text transform="matrix(1 0 0 1 607.679218963623 194.006906066895)" font-family="Gulim" font-size="18"> </text>
<text transform="matrix(1 0 0 1 665.499436401367 194.006906066895)" font-family="Gulim" font-size="18">o</text>
<text transform="matrix(1 0 0 1 676.526057312012 194.006906066895)" font-family="Gulim" font-size="18">u</text>
<text transform="matrix(1 0 0 1 687.552678222656 194.006906066895)" font-family="Gulim" font-size="18">t</text>
<text transform="matrix(1 0 0 1 694.527008422852 194.006906066895)" font-family="Gulim" font-size="18">s</text>
<text transform="matrix(1 0 0 1 703.740768859863 194.006906066895)" font-family="Gulim" font-size="18">i</text>
<text transform="matrix(1 0 0 1 708.710229309082 194.006906066895)" font-family="Gulim" font-size="18">d</text>
<text transform="matrix(1 0 0 1 719.971410705566 194.006906066895)" font-family="Gulim" font-size="18">e</text>
<text transform="matrix(1 0 0 1 730.400850219727 194.006906066895)" font-family="Gulim" font-size="18"> </text>
<text transform="matrix(1 0 0 1 571.037706176758 230.94696887207)" font-family="Gulim" font-size="18">t</text>
<text transform="matrix(1 0 0 1 578.01195501709 230.94696887207)" font-family="Gulim" font-size="18">h</text>
<text transform="matrix(1 0 0 1 589.038535247803 230.94696887207)" font-family="Gulim" font-size="18">r</text>
<text transform="matrix(1 0 0 1 596.076773620605 230.94696887207)" font-family="Gulim" font-size="18">o</text>
<text transform="matrix(1 0 0 1 606.762130584717 230.94696887207)" font-family="Gulim" font-size="18">w</text>
<text transform="matrix(1 0 0 1 621.947664306641 230.94696887207)" font-family="Gulim" font-size="18"> </text>
<text transform="matrix(1 0 0 1 665.499436401367 230.94696887207)" font-family="Gulim" font-size="18">c</text>
<text transform="matrix(1 0 0 1 675.09705267334 230.94696887207)" font-family="Gulim" font-size="18">o</text>
<text transform="matrix(1 0 0 1 686.123673583984 230.94696887207)" font-family="Gulim" font-size="18">l</text>
<text transform="matrix(1 0 0 1 691.093134033203 230.94696887207)" font-family="Gulim" font-size="18">d</text>
<text transform="matrix(1 0 0 1 170.035615638733 59.7862378540039)" font-family="Gulim" font-size="14">F</text>
<text transform="matrix(1 0 0 1 177.469761276245 59.7862378540039)" font-family="Gulim" font-size="14">i</text>
<text transform="matrix(1 0 0 1 180.017118255615 59.7862378540039)" font-family="Gulim" font-size="14">l</text>
<text transform="matrix(1 0 0 1 182.703112442017 59.7862378540039)" font-family="Gulim" font-size="14">l</text>
<text transform="matrix(1 0 0 1 185.406436279297 59.7862378540039)" font-family="Gulim" font-size="14"> </text>
<text transform="matrix(1 0 0 1 189.548060119629 59.7862378540039)" font-family="Gulim" font-size="14">i</text>
<text transform="matrix(1 0 0 1 192.095417098999 59.7862378540039)" font-family="Gulim" font-size="14">n</text>
<text transform="matrix(1 0 0 1 199.027013031006 59.7862378540039)" font-family="Gulim" font-size="14"> </text>
<text transform="matrix(1 0 0 1 203.168636871338 59.7862378540039)" font-family="Gulim" font-size="14">t</text>
<text transform="matrix(1 0 0 1 208.93918687439 59.7862378540039)" font-family="Gulim" font-size="14">h</text>
<text transform="matrix(1 0 0 1 216.304024078369 59.7862378540039)" font-family="Gulim" font-size="14">e</text>
<text transform="matrix(1 0 0 1 223.738159545898 59.7862378540039)" font-family="Gulim" font-size="14"> </text>
<text transform="matrix(1 0 0 1 227.87978338623 59.7862378540039)" font-family="Gulim" font-size="14">b</text>
<text transform="matrix(1 0 0 1 235.209961288452 59.7862378540039)" font-family="Gulim" font-size="14">l</text>
<text transform="matrix(1 0 0 1 237.913285125732 59.7862378540039)" font-family="Gulim" font-size="14">a</text>
<text transform="matrix(1 0 0 1 245.520717102051 59.7862378540039)" font-family="Gulim" font-size="14">n</text>
<text transform="matrix(1 0 0 1 252.452313034058 59.7862378540039)" font-family="Gulim" font-size="14">k</text>
<text transform="matrix(1 0 0 1 259.470557220459 59.7862378540039)" font-family="Gulim" font-size="14">.</text>
<text transform="matrix(1 0 0 1 170.035615638733 80.8929390258789)" font-family="Gulim" font-size="14">M</text>
<text transform="matrix(1 0 0 1 180.831571166992 80.8929390258789)" font-family="Gulim" font-size="14">y</text>
<text transform="matrix(1 0 0 1 188.127089767456 80.8929390258789)" font-family="Gulim" font-size="14"> </text>
<text transform="matrix(1 0 0 1 192.251383956909 80.8929390258789)" font-family="Gulim" font-size="14">d</text>
<text transform="matrix(1 0 0 1 199.182979888916 80.8929390258789)" font-family="Gulim" font-size="14">a</text>
<text transform="matrix(1 0 0 1 206.773082214355 80.8929390258789)" font-family="Gulim" font-size="14">d</text>
<text transform="matrix(1 0 0 1 213.704678146362 80.8929390258789)" font-family="Gulim" font-size="14"> </text>
<text transform="matrix(1 0 0 1 217.828972335815 80.8929390258789)" font-family="Gulim" font-size="14">a</text>
<text transform="matrix(1 0 0 1 225.419074661255 80.8929390258789)" font-family="Gulim" font-size="14">n</text>
<text transform="matrix(1 0 0 1 232.333340942383 80.8929390258789)" font-family="Gulim" font-size="14">d</text>
<text transform="matrix(1 0 0 1 239.26493687439 80.8929390258789)" font-family="Gulim" font-size="14"> </text>
<text transform="matrix(1 0 0 1 243.389231063843 80.8929390258789)" font-family="Gulim" font-size="14">I</text>
<text transform="matrix(1 0 0 1 247.877447921753 80.8929390258789)" font-family="Gulim" font-size="14"> </text>
<text transform="matrix(1 0 0 1 252.001742111206 80.8929390258789)" font-family="Gulim" font-size="14">p</text>
<text transform="matrix(1 0 0 1 258.898678741455 80.8929390258789)" font-family="Gulim" font-size="14">l</text>
<text transform="matrix(1 0 0 1 261.567343276978 80.8929390258789)" font-family="Gulim" font-size="14">a</text>
<text transform="matrix(1 0 0 1 269.157445602417 80.8929390258789)" font-family="Gulim" font-size="14">y</text>
<text transform="matrix(1 0 0 1 276.452964202881 80.8929390258789)" font-family="Gulim" font-size="14"> </text>
<text transform="matrix(1 0 0 1 394.517638244629 80.8939153442383)" font-family="Gulim" font-size="14"> </text>
<text transform="matrix(1 0 0 1 398.641932434082 80.8939153442383)" font-family="Gulim" font-size="14">w</text>
<text transform="matrix(1 0 0 1 408.051566741943 80.8939153442383)" font-family="Gulim" font-size="14">i</text>
<text transform="matrix(1 0 0 1 410.56424407959 80.8939153442383)" font-family="Gulim" font-size="14">t</text>
<text transform="matrix(1 0 0 1 416.317444091797 80.8939153442383)" font-family="Gulim" font-size="14">h</text>
<text transform="matrix(1 0 0 1 423.664931304932 80.8939153442383)" font-family="Gulim" font-size="14"> </text>
<text transform="matrix(1 0 0 1 427.789225494385 80.8939153442383)" font-family="Gulim" font-size="14">s</text>
<text transform="matrix(1 0 0 1 434.235611541748 80.8939153442383)" font-family="Gulim" font-size="14">n</text>
<text transform="matrix(1 0 0 1 441.14985748291 80.8939153442383)" font-family="Gulim" font-size="14">o</text>
<text transform="matrix(1 0 0 1 448.116092376709 80.8939153442383)" font-family="Gulim" font-size="14">w</text>
<text transform="matrix(1 0 0 1 457.52572668457 80.8939153442383)" font-family="Gulim" font-size="14">b</text>
<text transform="matrix(1 0 0 1 464.821224945068 80.8939153442383)" font-family="Gulim" font-size="14">a</text>
<text transform="matrix(1 0 0 1 472.411327270508 80.8939153442383)" font-family="Gulim" font-size="14">l</text>
<text transform="matrix(1 0 0 1 475.079971466064 80.8939153442383)" font-family="Gulim" font-size="14">l</text>
<text transform="matrix(1 0 0 1 477.748615661621 80.8939153442383)" font-family="Gulim" font-size="14">s</text>
<text transform="matrix(1 0 0 1 483.432537750244 80.8939153442383)" font-family="Gulim" font-size="14">.</text>
<text transform="matrix(1 0 0 1 109.578331802368 737.281697937012)" font-family="Gulim" font-size="17">N</text>
<text transform="matrix(1 0 0 1 124.604969711304 737.281697937012)" font-family="Gulim" font-size="17">o</text>
<text transform="matrix(1 0 0 1 136.333553352356 737.281697937012)" font-family="Gulim" font-size="17">w</text>
<text transform="matrix(1 0 0 1 152.745770072937 737.281697937012)" font-family="Gulim" font-size="17"> </text>
<text transform="matrix(1 0 0 1 160.551821815491 737.345646789551)" font-family="Gulim" font-size="19">I</text>
<text transform="matrix(1 0 0 1 165.450112724304 737.281697937012)" font-family="Gulim" font-size="17"> </text>
<text transform="matrix(1 0 0 1 173.256154296875 737.281697937012)" font-family="Gulim" font-size="17">m</text>
<text transform="matrix(1 0 0 1 191.42472706604 737.281697937012)" font-family="Gulim" font-size="17">a</text>
<text transform="matrix(1 0 0 1 202.333681274414 737.281697937012)" font-family="Gulim" font-size="17">k</text>
<text transform="matrix(1 0 0 1 212.559599090576 737.281697937012)" font-family="Gulim" font-size="17">e</text>
<text transform="matrix(1 0 0 1 223.722253692627 737.281697937012)" font-family="Gulim" font-size="17"> </text>
<text transform="matrix(1 0 0 1 231.528305435181 737.281697937012)" font-family="Gulim" font-size="17">s</text>
<text transform="matrix(1 0 0 1 240.856539199829 737.281697937012)" font-family="Gulim" font-size="17">n</text>
<text transform="matrix(1 0 0 1 252.487541854858 737.281697937012)" font-family="Gulim" font-size="17">o</text>
<text transform="matrix(1 0 0 1 264.216135665894 737.281697937012)" font-family="Gulim" font-size="17">w</text>
<text transform="matrix(1 0 0 1 280.628352386475 737.281697937012)" font-family="Gulim" font-size="17">b</text>
<text transform="matrix(1 0 0 1 293.196091827393 737.281697937012)" font-family="Gulim" font-size="17">a</text>
<text transform="matrix(1 0 0 1 304.105046035767 737.281697937012)" font-family="Gulim" font-size="17">l</text>
<text transform="matrix(1 0 0 1 308.847227706909 737.281697937012)" font-family="Gulim" font-size="17">l</text>
<text transform="matrix(1 0 0 1 313.589409378052 737.281697937012)" font-family="Gulim" font-size="17">s</text>
<text transform="matrix(1 0 0 1 322.9176431427 737.281697937012)" font-family="Gulim" font-size="17">.</text>
<text transform="matrix(1 0 0 1 327.308553604126 737.281697937012)" font-family="Gulim" font-size="17"> </text>
<text transform="matrix(1 0 0 1 109.578321632385 769.337646789551)" font-family="Gulim" font-size="19">I</text>
<text transform="matrix(1 0 0 1 114.476612541199 769.273697937012)" font-family="Gulim" font-size="17"> </text>
<text transform="matrix(1 0 0 1 122.28265411377 769.273697937012)" font-family="Gulim" font-size="17">m</text>
<text transform="matrix(1 0 0 1 140.451237052917 769.273697937012)" font-family="Gulim" font-size="17">a</text>
<text transform="matrix(1 0 0 1 151.360191261292 769.273697937012)" font-family="Gulim" font-size="17">k</text>
<text transform="matrix(1 0 0 1 161.586109077454 769.273697937012)" font-family="Gulim" font-size="17">e</text>
<text transform="matrix(1 0 0 1 172.748753509521 769.273697937012)" font-family="Gulim" font-size="17"> </text>
<text transform="matrix(1 0 0 1 180.554805252075 769.273697937012)" font-family="Gulim" font-size="17">t</text>
<text transform="matrix(1 0 0 1 188.048618179321 769.273697937012)" font-family="Gulim" font-size="17">h</text>
<text transform="matrix(1 0 0 1 199.679620834351 769.273697937012)" font-family="Gulim" font-size="17">e</text>
<text transform="matrix(1 0 0 1 210.842275436401 769.273697937012)" font-family="Gulim" font-size="17"> </text>
<text transform="matrix(1 0 0 1 218.648327178955 769.273697937012)" font-family="Gulim" font-size="17">s</text>
<text transform="matrix(1 0 0 1 227.976560943604 769.273697937012)" font-family="Gulim" font-size="17">n</text>
<text transform="matrix(1 0 0 1 239.607563598633 769.273697937012)" font-family="Gulim" font-size="17">o</text>
<text transform="matrix(1 0 0 1 251.336157409668 769.273697937012)" font-family="Gulim" font-size="17">w</text>
<text transform="matrix(1 0 0 1 267.748374130249 769.273697937012)" font-family="Gulim" font-size="17">b</text>
<text transform="matrix(1 0 0 1 280.316113571167 769.273697937012)" font-family="Gulim" font-size="17">a</text>
<text transform="matrix(1 0 0 1 291.225067779541 769.273697937012)" font-family="Gulim" font-size="17">l</text>
<text transform="matrix(1 0 0 1 295.967249450684 769.273697937012)" font-family="Gulim" font-size="17">l</text>
<text transform="matrix(1 0 0 1 300.709451461792 769.273697937012)" font-family="Gulim" font-size="17">s</text>
<text transform="matrix(1 0 0 1 310.03768522644 769.273697937012)" font-family="Gulim" font-size="17"> </text>
<text transform="matrix(1 0 0 1 317.843716629028 769.273697937012)" font-family="Gulim" font-size="17">h</text>
<text transform="matrix(1 0 0 1 329.474759963989 769.273697937012)" font-family="Gulim" font-size="17">a</text>
<text transform="matrix(1 0 0 1 340.383734512329 769.273697937012)" font-family="Gulim" font-size="17">r</text>
<text transform="matrix(1 0 0 1 347.487243835449 769.273697937012)" font-family="Gulim" font-size="17">d</text>
<text transform="matrix(1 0 0 1 360.054983276367 769.273697937012)" font-family="Gulim" font-size="17">!</text>
<text transform="matrix(1 0 0 1 109.578321632385 801.329646789551)" font-family="Gulim" font-size="19">I</text>
<text transform="matrix(1 0 0 1 114.476612541199 801.265697937012)" font-family="Gulim" font-size="17"> </text>
<text transform="matrix(1 0 0 1 122.28265411377 801.265697937012)" font-family="Gulim" font-size="17">t</text>
<text transform="matrix(1 0 0 1 129.776456871033 801.265697937012)" font-family="Gulim" font-size="17">h</text>
<text transform="matrix(1 0 0 1 141.407459526062 801.265697937012)" font-family="Gulim" font-size="17">r</text>
<text transform="matrix(1 0 0 1 148.491442481995 801.265697937012)" font-family="Gulim" font-size="17">o</text>
<text transform="matrix(1 0 0 1 160.22003629303 801.265697937012)" font-family="Gulim" font-size="17">w</text>
<text transform="matrix(1 0 0 1 176.632242843628 801.265697937012)" font-family="Gulim" font-size="17"> </text>
<text transform="matrix(1 0 0 1 184.438294586182 801.265697937012)" font-family="Gulim" font-size="17">a</text>
<text transform="matrix(1 0 0 1 195.347248794556 801.265697937012)" font-family="Gulim" font-size="17"> </text>
<text transform="matrix(1 0 0 1 203.153300537109 801.265697937012)" font-family="Gulim" font-size="17">s</text>
<text transform="matrix(1 0 0 1 212.481534301758 801.265697937012)" font-family="Gulim" font-size="17">n</text>
<text transform="matrix(1 0 0 1 224.112536956787 801.265697937012)" font-family="Gulim" font-size="17">o</text>
<text transform="matrix(1 0 0 1 235.841130767822 801.265697937012)" font-family="Gulim" font-size="17">w</text>
<text transform="matrix(1 0 0 1 252.253347488403 801.265697937012)" font-family="Gulim" font-size="17">b</text>
<text transform="matrix(1 0 0 1 264.821086929321 801.265697937012)" font-family="Gulim" font-size="17">a</text>
<text transform="matrix(1 0 0 1 275.730041137695 801.265697937012)" font-family="Gulim" font-size="17">l</text>
<text transform="matrix(1 0 0 1 280.472222808838 801.265697937012)" font-family="Gulim" font-size="17">l</text>
<text transform="matrix(1 0 0 1 285.21440447998 801.265697937012)" font-family="Gulim" font-size="17">!</text>
<text transform="matrix(1 0 0 1 109.578321632385 833.257697937012)" font-family="Gulim" font-size="17">M</text>
<text transform="matrix(1 0 0 1 126.127141563416 833.257697937012)" font-family="Gulim" font-size="17">y</text>
<text transform="matrix(1 0 0 1 137.270269798279 833.257697937012)" font-family="Gulim" font-size="17"> </text>
<text transform="matrix(1 0 0 1 145.076321540833 833.257697937012)" font-family="Gulim" font-size="17">d</text>
<text transform="matrix(1 0 0 1 157.64406098175 833.257697937012)" font-family="Gulim" font-size="17">a</text>
<text transform="matrix(1 0 0 1 168.553015190125 833.257697937012)" font-family="Gulim" font-size="17">d</text>
<text transform="matrix(1 0 0 1 181.12074446106 833.257697937012)" font-family="Gulim" font-size="17"> </text>
<text transform="matrix(1 0 0 1 188.926796203613 833.257697937012)" font-family="Gulim" font-size="17">s</text>
<text transform="matrix(1 0 0 1 198.255029968262 833.257697937012)" font-family="Gulim" font-size="17">h</text>
<text transform="matrix(1 0 0 1 209.886032623291 833.257697937012)" font-family="Gulim" font-size="17">o</text>
<text transform="matrix(1 0 0 1 222.102500854492 833.257697937012)" font-family="Gulim" font-size="17">u</text>
<text transform="matrix(1 0 0 1 233.733503509521 833.257697937012)" font-family="Gulim" font-size="17">t</text>
<text transform="matrix(1 0 0 1 241.227316436768 833.257697937012)" font-family="Gulim" font-size="17">s</text>
<text transform="matrix(1 0 0 1 250.555550201416 833.257697937012)" font-family="Gulim" font-size="17">,</text>
<text transform="matrix(1 0 0 1 254.946460662842 833.257697937012)" font-family="Gulim" font-size="17"> </text>
<text transform="matrix(1 0 0 1 262.752512405396 833.257697937012)" font-family="Gulim" font-size="17">“</text>
<text transform="matrix(1 0 0 1 271.046438568115 833.257697937012)" font-family="Gulim" font-size="17">O</text>
<text transform="matrix(1 0 0 1 287.243987289429 833.257697937012)" font-family="Gulim" font-size="17">u</text>
<text transform="matrix(1 0 0 1 298.874989944458 833.257697937012)" font-family="Gulim" font-size="17">c</text>
<text transform="matrix(1 0 0 1 309.627834915161 833.257697937012)" font-family="Gulim" font-size="17">h</text>
<text transform="matrix(1 0 0 1 321.258878250122 833.257697937012)" font-family="Gulim" font-size="17">!</text>
<text transform="matrix(1 0 0 1 326.157189498901 833.257697937012)" font-family="Gulim" font-size="17">”</text>
<text transform="matrix(1 0 0 1 109.578321632385 865.249697937012)" font-family="Gulim" font-size="17">H</text>
<text transform="matrix(1 0 0 1 124.019514305115 865.249697937012)" font-family="Gulim" font-size="17">e</text>
<text transform="matrix(1 0 0 1 135.182168907166 865.249697937012)" font-family="Gulim" font-size="17"> </text>
<text transform="matrix(1 0 0 1 142.988220649719 865.249697937012)" font-family="Gulim" font-size="17">l</text>
<text transform="matrix(1 0 0 1 147.730402320862 865.249697937012)" font-family="Gulim" font-size="17">a</text>
<text transform="matrix(1 0 0 1 158.639356529236 865.249697937012)" font-family="Gulim" font-size="17">u</text>
<text transform="matrix(1 0 0 1 170.270359184265 865.249697937012)" font-family="Gulim" font-size="17">g</text>
<text transform="matrix(1 0 0 1 182.8380884552 865.249697937012)" font-family="Gulim" font-size="17">h</text>
<text transform="matrix(1 0 0 1 194.469091110229 865.249697937012)" font-family="Gulim" font-size="17">s</text>
<text transform="matrix(1 0 0 1 203.797324874878 865.249697937012)" font-family="Gulim" font-size="17"> </text>
<text transform="matrix(1 0 0 1 211.603376617432 865.249697937012)" font-family="Gulim" font-size="17">a</text>
<text transform="matrix(1 0 0 1 222.512330825806 865.249697937012)" font-family="Gulim" font-size="17">n</text>
<text transform="matrix(1 0 0 1 234.143333480835 865.249697937012)" font-family="Gulim" font-size="17">d</text>
<text transform="matrix(1 0 0 1 246.711072921753 865.249697937012)" font-family="Gulim" font-size="17"> </text>
<text transform="matrix(1 0 0 1 254.517124664307 865.249697937012)" font-family="Gulim" font-size="17">s</text>
<text transform="matrix(1 0 0 1 263.845358428955 865.249697937012)" font-family="Gulim" font-size="17">a</text>
<text transform="matrix(1 0 0 1 274.364009033203 865.249697937012)" font-family="Gulim" font-size="17">y</text>
<text transform="matrix(1 0 0 1 285.11683366394 865.249697937012)" font-family="Gulim" font-size="17">s</text>
<text transform="matrix(1 0 0 1 294.445067428589 865.249697937012)" font-family="Gulim" font-size="17">,</text>
<text transform="matrix(1 0 0 1 298.835977890015 865.249697937012)" font-family="Gulim" font-size="17"> </text>
<text transform="matrix(1 0 0 1 306.642009292603 865.249697937012)" font-family="Gulim" font-size="17">“</text>
<text transform="matrix(1 0 0 1 314.935955795288 865.249697937012)" font-family="Gulim" font-size="17">G</text>
<text transform="matrix(1 0 0 1 329.845516860962 865.249697937012)" font-family="Gulim" font-size="17">o</text>
<text transform="matrix(1 0 0 1 342.062005432129 865.249697937012)" font-family="Gulim" font-size="17">o</text>
<text transform="matrix(1 0 0 1 354.27847366333 865.249697937012)" font-family="Gulim" font-size="17">d</text>
<text transform="matrix(1 0 0 1 366.846213104248 865.249697937012)" font-family="Gulim" font-size="17"> </text>
<text transform="matrix(1 0 0 1 374.652244506836 865.249697937012)" font-family="Gulim" font-size="17">t</text>
<text transform="matrix(1 0 0 1 382.146057434082 865.249697937012)" font-family="Gulim" font-size="17">h</text>
<text transform="matrix(1 0 0 1 393.777100769043 865.249697937012)" font-family="Gulim" font-size="17">r</text>
<text transform="matrix(1 0 0 1 400.861104064941 865.249697937012)" font-family="Gulim" font-size="17">o</text>
<text transform="matrix(1 0 0 1 412.589657196045 865.249697937012)" font-family="Gulim" font-size="17">w</text>
<text transform="matrix(1 0 0 1 429.001894256592 865.249697937012)" font-family="Gulim" font-size="17">!</text>
<text transform="matrix(1 0 0 1 433.900205505371 865.249697937012)" font-family="Gulim" font-size="17">”</text>
<text transform="matrix(1 0 0 1 442.194152008057 865.249697937012)" font-family="Gulim" font-size="17"> </text>
<text transform="matrix(1 0 0 1 109.578321632385 912.427190979004)" font-family="Gulim" font-size="19">I</text>
<text transform="matrix(1 0 0 1 114.476612541199 912.363242126465)" font-family="Gulim" font-size="17"> </text>
<text transform="matrix(1 0 0 1 122.28265411377 912.363242126465)" font-family="Gulim" font-size="17">l</text>
<text transform="matrix(1 0 0 1 127.024825614929 912.363242126465)" font-family="Gulim" font-size="17">o</text>
<text transform="matrix(1 0 0 1 138.655848609924 912.363242126465)" font-family="Gulim" font-size="17">v</text>
<text transform="matrix(1 0 0 1 149.135466819763 912.363242126465)" font-family="Gulim" font-size="17">e</text>
<text transform="matrix(1 0 0 1 160.298121421814 912.363242126465)" font-family="Gulim" font-size="17"> </text>
<text transform="matrix(1 0 0 1 168.104173164368 912.363242126465)" font-family="Gulim" font-size="17">w</text>
<text transform="matrix(1 0 0 1 184.516379714966 912.363242126465)" font-family="Gulim" font-size="17">i</text>
<text transform="matrix(1 0 0 1 189.258561386108 912.363242126465)" font-family="Gulim" font-size="17">n</text>
<text transform="matrix(1 0 0 1 200.889564041138 912.363242126465)" font-family="Gulim" font-size="17">t</text>
<text transform="matrix(1 0 0 1 208.090644180298 912.363242126465)" font-family="Gulim" font-size="17">e</text>
<text transform="matrix(1 0 0 1 219.253298782349 912.363242126465)" font-family="Gulim" font-size="17">r</text>
<text transform="matrix(1 0 0 1 226.766617736816 912.363242126465)" font-family="Gulim" font-size="17">!</text>
<text transform="matrix(1 0 0 1 231.66490864563 912.363242126465)" font-family="Gulim" font-size="17"> </text>
<text transform="matrix(1 0 0 1 239.470960388184 912.363242126465)" font-family="Gulim" font-size="17">W</text>
<text transform="matrix(1 0 0 1 260.391164413452 912.363242126465)" font-family="Gulim" font-size="17">i</text>
<text transform="matrix(1 0 0 1 265.133346084595 912.363242126465)" font-family="Gulim" font-size="17">n</text>
<text transform="matrix(1 0 0 1 276.764348739624 912.363242126465)" font-family="Gulim" font-size="17">t</text>
<text transform="matrix(1 0 0 1 283.965428878784 912.363242126465)" font-family="Gulim" font-size="17">e</text>
<text transform="matrix(1 0 0 1 295.128083480835 912.363242126465)" font-family="Gulim" font-size="17">r</text>
<text transform="matrix(1 0 0 1 302.641422775269 912.363242126465)" font-family="Gulim" font-size="17"> </text>
<text transform="matrix(1 0 0 1 310.447454177856 912.363242126465)" font-family="Gulim" font-size="17">i</text>
<text transform="matrix(1 0 0 1 315.189635848999 912.363242126465)" font-family="Gulim" font-size="17">s</text>
<text transform="matrix(1 0 0 1 324.517869613647 912.363242126465)" font-family="Gulim" font-size="17"> </text>
<text transform="matrix(1 0 0 1 332.323901016235 912.363242126465)" font-family="Gulim" font-size="17">f</text>
<text transform="matrix(1 0 0 1 339.095685836792 912.363242126465)" font-family="Gulim" font-size="17">u</text>
<text transform="matrix(1 0 0 1 350.726749511719 912.363242126465)" font-family="Gulim" font-size="17">n</text>
<text transform="matrix(1 0 0 1 362.35779284668 912.363242126465)" font-family="Gulim" font-size="17">!</text>
<text transform="matrix(1 0 0 1 719.325901550293 85.7671270751953)" font-family="Gulim" font-size="19">W</text>
<text transform="matrix(1 0 0 1 740.763249206543 85.7671270751953)" font-family="Gulim" font-size="19">r</text>
<text transform="matrix(1 0 0 1 748.853267211914 85.7671270751953)" font-family="Gulim" font-size="19">i</text>
<text transform="matrix(1 0 0 1 754.337247436523 85.7671270751953)" font-family="Gulim" font-size="19">t</text>
<text transform="matrix(1 0 0 1 761.951391601562 85.7671270751953)" font-family="Gulim" font-size="19">e</text>
<text transform="matrix(1 0 0 1 773.100621826172 85.7671270751953)" font-family="Gulim" font-size="19">.</text>
<text transform="matrix(1 0 0 1 566.735355926514 80.1510184326172)" font-family="Gulim" font-size="23">N</text>
<text transform="matrix(1 0 0 1 585.5306640625 80.1510184326172)" font-family="Gulim" font-size="23">e</text>
<text transform="matrix(1 0 0 1 598.727355926514 80.1510184326172)" font-family="Gulim" font-size="23">w</text>
<text transform="matrix(1 0 0 1 618.055855926514 80.1510184326172)" font-family="Gulim" font-size="23"> </text>
<text transform="matrix(1 0 0 1 623.62778616333 80.1510184326172)" font-family="Gulim" font-size="23">W</text>
<text transform="matrix(1 0 0 1 648.421594299316 80.1510184326172)" font-family="Gulim" font-size="23">o</text>
<text transform="matrix(1 0 0 1 662.471385009766 80.1510184326172)" font-family="Gulim" font-size="23">r</text>
<text transform="matrix(1 0 0 1 672.308931518555 80.1510184326172)" font-family="Gulim" font-size="23">d</text>
<text transform="matrix(1 0 0 1 686.811978027344 80.1510184326172)" font-family="Gulim" font-size="23">s</text>
<text transform="matrix(1 0 0 1 530.304321105957 75.4109114379883)" font-family="Gulim" font-size="9">0</text>
<text transform="matrix(1 0 0 1 536.126880401611 75.4109114379883)" font-family="Gulim" font-size="9">2</text>
<text transform="matrix(1 0 0 1 28.4436853351593 1102.90421801758)" font-family="Gulim" font-size="6">1</text>
<text transform="matrix(1 0 0 1 33.0345376605988 1102.90421801758)" font-family="Gulim" font-size="6">0</text>
<text transform="matrix(1 0 0 1 37.6253899860382 1102.90421801758)" font-family="Gulim" font-size="6">0</text>
<text transform="matrix(1 0 0 1 42.2162423114777 1102.90421801758)" font-family="Gulim" font-size="6">_</text>
<text transform="matrix(1 0 0 1 46.2152397689819 1102.90421801758)" font-family="Gulim" font-size="6">L</text>
<text transform="matrix(1 0 0 1 50.5581580810547 1102.90421801758)" font-family="Gulim" font-size="6">0</text>
<text transform="matrix(1 0 0 1 55.1490104064941 1102.90421801758)" font-family="Gulim" font-size="6">1</text>
<text transform="matrix(1 0 0 1 59.7398627319336 1102.90421801758)" font-family="Gulim" font-size="6">.</text>
<text transform="matrix(1 0 0 1 62.4111918029785 1102.90421801758)" font-family="Gulim" font-size="6">i</text>
<text transform="matrix(1 0 0 1 64.3387086639404 1102.90421801758)" font-family="Gulim" font-size="6">n</text>
<text transform="matrix(1 0 0 1 68.9775531387329 1102.90421801758)" font-family="Gulim" font-size="6">d</text>
<text transform="matrix(1 0 0 1 73.8163394775391 1102.90421801758)" font-family="Gulim" font-size="6">d</text>
<text transform="matrix(1 0 0 1 78.6551258163452 1102.90421801758)" font-family="Gulim" font-size="6"> </text>
<text transform="matrix(1 0 0 1 81.3184612808227 1102.90421801758)" font-family="Gulim" font-size="6"> </text>
<text transform="matrix(1 0 0 1 83.9817967453003 1102.90421801758)" font-family="Gulim" font-size="6"> </text>
<text transform="matrix(1 0 0 1 86.6451322097778 1102.90421801758)" font-family="Gulim" font-size="6">7</text>
<text transform="matrix(1 0 0 1 716.639073425293 1102.90421801758)" font-family="Gulim" font-size="7">2</text>
<text transform="matrix(1 0 0 1 721.229885070801 1102.90421801758)" font-family="Gulim" font-size="7">0</text>
<text transform="matrix(1 0 0 1 725.820696716309 1102.90421801758)" font-family="Gulim" font-size="7">1</text>
<text transform="matrix(1 0 0 1 730.411508361816 1102.90421801758)" font-family="Gulim" font-size="7">6</text>
<text transform="matrix(1 0 0 1 735.002320007324 1102.90421801758)" font-family="Gulim" font-size="7">-</text>
<text transform="matrix(1 0 0 1 740.001070007324 1102.90421801758)" font-family="Gulim" font-size="7">0</text>
<text transform="matrix(1 0 0 1 744.591881652832 1102.90421801758)" font-family="Gulim" font-size="7">8</text>
<text transform="matrix(1 0 0 1 749.18269329834 1102.90421801758)" font-family="Gulim" font-size="7">-</text>
<text transform="matrix(1 0 0 1 754.18144329834 1102.90421801758)" font-family="Gulim" font-size="7">1</text>
<text transform="matrix(1 0 0 1 758.772254943848 1102.90421801758)" font-family="Gulim" font-size="7">6</text>
<text transform="matrix(1 0 0 1 763.363066589355 1102.90421801758)" font-family="Gulim" font-size="7"> </text>
<text transform="matrix(1 0 0 1 766.026381713867 1102.90421801758)" font-family="Gulim" font-size="7"> </text>
<text transform="matrix(1 0 0 1 768.689696838379 1102.90421801758)" font-family="Gulim" font-size="7"> </text>
<text transform="matrix(1 0 0 1 771.353011962891 1102.90421801758)" font-family="Gulim" font-size="7">오</text>
<text transform="matrix(1 0 0 1 779.351011962891 1102.90421801758)" font-family="Gulim" font-size="7">전</text>
<text transform="matrix(1 0 0 1 787.349011962891 1102.90421801758)" font-family="Gulim" font-size="7"> </text>
<text transform="matrix(1 0 0 1 790.012327087402 1102.90421801758)" font-family="Gulim" font-size="7">7</text>
<text transform="matrix(1 0 0 1 794.60313873291 1102.90421801758)" font-family="Gulim" font-size="7">:</text>
<text transform="matrix(1 0 0 1 797.274508483887 1102.90421801758)" font-family="Gulim" font-size="7">4</text>
<text transform="matrix(1 0 0 1 801.865320129394 1102.90421801758)" font-family="Gulim" font-size="7">8</text>
<text transform="matrix(1 0 0 1 806.456131774902 1102.90421801758)" font-family="Gulim" font-size="7">:</text>
<text transform="matrix(1 0 0 1 809.127501525879 1102.90421801758)" font-family="Gulim" font-size="7">0</text>
<text transform="matrix(1 0 0 1 813.718313171387 1102.90421801758)" font-family="Gulim" font-size="7">2</text>
</svg>